{
.appVersion = "3208";
.formatVersion = 3;
customParameters = (
{
name = "Use Typo Metrics";
value = 1;
},
{
name = fsType;
value = (
);
}
);
date = "2012-09-06 03:51:49 +0000";
familyName = "Seymour One";
featurePrefixes = (
{
automatic = 1;
code = "languagesystem DFLT dflt;

languagesystem latn dflt;
languagesystem latn AZE;
languagesystem latn CRT;
languagesystem latn KAZ;
languagesystem latn TAT;
languagesystem latn TRK;
languagesystem latn ROM;
languagesystem latn MOL;
languagesystem latn CAT;
";
name = Languagesystems;
}
);
features = (
{
automatic = 1;
code = "feature locl;
feature sups;
feature frac;
feature ordn;
";
tag = aalt;
},
{
code = "lookup ccmp_Other_1 {
	@CombiningTopAccents = [acutecomb brevecomb breveinvertedcomb caroncomb circumflexcomb commaturnedabovecomb dblgravecomb dieresiscomb dotaccentcomb gravecomb hungarumlautcomb macroncomb ringcomb tildecomb];
	@CombiningNonTopAccents = [cedillacomb ogonekcomb commaaccentcomb];
	lookupflag UseMarkFilteringSet @CombiningTopAccents;
	sub i' @CombiningTopAccents by idotless;
	sub j' @CombiningTopAccents by jdotless;
	sub iogonek' @CombiningTopAccents by idotless ogonekcomb;
	sub iogonek' @CombiningNonTopAccents @CombiningTopAccents by idotless ogonekcomb;
} ccmp_Other_1;

lookup ccmp_latn_1 {
	sub fi by f i;
	sub fl by f l;
} ccmp_latn_1;

script latn;
lookup ccmp_latn_1;
";
tag = ccmp;
},
{
automatic = 1;
code = "script latn;
language AZE;
lookup locl_latn_0 {
	sub i by idotaccent;
} locl_latn_0;
language CRT;
lookup locl_latn_0;
language KAZ;
lookup locl_latn_0;
language TAT;
lookup locl_latn_0;
language TRK;
lookup locl_latn_0;

script latn;
language ROM;
lookup locl_latn_1 {
	sub Scedilla by Scommaaccent;
	sub scedilla by scommaaccent;
} locl_latn_1;
language MOL;
lookup locl_latn_1;

script latn;
language CAT;
lookup locl_latn_2 {
	sub  l' periodcentered' l by ldot;
	sub  L' periodcentered' L by Ldot;
} locl_latn_2;
";
tag = locl;
},
{
automatic = 1;
code = "sub one by onesuperior;

glyphs = (
{
glyphname = A;
kernLeft = A;
kernRight = A;
lastChange = "2023-07-05 14:32:28 +0000";
layers = (
{
anchors = (
{
name = bottom;
pos = (1138,0);
},
{
name = ogonek;
pos = (2048,50);
},
{
name = top;
pos = (1138,1465);
}
);
background = {
anchors = (
{
name = ogonek;
pos = (2048,10);
},
{
name = top;
pos = (1138,1465);
}
);
shapes = (
{
closed = 1;
nodes = (
(909,540,l),
(947,641,o),
(1005,779,o),
(1083,1021,c),
(1130,840,o),
(1179,691,o),
(1226,540,c)
);
},
{
closed = 1;
nodes = (
(624,-22,o),
(655,-19,o),
(684,-15,c),
(714,68,o),
(731,101,o),
(759,173,c),
(829,173,o),
(1302,171,o),
(1350,165,c),
(1371,93,o),
(1391,40,o),
(1427,-24,c),
(1466,-26,o),
(1506,-30,o),
(1547,-30,cs),
(1566,-30,o),
(1585,-29,o),
(2205,29,c),
(2184,77,o),
(2152,123,o),
(2121,205,c),
(1957,586,o),
(1601,1414,o),
(1596,1431,c),
(1541,1449,o),
(1478,1451,o),
(1415,1451,cs),
(1156,1451,o),
(912,1421,o),
(711,1410,c),
(340,599,o),
(122,133,o),
(71,30,c),
(176,19,o),
(537,-22,o),
(580,-22,cs)
);
}
);
};
layerId = m001;
shapes = (
{
closed = 1;
nodes = (
(1566,-30,o),
(1585,-29,o),
(2205,29,c),
(2184,77,o),
(2152,123,o),
(2121,205,c),
(1957,586,o),
(1601,1414,o),
(1596,1431,c),
(1541,1449,o),
(1478,1451,o),
(1415,1451,cs),
(1156,1451,o),
(912,1421,o),
(711,1410,c),
(340,599,o),
(122,133,o),
(71,30,c),
(176,19,o),
(537,-22,o),
(580,-22,cs),
(624,-22,o),
(655,-19,o),
(684,-15,c),
(714,68,o),
(731,101,o),
(759,173,c),
(829,173,o),
(1302,171,o),
(1350,165,c),
(1371,93,o),
(1391,40,o),
(1427,-24,c),
(1466,-26,o),
(1506,-30,o),
(1547,-30,cs)
);
},
{
closed = 1;
nodes = (
(947,641,o),
(1005,779,o),
(1083,1021,c),
(1130,840,o),
(1179,691,o),
(1226,540,c),
(909,540,l)
);
}
);
width = 2276;
}
);
unicode = 65;
},
{
glyphname = Aacute;
kernLeft = A;
kernRight = A;
lastChange = "2023-07-05 14:32:28 +0000";
layers = (
{
background = {
anchors = (
{
name = ogonek;
pos = (2048,10);
},
{
name = top;
pos = (1138,1465);
}
);
shapes = (
{
closed = 1;
nodes = (
(909,540,l),
(947,641,o),
(1005,779,o),
(1083,1021,c),
(1130,840,o),
(1179,691,o),
(1226,540,c)
);
},
{
closed = 1;
nodes = (
(624,-22,o),
(655,-19,o),
(684,-15,c),
(714,68,o),
(731,101,o),
(759,173,c),
(829,173,o),
(1302,171,o),
(1350,165,c),
(1371,93,o),
(1391,40,o),
(1427,-24,c),
(1466,-26,o),
(1506,-30,o),
(1547,-30,cs),
(1566,-30,o),
(1585,-29,o),
(2205,29,c),
(2184,77,o),
(2152,123,o),
(2121,205,c),
(1957,586,o),
(1601,1414,o),
(1596,1431,c),
(1541,1449,o),
(1478,1451,o),
(1415,1451,cs),
(1156,1451,o),
(912,1421,o),
(711,1410,c),
(340,599,o),
(122,133,o),
(71,30,c),
(176,19,o),
(537,-22,o),
(580,-22,cs)
);
},
{
closed = 1;
nodes = (
(1007,1645,o),
(1009,1644,o),
(1009,1644,c),
(1095,1709,o),
(1341,1910,o),
(1442,1991,c),
(1395,2005,o),
(1144,2077,o),
(1098,2089,c),
(1076,2058,o),
(916,1821,o),
(835,1686,c),
(871,1677,o),
(988,1648,o),
(1006,1645,cs)
);
}
);
};
layerId = m001;
shapes = (
{
ref = A;
},
{
pos = (771,439);
ref = acutecomb;
}
);
width = 2276;
}
);
unicode = 193;
},
{
glyphname = Abreve;
kernLeft = A;
kernRight = A;
lastChange = "2023-07-05 14:32:28 +0000";
layers = (
{
background = {
anchors = (
{
name = ogonek;
pos = (2048,10);
},
{
name = top;
pos = (1138,1465);
}
);
shapes = (
{
closed = 1;
nodes = (
(909,540,l),
(947,641,o),
(1005,779,o),
(1083,1021,c),
(1130,840,o),
(1179,691,o),
(1226,540,c)
);
},
{
closed = 1;
nodes = (
(624,-22,o),
(655,-19,o),
(684,-15,c),
(714,68,o),
(731,101,o),
(759,173,c),
(829,173,o),
(1302,171,o),
(1350,165,c),
(1371,93,o),
(1391,40,o),
(1427,-24,c),
(1466,-26,o),
(1506,-30,o),
(1547,-30,cs),
(1566,-30,o),
(1585,-29,o),
(2205,29,c),
(2184,77,o),
(2152,123,o),
(2121,205,c),
(1957,586,o),
(1601,1414,o),
(1596,1431,c),
(1541,1449,o),
(1478,1451,o),
(1415,1451,cs),
(1156,1451,o),
(912,1421,o),
(711,1410,c),
(340,599,o),
(122,133,o),
(71,30,c),
(176,19,o),
(537,-22,o),
(580,-22,cs)
);
},
{
closed = 1;
nodes = (
(1221,1778,o),
(1128,1778,cs),
(1043,1778,o),
(1014,1831,o),
(1014,1873,cs),
(1014,1887,o),
(1017,1900,o),
(1017,1904,c),
(816,1904,l),
(809,1879,o),
(806,1855,o),
(806,1833,cs),
(806,1688,o),
(947,1590,o),
(1114,1590,cs),
(1316,1590,o),
(1470,1690,o),
(1470,1904,c),
(1261,1902,l),
(1261,1816,o)
);
}
);
};
layerId = m001;
shapes = (
{
ref = A;
},
{
pos = (732,439);
ref = brevecomb;
}
);
width = 2276;
}
);
unicode = 258;
},
{
glyphname = Acircumflex;
kernLeft = A;
kernRight = A;
lastChange = "2023-07-05 14:32:28 +0000";
layers = (
{
background = {
anchors = (
{
name = ogonek;
pos = (2048,10);
},
{
name = top;
pos = (1138,1465);
}
);
shapes = (
{
closed = 1;
nodes = (
(909,540,l),
(947,641,o),
(1005,779,o),
(1083,1021,c),
(1130,840,o),
(1179,691,o),
(1226,540,c)
);
},
{
closed = 1;
nodes = (
(624,-22,o),
(655,-19,o),
(684,-15,c),
(714,68,o),
(731,101,o),
(759,173,c),
(829,173,o),
(1302,171,o),
(1350,165,c),
(1371,93,o),
(1391,40,o),
(1427,-24,c),
(1466,-26,o),
(1506,-30,o),
(1547,-30,cs),
(1566,-30,o),
(1585,-29,o),
(2205,29,c),
(2184,77,o),
(2152,123,o),
(2121,205,c),
(1957,586,o),
(1601,1414,o),
(1596,1431,c),
(1541,1449,o),
(1478,1451,o),
(1415,1451,cs),
(1156,1451,o),
(912,1421,o),
(711,1410,c),
(340,599,o),
(122,133,o),
(71,30,c),
(176,19,o),
(537,-22,o),
(580,-22,cs)
);
},
{
closed = 1;
nodes = (
(980,1682,o),
(1094,1811,o),
(1153,1860,c),
(1191,1809,o),
(1230,1760,o),
(1268,1710,c),
(1295,1687,o),
(1319,1671,o),
(1345,1660,c),
(1380,1660,o),
(1533,1699,o),
(1570,1720,c),
(1555,1747,o),
(1514,1792,o),
(1494,1815,cs),
(1427,1890,o),
(1312,2030,o),
(1273,2067,c),
(1256,2069,o),
(1238,2069,o),
(1219,2069,cs),
(1192,2069,o),
(1164,2070,o),
(1137,2070,cs),
(1104,2070,o),
(1071,2068,o),
(1040,2060,c),
(995,2012,o),
(953,1967,o),
(907,1921,cs),
(783,1795,ls),
(753,1764,o),
(727,1741,o),
(707,1716,c),
(744,1708,o),
(876,1661,o),
(924,1661,c)
);
}
);
};
layerId = m001;
shapes = (
{
ref = A;
},
{
pos = (636,439);
ref = circumflexcomb;
}
);
width = 2276;
}
);
unicode = 194;
},
{
glyphname = Adblgrave;
kernLeft = A;
kernRight = A;
lastChange = "2023-07-05 14:32:28 +0000";
layers = (
{
background = {
anchors = (
{
name = ogonek;
pos = (2048,10);
},
{
name = top;
pos = (1138,1465);
}
);
shapes = (
{
closed = 1;
nodes = (
(909,540,l),
(947,641,o),
(1005,779,o),
(1083,1021,c),
(1130,840,o),
(1179,691,o),
(1226,540,c)
);
},
{
closed = 1;
nodes = (
(624,-22,o),
(655,-19,o),
(684,-15,c),
(714,68,o),
(731,101,o),
(759,173,c),
(829,173,o),
(1302,171,o),
(1350,165,c),
(1371,93,o),
(1391,40,o),
(1427,-24,c),
(1466,-26,o),
(1506,-30,o),
(1547,-30,cs),
(1566,-30,o),
(1585,-29,o),
(2205,29,c),
(2184,77,o),
(2152,123,o),
(2121,205,c),
(1957,586,o),
(1601,1414,o),
(1596,1431,c),
(1541,1449,o),
(1478,1451,o),
(1415,1451,cs),
(1156,1451,o),
(912,1421,o),
(711,1410,c),
(340,599,o),
(122,133,o),
(71,30,c),
(176,19,o),
(537,-22,o),
(580,-22,cs)
);
}
);
};
layerId = m001;
shapes = (
{
ref = A;
},
{
pos = (614,439);
ref = dblgravecomb;
}
);
width = 2276;
}
);
unicode = 512;
},
{
glyphname = Adieresis;
kernLeft = A;
kernRight = A;
lastChange = "2023-07-05 14:32:28 +0000";
layers = (
{
background = {
anchors = (
{
name = ogonek;
pos = (2048,10);
},
{
name = top;
pos = (1138,1465);
}
);
shapes = (
{
closed = 1;
nodes = (
(909,540,l),
(947,641,o),
(1005,779,o),
(1083,1021,c),
(1130,840,o),
(1179,691,o),
(1226,540,c)
);
},
{
closed = 1;
nodes = (
(624,-22,o),
(655,-19,o),
(684,-15,c),
(714,68,o),
(731,101,o),
(759,173,c),
(829,173,o),
(1302,171,o),
(1350,165,c),
(1371,93,o),
(1391,40,o),
(1427,-24,c),
(1466,-26,o),
(1506,-30,o),
(1547,-30,cs),
(1566,-30,o),
(1585,-29,o),
(2205,29,c),
(2184,77,o),
(2152,123,o),
(2121,205,c),
(1957,586,o),
(1601,1414,o),
(1596,1431,c),
(1541,1449,o),
(1478,1451,o),
(1415,1451,cs),
(1156,1451,o),
(912,1421,o),
(711,1410,c),
(340,599,o),
(122,133,o),
(71,30,c),
(176,19,o),
(537,-22,o),
(580,-22,cs)
);
},
{
closed = 1;
nodes = (
(1644,1658,l),
(1644,2015,l),
(1625,2015,l),
(1272,2015,l),
(1264,1659,l),
(1592,1658,l)
);
},
{
closed = 1;
nodes = (
(632,1657,o),
(635,1657,o),
(642,1657,cs),
(759,1657,o),
(866,1659,o),
(1013,1659,c),
(1018,2017,l),
(1000,2017,ls),
(900,2017,o),
(776,2015,o),
(672,2015,cs),
(645,2015,l),
(632,1667,l),
(632,1664,ls)
);
}
);
};
layerId = m001;
shapes = (
{
ref = A;
},
{
pos = (543,439);
ref = dieresiscomb;
}
);
width = 2276;
}
);
unicode = 196;
},
{
glyphname = Agrave;
kernLeft = A;
kernRight = A;
lastChange = "2023-07-05 14:32:28 +0000";
layers = (
{
background = {
anchors = (
{
name = ogonek;
pos = (2048,10);
},
{
name = top;
pos = (1138,1465);
}
);
shapes = (
{
closed = 1;
nodes = (
(909,540,l),
(947,641,o),
(1005,779,o),
(1083,1021,c),
(1130,840,o),
(1179,691,o),
(1226,540,c)
);
},
{
closed = 1;
nodes = (
(624,-22,o),
(655,-19,o),
(684,-15,c),
(714,68,o),
(731,101,o),
(759,173,c),
(829,173,o),
(1302,171,o),
(1350,165,c),
(1371,93,o),
(1391,40,o),
(1427,-24,c),
(1466,-26,o),
(1506,-30,o),
(1547,-30,cs),
(1566,-30,o),
(1585,-29,o),
(2205,29,c),
(2184,77,o),
(2152,123,o),
(2121,205,c),
(1957,586,o),
(1601,1414,o),
(1596,1431,c),
(1541,1449,o),
(1478,1451,o),
(1415,1451,cs),
(1156,1451,o),
(912,1421,o),
(711,1410,c),
(340,599,o),
(122,133,o),
(71,30,c),
(176,19,o),
(537,-22,o),
(580,-22,cs)
);
},
{
closed = 1;
nodes = (
(1203,2109,l),
(1200,2109,ls),
(1195,2109,o),
(914,2018,o),
(853,1999,c),
(1270,1634,l),
(1298,1645,l),
(1423,1690,l)
);
}
);
};
layerId = m001;
shapes = (
{
ref = A;
},
{
pos = (828,439);
ref = gravecomb;
}
);
width = 2276;
}
);
unicode = 192;
},
{
glyphname = Ainvertedbreve;
kernLeft = A;
kernRight = A;
lastChange = "2023-07-05 14:32:28 +0000";
layers = (
{
background = {
anchors = (
{
name = ogonek;
pos = (2048,10);
},
{
name = top;
pos = (1196.143,1930.34);
}
);
shapes = (
{
closed = 1;
nodes = (
(909,540,l),
(947,641,o),
(1005,779,o),
(1083,1021,c),
(1130,840,o),
(1179,691,o),
(1226,540,c)
);
},
{
closed = 1;
nodes = (
(624,-22,o),
(655,-19,o),
(684,-15,c),
(714,68,o),
(731,101,o),
(759,173,c),
(829,173,o),
(1302,171,o),
(1350,165,c),
(1371,93,o),
(1391,40,o),
(1427,-24,c),
(1466,-26,o),
(1506,-30,o),
(1547,-30,cs),
(1566,-30,o),
(1585,-29,o),
(2205,29,c),
(2184,77,o),
(2152,123,o),
(2121,205,c),
(1957,586,o),
(1601,1414,o),
(1596,1431,c),
(1541,1449,o),
(1478,1451,o),
(1415,1451,cs),
(1156,1451,o),
(912,1421,o),
(711,1410,c),
(340,599,o),
(122,133,o),
(71,30,c),
(176,19,o),
(537,-22,o),
(580,-22,cs)
);
},
{
closed = 1;
nodes = (
(1295,1668,o),
(1294,1668,o),
(1294,1665,cs),
(1294,1652,o),
(1307,1644,o),
(1379,1644,cs),
(1469,1644,o),
(1476,1654,o),
(1476,1681,cs),
(1476,1804,o),
(1401,1930,o),
(1220,1930,cs),
(1051,1930,o),
(916,1843,o),
(916,1695,cs),
(916,1663,o),
(920,1649,o),
(1011,1649,cs),
(1077,1649,o),
(1082,1658,o),
(1085,1672,cs),
(1085,1673,o),
(1084,1674,o),
(1084,1675,cs),
(1084,1714,o),
(1109,1774,o),
(1195,1774,cs),
(1264,1774,o),
(1299,1734,o),
(1299,1698,cs),
(1299,1687,o),
(1296,1678,o),
(1295,1671,cs)
);
}
);
};
layerId = m001;
shapes = (
{
ref = A;
},
{
pos = (802,0);
ref = breveinvertedcomb;
}
);
width = 2276;
}
);
unicode = 514;
},
{
glyphname = Amacron;
kernLeft = A;
kernRight = A;
lastChange = "2023-07-05 14:32:28 +0000";
layers = (
{
background = {
anchors = (
{
name = ogonek;
pos = (2048,10);
},
{
name = top;
pos = (1138,1465);
}
);
shapes = (
{
closed = 1;
nodes = (
(909,540,l),
(947,641,o),
(1005,779,o),
(1083,1021,c),
(1130,840,o),
(1179,691,o),
(1226,540,c)
);
},
{
closed = 1;
nodes = (
(624,-22,o),
(655,-19,o),
(684,-15,c),
(714,68,o),
(731,101,o),
(759,173,c),
(829,173,o),
(1302,171,o),
(1350,165,c),
(1371,93,o),
(1391,40,o),
(1427,-24,c),
(1466,-26,o),
(1506,-30,o),
(1547,-30,cs),
(1566,-30,o),
(1585,-29,o),
(2205,29,c),
(2184,77,o),
(2152,123,o),
(2121,205,c),
(1957,586,o),
(1601,1414,o),
(1596,1431,c),
(1541,1449,o),
(1478,1451,o),
(1415,1451,cs),
(1156,1451,o),
(912,1421,o),
(711,1410,c),
(340,599,o),
(122,133,o),
(71,30,c),
(176,19,o),
(537,-22,o),
(580,-22,cs)
);
},
{
closed = 1;
nodes = (
(701,1023,l),
(828,1025,l),
(936,1025,o),
(1304,1033,o),
(1560,1041,c),
(1562,1075,l),
(1565,1126,o),
(1574,1390,o),
(1576,1467,c),
(743,1449,l)
);
}
);
};
layerId = m001;
shapes = (
{
ref = A;
},
{
pos = (443,439);
ref = macroncomb;
}
);
width = 2276;
}
);
unicode = 256;
},
{
glyphname = Aogonek;
kernLeft = A;
kernRight = A;
lastChange = "2023-07-05 14:32:28 +0000";
layers = (
{
background = {
anchors = (
{
name = ogonek;
pos = (2048,10);
},
{
name = top;
pos = (1138,1465);
}
);
shapes = (
{
closed = 1;
nodes = (
(909,540,l),
(947,641,o),
(1005,779,o),
(1083,1021,c),
(1130,840,o),
(1179,691,o),
(1226,540,c)
);
},
{
closed = 1;
nodes = (
(624,-22,o),
(655,-19,o),
(684,-15,c),
(714,68,o),
(731,101,o),
(759,173,c),
(829,173,o),
(1302,171,o),
(1350,165,c),
(1371,93,o),
(1391,40,o),
(1427,-24,c),
(1466,-26,o),
(1506,-30,o),
(1547,-30,cs),
(1566,-30,o),
(1585,-29,o),
(2205,29,c),
(2184,77,o),
(2152,123,o),
(2121,205,c),
(1957,586,o),
(1601,1414,o),
(1596,1431,c),
(1541,1449,o),
(1478,1451,o),
(1415,1451,cs),
(1156,1451,o),
(912,1421,o),
(711,1410,c),
(340,599,o),
(122,133,o),
(71,30,c),
(176,19,o),
(537,-22,o),
(580,-22,cs)
);
},
{
closed = 1;
nodes = (
(1615,-510,o),
(1694,-596,o),
(1824,-596,cs),
(1879,-596,o),
(1948,-591,o),
(2000,-565,c),
(2008,-557,o),
(2020,-449,o),
(2020,-412,c),
(1966,-431,o),
(1938,-438,o),
(1867,-438,cs),
(1820,-438,o),
(1796,-412,o),
(1796,-377,cs),
(1796,-370,o),
(1797,-363,o),
(1799,-356,cs),
(1837,-209,o),
(1957,-113,o),
(2048,-17,c),
(2040,-17,o),
(1996,-18,o),
(1953,-18,cs),
(1869,-18,l),
(1746,-101,o),
(1626,-226,o),
(1615,-386,c)
);
}
);
};
layerId = m001;
shapes = (
{
ref = A;
},
{
pos = (1565,67);
ref = ogonekcomb;
}
);
width = 2276;
}
);
unicode = 260;
},
{
glyphname = Aring;
kernLeft = A;
kernRight = A;
lastChange = "2023-07-05 14:32:28 +0000";
layers = (
{
background = {
anchors = (
{
name = ogonek;
pos = (2048,10);
},
{
name = top;
pos = (1138,1465);
}
);
shapes = (
{
closed = 1;
nodes = (
(909,540,l),
(947,641,o),
(1005,779,o),
(1083,1021,c),
(1130,840,o),
(1179,691,o),
(1226,540,c)
);
},
{
closed = 1;
nodes = (
(624,-22,o),
(655,-19,o),
(684,-15,c),
(714,68,o),
(731,101,o),
(759,173,c),
(829,173,o),
(1302,171,o),
(1350,165,c),
(1371,93,o),
(1391,40,o),
(1427,-24,c),
(1466,-26,o),
(1506,-30,o),
(1547,-30,cs),
(1566,-30,o),
(1585,-29,o),
(2205,29,c),
(2184,77,o),
(2152,123,o),
(2121,205,c),
(1957,586,o),
(1601,1414,o),
(1596,1431,c),
(1541,1449,o),
(1478,1451,o),
(1415,1451,cs),
(1156,1451,o),
(912,1421,o),
(711,1410,c),
(340,599,o),
(122,133,o),
(71,30,c),
(176,19,o),
(537,-22,o),
(580,-22,cs)
);
},
{
closed = 1;
nodes = (
(1241,1847,o),
(1202,1777,o),
(1118,1777,c),
(1047,1780,o),
(1029,1844,o),
(1029,1895,cs),
(1029,1961,o),
(1068,2033,o),
(1157,2033,cs),
(1221,2033,o),
(1241,1966,o),
(1241,1917,cs)
);
},
{
closed = 1;
nodes = (
(1311,1631,o),
(1420,1778,o),
(1420,1923,cs),
(1420,2076,o),
(1303,2176,o),
(1155,2176,cs),
(987,2176,o),
(857,2048,o),
(857,1896,cs),
(857,1729,o),
(979,1631,o),
(1136,1631,cs)
);
}
);
};
layerId = m001;
shapes = (
{
ref = A;
},
{
pos = (783,439);
ref = ringcomb;
}
);
width = 2276;
}
);
unicode = 197;
},
{
glyphname = Atilde;
kernLeft = A;
kernRight = A;
lastChange = "2023-07-05 14:32:28 +0000";
layers = (
{
background = {
anchors = (
{
name = ogonek;
pos = (2048,10);
},
{
name = top;
pos = (1138,1465);
}
);
shapes = (
{
closed = 1;
nodes = (
(909,540,l),
(947,641,o),
(1005,779,o),
(1083,1021,c),
(1130,840,o),
(1179,691,o),
(1226,540,c)
);
},
{
closed = 1;
nodes = (
(624,-22,o),
(655,-19,o),
(684,-15,c),
(714,68,o),
(731,101,o),
(759,173,c),
(829,173,o),
(1302,171,o),
(1350,165,c),
(1371,93,o),
(1391,40,o),
(1427,-24,c),
(1466,-26,o),
(1506,-30,o),
(1547,-30,cs),
(1566,-30,o),
(1585,-29,o),
(2205,29,c),
(2184,77,o),
(2152,123,o),
(2121,205,c),
(1957,586,o),
(1601,1414,o),
(1596,1431,c),
(1541,1449,o),
(1478,1451,o),
(1415,1451,cs),
(1156,1451,o),
(912,1421,o),
(711,1410,c),
(340,599,o),
(122,133,o),
(71,30,c),
(176,19,o),
(537,-22,o),
(580,-22,cs)
);
},
{
closed = 1;
nodes = (
(1164,2137,o),
(1088,2143,o),
(982,2143,cs),
(794,2143,o),
(640,1974,o),
(640,1723,cs),
(640,1711,o),
(655,1706,o),
(670,1706,cs),
(750,1706,o),
(756,1709,o),
(841,1709,cs),
(858,1709,o),
(870,1721,o),
(870,1732,cs),
(870,1783,o),
(886,1842,o),
(949,1842,cs),
(983,1842,o),
(1007,1837,o),
(1029,1805,cs),
(1116,1678,o),
(1198,1653,o),
(1284,1653,cs),
(1495,1653,o),
(1637,1875,o),
(1637,2067,cs),
(1637,2082,o),
(1622,2086,o),
(1611,2086,cs),
(1594,2086,o),
(1414,2077,o),
(1407,2077,cs),
(1382,2077,o),
(1406,1970,o),
(1323,1970,cs),
(1294,1970,o),
(1274,1983,o),
(1249,2018,cs)
);
}
);
};
layerId = m001;
shapes = (
{
ref = A;
},
{
pos = (576,439);
ref = tildecomb;
}
);
width = 2276;
}
);
unicode = 195;
},
{
glyphname = AE;
lastChange = "2023-07-05 14:32:28 +0000";
layers = (
{
anchors = (
{
name = bottom;
pos = (1421,0);
},
{
name = top;
pos = (1421,1465);
}
);
background = {
anchors = (
{
name = top;
pos = (1421,1465);
}
);
shapes = (
{
closed = 1;
nodes = (
(1856,349,l),
(1854,556,l),
(2184,556,ls),
(2376,556,o),
(2429,559,o),
(2433,560,c),
(2476,887,l),
(2320,883,l),
(2199,883,o),
(2029,882,o),
(1854,880,c),
(1860,950,o),
(1860,1004,o),
(1866,1047,c),
(2710,1062,l),
(2721,1449,l),
(2555,1449,l),
(1957,1433,l),
(1805,1431,l),
(1805,1432,l),
(1724,1430,l),
(1314,1426,l),
(1314,1423,l),
(911,1415,l),
(787,1241,o),
(37,126,o),
(-52,23,c),
(646,-14,l),
(752,174,l),
(1151,174,l),
(1128,-2,l),
(2232,-8,l),
(2476,-8,o),
(2489,-9,o),
(2728,-10,c),
(2760,349,l)
);
},
{
closed = 1;
nodes = (
(920,541,l),
(1205,1022,l),
(1193,883.333,o),
(1181,724.333,o),
(1169,545,c)
);
}
);
};
layerId = m001;
shapes = (
{
closed = 1;
nodes = (
(752,174,l),
(1151,174,l),
(1128,-2,l),
(2232,-8,ls),
(2476,-8,o),
(2489,-9,o),
(2728,-10,c),
(2760,349,l),
(1856,349,l),
(1854,556,l),
(2184,556,ls),
(2376,556,o),
(2429,559,o),
(2433,560,c),
(2476,887,l),
(2320,883,ls),
(2199,883,o),
(2029,882,o),
(1854,880,c),
(1860,950,o),
(1860,1004,o),
(1866,1047,c),
(2710,1062,l),
(2721,1449,l),
(2555,1449,l),
(1957,1433,l),
(1805,1431,l),
(1805,1432,l),
(1724,1430,l),
(1314,1426,l),
(1314,1423,l),
(911,1415,l),
(787,1241,o),
(37,126,o),
(-52,23,c),
(646,-14,l)
);
},
{
closed = 1;
nodes = (
(1205,1022,l),
(1193,883,o),
(1181,724,o),
(1169,545,c),
(920,541,l)
);
}
);
width = 2842;
}
);
unicode = 198;
},
{
glyphname = B;
lastChange = "2023-07-05 14:32:28 +0000";
layers = (
{
anchors = (
{
name = bottom;
pos = (1183,0);
},
{
name = center;
pos = (1183,733);
},
{
name = top;
pos = (1183,1465);
}
);
background = {
shapes = (
{
closed = 1;
nodes = (
(955,344,o),
(964,468,o),
(974,614,c),
(1366,614,o),
(1541,580,o),
(1562,468,cs),
(1563,462,o),
(1564,455,o),
(1564,449,cs),
(1568,310,o),
(1221,258,o),
(949,258,c)
);
},
{
closed = 1;
nodes = (
(1002,981,o),
(1014,1081,o),
(1024,1141,c),
(1058,1146,o),
(1059,1148,o),
(1103,1148,cs),
(1283,1148,o),
(1506,1124,o),
(1509,1007,cs),
(1509,997,o),
(1507,987,o),
(1504,977,cs),
(1484,903,o),
(1407,845,o),
(1117,845,cs),
(992,845,l)
);
},
{
closed = 1;
nodes = (
(1989,-52,o),
(2233,202,o),
(2225,538,cs),
(2222,680,o),
(2066,775,o),
(1867,807,c),
(2031,847,o),
(2175,978,o),
(2173,1093,cs),
(2167,1346,o),
(1817,1468,o),
(1256,1468,cs),
(984,1468,o),
(419,1420,o),
(277,1364,c),
(264,1009,l),
(265,1009,l),
(243,703,o),
(219,347,o),
(204,60,cs),
(204,56,o),
(203,56,o),
(204,52,cs),
(204,35,o),
(211,20,o),
(238,13,c),
(349,-11,o),
(842,-52,o),
(1085,-52,cs)
);
}
);
};
layerId = m001;
shapes = (
{
closed = 1;
nodes = (
(1989,-52,o),
(2233,202,o),
(2225,538,cs),
(2222,680,o),
(2066,775,o),
(1867,807,c),
(2031,847,o),
(2175,978,o),
(2173,1093,cs),
(2167,1346,o),
(1817,1468,o),
(1256,1468,cs),
(984,1468,o),
(419,1420,o),
(277,1364,c),
(264,1009,l),
(265,1009,l),
(243,703,o),
(219,347,o),
(204,60,cs),
(204,56,o),
(203,56,o),
(204,52,c),
(204,35,o),
(211,20,o),
(238,13,cs),
(349,-11,o),
(842,-52,o),
(1085,-52,cs)
);
},
{
closed = 1;
nodes = (
(974,614,l),
(1366,614,o),
(1541,580,o),
(1562,468,cs),
(1563,462,o),
(1564,455,o),
(1564,449,cs),
(1568,310,o),
(1221,258,o),
(949,258,c)
);
},
{
closed = 1;
nodes = (
(1002,981,o),
(1014,1081,o),
(1024,1141,c),
(1058,1146,o),
(1059,1148,o),
(1103,1148,cs),
(1283,1148,o),
(1506,1124,o),
(1509,1007,cs),
(1509,997,o),
(1507,987,o),
(1504,977,cs),
(1484,903,o),
(1407,845,o),
(1117,845,cs),
(992,845,l)
);
}
);
width = 2365;
}
);
unicode = 66;
},
{
glyphname = C;
kernLeft = C;
kernRight = C;
lastChange = "2023-07-05 14:32:28 +0000";
layers = (
{
anchors = (
{
name = bottom;
pos = (1001,0);
},
{
name = top;
pos = (1191,1465);
}
);
background = {
anchors = (
{
name = bottom;
pos = (850,0);
},
{
name = top;
pos = (850,1465);
}
);
shapes = (
{
closed = 1;
nodes = (
(133,125,o),
(698,-45,o),
(1236,-45,cs),
(1321,-45,o),
(1428,-42,o),
(1536,-30,c),
(1536,409,l),
(1442,391,o),
(1327,374,o),
(1262,374,c),
(1055,379,o),
(903,461,o),
(903,710,cs),
(903,933,o),
(1059,1015,o),
(1268,1015,cs),
(1366,1015,o),
(1456,1008,o),
(1536,997,c),
(1536,1453,l),
(1474,1460,o),
(1409,1463,o),
(1343,1463,cs),
(1291,1463,o),
(1238,1461,o),
(1185,1457,cs),
(665,1415,o),
(133,1246,o),
(133,702,cs)
);
}
);
};
layerId = m001;
shapes = (
{
closed = 1;
nodes = (
(1321,-45,o),
(1428,-42,o),
(1536,-30,c),
(1536,409,l),
(1442,391,o),
(1327,374,o),
(1262,374,cs),
(1055,379,o),
(903,461,o),
(903,710,cs),
(903,933,o),
(1059,1015,o),
(1268,1015,cs),
(1366,1015,o),
(1456,1008,o),
(1536,997,c),
(1536,1453,l),
(1474,1460,o),
(1409,1463,o),
(1343,1463,cs),
(1291,1463,o),
(1238,1461,o),
(1185,1457,cs),
(665,1415,o),
(133,1246,o),
(133,702,cs),
(133,125,o),
(698,-45,o),
(1236,-45,cs)
);
}
);
width = 1742;
}
);
unicode = 67;
},
{
glyphname = Cacute;
lastChange = "2023-07-05 14:32:28 +0000";
layers = (
{
background = {
anchors = (
{
name = bottom;
pos = (850,0);
},
{
name = top;
pos = (850,1465);
}
);
shapes = (
{
closed = 1;
nodes = (
(133,125,o),
(698,-45,o),
(1236,-45,cs),
(1321,-45,o),
(1428,-42,o),
(1536,-30,c),
(1536,409,l),
(1442,391,o),
(1327,374,o),
(1262,374,c),
(1055,379,o),
(903,461,o),
(903,710,cs),
(903,933,o),
(1059,1015,o),
(1268,1015,cs),
(1366,1015,o),
(1456,1008,o),
(1536,997,c),
(1536,1453,l),
(1474,1460,o),
(1409,1463,o),
(1343,1463,cs),
(1291,1463,o),
(1238,1461,o),
(1185,1457,cs),
(665,1415,o),
(133,1246,o),
(133,702,cs)
);
},
{
closed = 1;
nodes = (
(719,1645,o),
(721,1644,o),
(721,1644,c),
(807,1709,o),
(1053,1910,o),
(1154,1991,c),
(1107,2005,o),
(856,2077,o),
(810,2089,c),
(788,2058,o),
(628,1821,o),
(547,1686,c),
(583,1677,o),
(700,1648,o),
(718,1645,cs)
);
}
);
};
layerId = m001;
shapes = (
{
ref = C;
},
{
pos = (824,439);
ref = acutecomb;
}
);
width = 1742;
}
);
unicode = 262;
},
{
glyphname = Ccaron;
lastChange = "2023-07-05 14:32:28 +0000";
layers = (
{
background = {
anchors = (
{
name = bottom;
pos = (850,0);
},
{
name = top;
pos = (850,1465);
}
);
shapes = (
{
closed = 1;
nodes = (
(133,125,o),
(698,-45,o),
(1236,-45,cs),
(1321,-45,o),
(1428,-42,o),
(1536,-30,c),
(1536,409,l),
(1442,391,o),
(1327,374,o),
(1262,374,c),
(1055,379,o),
(903,461,o),
(903,710,cs),
(903,933,o),
(1059,1015,o),
(1268,1015,cs),
(1366,1015,o),
(1456,1008,o),
(1536,997,c),
(1536,1453,l),
(1474,1460,o),
(1409,1463,o),
(1343,1463,cs),
(1291,1463,o),
(1238,1461,o),
(1185,1457,cs),
(665,1415,o),
(133,1246,o),
(133,702,cs)
);
},
{
closed = 1;
nodes = (
(346,2221,o),
(344,2217,o),
(344,2211,cs),
(344,2204,o),
(347,2196,o),
(353,2186,cs),
(450,2029,o),
(680,1686,o),
(682,1686,c),
(685,1684,o),
(692,1684,o),
(696,1684,cs),
(874,1684,l),
(875,1683,o),
(878,1682,o),
(880,1682,cs),
(884,1682,o),
(888,1684,o),
(892,1688,cs),
(1032,1851,o),
(1177,2018,o),
(1327,2186,c),
(1348,2205,o),
(1356,2219,o),
(1356,2229,cs),
(1356,2232,o),
(1355,2234,o),
(1354,2237,c),
(1355,2238,o),
(1355,2240,o),
(1355,2242,cs),
(1355,2275,o),
(1190,2344,o),
(1147,2376,c),
(1106,2397,o),
(1086,2404,o),
(1078,2404,c),
(1078,2404,o),
(1077,2403,o),
(1077,2402,cs),
(1078,2401,l),
(994,2286,o),
(905,2177,o),
(819,2065,c),
(671,2375,l),
(662,2397,o),
(659,2405,o),
(654,2405,cs),
(626,2405,o),
(348,2269,o),
(348,2228,cs),
(348,2227,o),
(348,2226,o),
(349,2225,c)
);
}
);
};
layerId = m001;
shapes = (
{
ref = C;
},
{
pos = (673,439);
ref = caroncomb;
}
);
width = 1742;
}
);
unicode = 268;
},
{
glyphname = Ccedilla;
kernLeft = C;
kernRight = C;
lastChange = "2023-07-05 14:32:28 +0000";
layers = (
{
background = {
anchors = (
{
name = bottom;
pos = (850,0);
},
{
name = top;
pos = (850,1465);
}
);
shapes = (
{
closed = 1;
nodes = (
(133,125,o),
(698,-45,o),
(1236,-45,cs),
(1321,-45,o),
(1428,-42,o),
(1536,-30,c),
(1536,409,l),
(1442,391,o),
(1327,374,o),
(1262,374,c),
(1055,379,o),
(903,461,o),
(903,710,cs),
(903,933,o),
(1059,1015,o),
(1268,1015,cs),
(1366,1015,o),
(1456,1008,o),
(1536,997,c),
(1536,1453,l),
(1474,1460,o),
(1409,1463,o),
(1343,1463,cs),
(1291,1463,o),
(1238,1461,o),
(1185,1457,cs),
(665,1415,o),
(133,1246,o),
(133,702,cs)
);
},
{
closed = 1;
nodes = (
(895,-156,o),
(877,-157,o),
(859,-159,c),
(907,-17,l),
(728,-17,l),
(665,-266,l),
(824,-287,ls),
(874,-294,o),
(894,-323,o),
(894,-355,cs),
(894,-403,o),
(860,-448,o),
(791,-448,cs),
(750,-448,o),
(699,-433,o),
(635,-394,c),
(595,-537,l),
(663,-585,o),
(748,-610,o),
(829,-610,cs),
(973,-610,o),
(1105,-532,o),
(1105,-365,cs),
(1105,-243,o),
(1052,-156,o),
(911,-156,cs)
);
}
);
};
layerId = m001;
shapes = (
{
ref = C;
},
{
pos = (725,0);
ref = cedillacomb;
}
);
width = 1742;
}
);
unicode = 199;
},
{
glyphname = Cdotaccent;
lastChange = "2023-07-05 14:32:28 +0000";
layers = (
{
background = {
anchors = (
{
name = bottom;
pos = (850,0);
},
{
name = top;
pos = (850,1465);
}
);
shapes = (
{
closed = 1;
nodes = (
(133,125,o),
(698,-45,o),
(1236,-45,cs),
(1321,-45,o),
(1428,-42,o),
(1536,-30,c),
(1536,409,l),
(1442,391,o),
(1327,374,o),
(1262,374,c),
(1055,379,o),
(903,461,o),
(903,710,cs),
(903,933,o),
(1059,1015,o),
(1268,1015,cs),
(1366,1015,o),
(1456,1008,o),
(1536,997,c),
(1536,1453,l),
(1474,1460,o),
(1409,1463,o),
(1343,1463,cs),
(1291,1463,o),
(1238,1461,o),
(1185,1457,cs),
(665,1415,o),
(133,1246,o),
(133,702,cs)
);
},
{
closed = 1;
nodes = (
(635,1828,o),
(638,1828,o),
(646,1828,cs),
(775,1828,o),
(894,1830,o),
(1007,1831,c),
(1032,1834,o),
(1032,1847,o),
(1037,1891,c),
(1065,2205,l),
(1065,2224,o),
(1056,2229,o),
(1044,2229,cs),
(931,2228,o),
(796,2227,o),
(679,2227,c),
(655,2223,o),
(652,2210,o),
(650,2166,cs),
(633,1877,o),
(646,2091,o),
(635,1839,c),
(635,1835,ls)
);
}
);
};
layerId = m001;
shapes = (
{
ref = C;
},
{
pos = (903,439);
ref = dotaccentcomb;
}
);
width = 1742;
}
);
unicode = 266;
},
{
glyphname = D;
lastChange = "2023-07-05 14:32:28 +0000";
layers = (
{
anchors = (
{
name = bottom;
pos = (1160,0);
},
{
name = center;
pos = (1160,733);
},
{
name = top;
pos = (1160,1465);
}
);
background = {
anchors = (
{
name = center;
pos = (1160,733);
},
{
name = top;
pos = (1160,1465);
}
);
shapes = (
{
closed = 1;
nodes = (
(990,1066,o),
(1097,1072,o),
(1172,1072,cs),
(1319,1072,o),
(1490,976,o),
(1490,744,cs),
(1490,406,o),
(1278,363,o),
(922,360,c),
(955,1064,l)
);
},
{
closed = 1;
nodes = (
(576,-22,ls),
(720,-22,o),
(864,-19,o),
(1010,-14,c),
(1620,14,o),
(2188,19,o),
(2188,783,cs),
(2188,1259,o),
(1797,1454,o),
(1287,1454,cs),
(888,1454,o),
(267,1402,o),
(267,1402,c),
(242,746,o),
(169,76,o),
(153,-22,c)
);
}
);
};
layerId = m001;
shapes = (
{
closed = 1;
nodes = (
(576,-22,ls),
(720,-22,o),
(864,-19,o),
(1010,-14,cs),
(1620,14,o),
(2188,19,o),
(2188,783,cs),
(2188,1259,o),
(1797,1454,o),
(1287,1454,cs),
(888,1454,o),
(267,1402,o),
(267,1402,c),
(242,746,o),
(169,76,o),
(153,-22,c)
);
},
{
closed = 1;
nodes = (
(955,1064,l),
(990,1066,o),
(1097,1072,o),
(1172,1072,cs),
(1319,1072,o),
(1490,976,o),
(1490,744,cs),
(1490,406,o),
(1278,363,o),
(922,360,c)
);
}
);
width = 2319;
}
);
unicode = 68;
},
{
glyphname = Dcaron;
lastChange = "2023-07-05 14:32:28 +0000";
layers = (
{
background = {
anchors = (
{
name = center;
pos = (1160,733);
},
{
name = top;
pos = (1160,1465);
}
);
shapes = (
{
closed = 1;
nodes = (
(990,1066,o),
(1097,1072,o),
(1172,1072,cs),
(1319,1072,o),
(1490,976,o),
(1490,744,cs),
(1490,406,o),
(1278,363,o),
(922,360,c),
(955,1064,l)
);
},
{
closed = 1;
nodes = (
(576,-22,ls),
(720,-22,o),
(864,-19,o),
(1010,-14,c),
(1620,14,o),
(2188,19,o),
(2188,783,cs),
(2188,1259,o),
(1797,1454,o),
(1287,1454,cs),
(888,1454,o),
(267,1402,o),
(267,1402,c),
(242,746,o),
(169,76,o),
(153,-22,c)
);
},
{
closed = 1;
nodes = (
(656,2221,o),
(654,2217,o),
(654,2211,cs),
(654,2204,o),
(657,2196,o),
(663,2186,cs),
(760,2029,o),
(990,1686,o),
(992,1686,c),
(995,1684,o),
(1002,1684,o),
(1006,1684,cs),
(1184,1684,l),
(1185,1683,o),
(1188,1682,o),
(1190,1682,cs),
(1194,1682,o),
(1198,1684,o),
(1202,1688,cs),
(1342,1851,o),
(1487,2018,o),
(1637,2186,c),
(1658,2205,o),
(1666,2219,o),
(1666,2229,cs),
(1666,2232,o),
(1665,2234,o),
(1664,2237,c),
(1665,2238,o),
(1665,2240,o),
(1665,2242,cs),
(1665,2275,o),
(1500,2344,o),
(1457,2376,c),
(1416,2397,o),
(1396,2404,o),
(1388,2404,c),
(1388,2404,o),
(1387,2403,o),
(1387,2402,cs),
(1388,2401,l),
(1304,2286,o),
(1215,2177,o),
(1129,2065,c),
(981,2375,l),
(972,2397,o),
(969,2405,o),
(964,2405,cs),
(936,2405,o),
(658,2269,o),
(658,2228,cs),
(658,2227,o),
(658,2226,o),
(659,2225,c)
);
}
);
};
layerId = m001;
shapes = (
{
ref = D;
},
{
pos = (642,439);
ref = caroncomb;
}
);
width = 2319;
}
);
unicode = 270;
},
{
glyphname = Dcroat;
lastChange = "2023-07-05 14:32:28 +0000";
layers = (
{
background = {
anchors = (
{
name = center;
pos = (1160,733);
},
{
name = top;
pos = (1160,1465);
}
);
shapes = (
{
closed = 1;
nodes = (
(1147,559,ls),
(1163,844,l),
(1163,867,o),
(1146,873,o),
(1135,873,cs),
(1074,873,o),
(622,871,o),
(191,871,c),
(84,869,l),
(47,591,l),
(47,568,o),
(86,563,o),
(166,563,c)
);
},
{
closed = 1;
nodes = (
(990,1066,o),
(1097,1072,o),
(1172,1072,cs),
(1319,1072,o),
(1490,976,o),
(1490,744,cs),
(1490,406,o),
(1278,363,o),
(922,360,c),
(955,1064,l)
);
},
{
closed = 1;
nodes = (
(576,-22,ls),
(720,-22,o),
(864,-19,o),
(1010,-14,c),
(1620,14,o),
(2188,19,o),
(2188,783,cs),
(2188,1259,o),
(1797,1454,o),
(1287,1454,cs),
(888,1454,o),
(267,1402,o),
(267,1402,c),
(242,746,o),
(169,76,o),
(153,-22,c)
);
}
);
};
layerId = m001;
shapes = (
{
ref = Eth;
}
);
width = 2319;
}
);
unicode = 272;
},
{
glyphname = Eth;
lastChange = "2023-07-05 14:32:28 +0000";
layers = (
{
background = {
anchors = (
{
name = center;
pos = (1160,733);
},
{
name = top;
pos = (1160,1465);
}
);
shapes = (
{
closed = 1;
nodes = (
(1147,559,ls),
(1163,844,l),
(1163,867,o),
(1146,873,o),
(1135,873,cs),
(1074,873,o),
(622,871,o),
(191,871,c),
(84,869,l),
(47,591,l),
(47,568,o),
(86,563,o),
(166,563,c)
);
},
{
closed = 1;
nodes = (
(990,1066,o),
(1097,1072,o),
(1172,1072,cs),
(1319,1072,o),
(1490,976,o),
(1490,744,cs),
(1490,406,o),
(1278,363,o),
(922,360,c),
(955,1064,l)
);
},
{
closed = 1;
nodes = (
(576,-22,ls),
(720,-22,o),
(864,-19,o),
(1010,-14,c),
(1620,14,o),
(2188,19,o),
(2188,783,cs),
(2188,1259,o),
(1797,1454,o),
(1287,1454,cs),
(888,1454,o),
(267,1402,o),
(267,1402,c),
(242,746,o),
(169,76,o),
(153,-22,c)
);
}
);
};
layerId = m001;
shapes = (
{
closed = 1;
nodes = (
(1163,844,ls),
(1163,867,o),
(1146,873,o),
(1135,873,cs),
(1074,873,o),
(622,871,o),
(191,871,cs),
(84,869,l),
(47,591,l),
(47,568,o),
(86,563,o),
(166,563,cs),
(1147,559,l)
);
},
{
ref = D;
}
);
width = 2319;
}
);
metricRight = D;
unicode = 208;
},
{
glyphname = E;
kernLeft = E;
kernRight = E;
lastChange = "2023-07-05 14:32:28 +0000";
layers = (
{
anchors = (
{
name = bottom;
pos = (1024,0);
},
{
name = ogonek;
pos = (1643,10);
},
{
name = top;
pos = (1124,1465);
},
{
name = topleft;
pos = (20,1465);
}
);
background = {
anchors = (
{
name = bottom;
pos = (1024,0);
},
{
name = ogonek;
pos = (1843,10);
},
{
name = top;
pos = (1024,1465);
}
);
shapes = (
{
closed = 1;
nodes = (
(1562,-22,o),
(1695,-23,o),
(1934,-24,c),
(1945,41,o),
(1966,78,o),
(1966,349,c),
(916.004,349,l),
(927.004,556,l),
(987.004,557,o),
(1045,557,o),
(1104,557,cs),
(1168.44,556.609,o),
(1223.34,556.448,o),
(1270.02,556.448,cs),
(1462.38,556.448,o),
(1514.98,559.195,o),
(1519,560,c),
(1541.52,646.319,o),
(1562.28,827.71,o),
(1562.28,878.692,cs),
(1562.28,882.048,o),
(1562.19,884.839,o),
(1562,887,c),
(1535,883,o),
(1508,882,o),
(1482,882,cs),
(1455,882,o),
(1430,883,o),
(1406,883,cs),
(1285,883,o),
(1115,882,o),
(940.004,880,c),
(946.004,950,o),
(946.004,1004,o),
(952.004,1047,c),
(1294,1049,o),
(1647,1045,o),
(1916,1069,c),
(1957,1436,l),
(1897,1449,o),
(1823,1449,o),
(1761,1449,c),
(1043,1433,l),
(400.004,1433,l),
(315.004,1429,o),
(309.004,1430,o),
(243.004,1428,c),
(243.004,1399,o),
(176.004,-1,o),
(175.004,-2,cs),
(376.004,3,l),
(376.004,3,o),
(1042,-22,o),
(1318,-22,cs)
);
}
);
};
layerId = m001;
shapes = (
{
closed = 1;
nodes = (
(1945,41,o),
(1966,78,o),
(1966,349,c),
(916,349,l),
(927,556,l),
(987,557,o),
(1045,557,o),
(1104,557,cs),
(1168,557,o),
(1223,556,o),
(1270,556,cs),
(1462,556,o),
(1515,559,o),
(1519,560,c),
(1542,646,o),
(1562,828,o),
(1562,879,cs),
(1562,887,l),
(1535,883,o),
(1508,882,o),
(1482,882,cs),
(1455,882,o),
(1430,883,o),
(1406,883,cs),
(1285,883,o),
(1115,882,o),
(940,880,c),
(946,950,o),
(946,1004,o),
(952,1047,c),
(1294,1049,o),
(1647,1045,o),
(1916,1069,c),
(1957,1436,l),
(1897,1449,o),
(1823,1449,o),
(1761,1449,cs),
(1043,1433,l),
(400,1433,l),
(315,1429,o),
(309,1430,o),
(243,1428,c),
(243,1399,o),
(176,-1,o),
(175,-2,c),
(376,3,l),
(376,3,o),
(1042,-22,o),
(1318,-22,cs),
(1562,-22,o),
(1695,-23,o),
(1934,-24,c)
);
}
);
width = 2048;
}
);
unicode = 69;
},
{
glyphname = Eacute;
kernLeft = E;
kernRight = E;
lastChange = "2023-07-05 14:32:28 +0000";
layers = (
{
background = {
anchors = (
{
name = bottom;
pos = (1024,0);
},
{
name = ogonek;
pos = (1843,10);
},
{
name = top;
pos = (1024,1465);
}
);
shapes = (
{
closed = 1;
nodes = (
(1562,-22,o),
(1695,-23,o),
(1934,-24,c),
(1945,41,o),
(1966,78,o),
(1966,349,c),
(916.004,349,l),
(927.004,556,l),
(987.004,557,o),
(1045,557,o),
(1104,557,cs),
(1168.44,556.609,o),
(1223.34,556.448,o),
(1270.02,556.448,cs),
(1462.38,556.448,o),
(1514.98,559.195,o),
(1519,560,c),
(1541.52,646.319,o),
(1562.28,827.71,o),
(1562.28,878.692,cs),
(1562.28,882.048,o),
(1562.19,884.839,o),
(1562,887,c),
(1535,883,o),
(1508,882,o),
(1482,882,cs),
(1455,882,o),
(1430,883,o),
(1406,883,cs),
(1285,883,o),
(1115,882,o),
(940.004,880,c),
(946.004,950,o),
(946.004,1004,o),
(952.004,1047,c),
(1294,1049,o),
(1647,1045,o),
(1916,1069,c),
(1957,1436,l),
(1897,1449,o),
(1823,1449,o),
(1761,1449,c),
(1043,1433,l),
(400.004,1433,l),
(315.004,1429,o),
(309.004,1430,o),
(243.004,1428,c),
(243.004,1399,o),
(176.004,-1,o),
(175.004,-2,cs),
(376.004,3,l),
(376.004,3,o),
(1042,-22,o),
(1318,-22,cs)
);
},
{
closed = 1;
nodes = (
(893,1645,o),
(895,1644,o),
(895,1644,c),
(981,1709,o),
(1227,1910,o),
(1328,1991,c),
(1281,2005,o),
(1030,2077,o),
(984,2089,c),
(962,2058,o),
(802,1821,o),
(721,1686,c),
(757,1677,o),
(874,1648,o),
(892,1645,cs)
);
}
);
};
layerId = m001;
shapes = (
{
ref = E;
},
{
pos = (757,439);
ref = acutecomb;
}
);
width = 2048;
}
);
unicode = 201;
},
{
glyphname = Ecaron;
lastChange = "2023-07-05 14:32:28 +0000";
layers = (
{
background = {
anchors = (
{
name = bottom;
pos = (1024,0);
},
{
name = ogonek;
pos = (1843,10);
},
{
name = top;
pos = (1024,1465);
}
);
shapes = (
{
closed = 1;
nodes = (
(1562,-22,o),
(1695,-23,o),
(1934,-24,c),
(1945,41,o),
(1966,78,o),
(1966,349,c),
(916.004,349,l),
(927.004,556,l),
(987.004,557,o),
(1045,557,o),
(1104,557,cs),
(1168.44,556.609,o),
(1223.34,556.448,o),
(1270.02,556.448,cs),
(1462.38,556.448,o),
(1514.98,559.195,o),
(1519,560,c),
(1541.52,646.319,o),
(1562.28,827.71,o),
(1562.28,878.692,cs),
(1562.28,882.048,o),
(1562.19,884.839,o),
(1562,887,c),
(1535,883,o),
(1508,882,o),
(1482,882,cs),
(1455,882,o),
(1430,883,o),
(1406,883,cs),
(1285,883,o),
(1115,882,o),
(940.004,880,c),
(946.004,950,o),
(946.004,1004,o),
(952.004,1047,c),
(1294,1049,o),
(1647,1045,o),
(1916,1069,c),
(1957,1436,l),
(1897,1449,o),
(1823,1449,o),
(1761,1449,c),
(1043,1433,l),
(400.004,1433,l),
(315.004,1429,o),
(309.004,1430,o),
(243.004,1428,c),
(243.004,1399,o),
(176.004,-1,o),
(175.004,-2,cs),
(376.004,3,l),
(376.004,3,o),
(1042,-22,o),
(1318,-22,cs)
);
},
{
closed = 1;
nodes = (
(520,2221,o),
(518,2217,o),
(518,2211,cs),
(518,2204,o),
(521,2196,o),
(527,2186,cs),
(624,2029,o),
(854,1686,o),
(856,1686,c),
(859,1684,o),
(866,1684,o),
(870,1684,cs),
(1048,1684,l),
(1049,1683,o),
(1052,1682,o),
(1054,1682,cs),
(1058,1682,o),
(1062,1684,o),
(1066,1688,cs),
(1206,1851,o),
(1351,2018,o),
(1501,2186,c),
(1522,2205,o),
(1530,2219,o),
(1530,2229,cs),
(1530,2232,o),
(1529,2234,o),
(1528,2237,c),
(1529,2238,o),
(1529,2240,o),
(1529,2242,cs),
(1529,2275,o),
(1364,2344,o),
(1321,2376,c),
(1280,2397,o),
(1260,2404,o),
(1252,2404,c),
(1252,2404,o),
(1251,2403,o),
(1251,2402,cs),
(1252,2401,l),
(1168,2286,o),
(1079,2177,o),
(993,2065,c),
(845,2375,l),
(836,2397,o),
(833,2405,o),
(828,2405,cs),
(800,2405,o),
(522,2269,o),
(522,2228,cs),
(522,2227,o),
(522,2226,o),
(523,2225,c)
);
}
);
};
layerId = m001;
shapes = (
{
ref = E;
},
{
pos = (606,439);
ref = caroncomb;
}
);
width = 2048;
}
);
unicode = 282;
},
{
glyphname = Ecircumflex;
kernLeft = E;
kernRight = E;
lastChange = "2023-07-05 14:32:28 +0000";
layers = (
{
background = {
anchors = (
{
name = bottom;
pos = (1024,0);
},
{
name = ogonek;
pos = (1843,10);
},
{
name = top;
pos = (1024,1465);
}
);
shapes = (
{
closed = 1;
nodes = (
(1562,-22,o),
(1695,-23,o),
(1934,-24,c),
(1945,41,o),
(1966,78,o),
(1966,349,c),
(916.004,349,l),
(927.004,556,l),
(987.004,557,o),
(1045,557,o),
(1104,557,cs),
(1168.44,556.609,o),
(1223.34,556.448,o),
(1270.02,556.448,cs),
(1462.38,556.448,o),
(1514.98,559.195,o),
(1519,560,c),
(1541.52,646.319,o),
(1562.28,827.71,o),
(1562.28,878.692,cs),
(1562.28,882.048,o),
(1562.19,884.839,o),
(1562,887,c),
(1535,883,o),
(1508,882,o),
(1482,882,cs),
(1455,882,o),
(1430,883,o),
(1406,883,cs),
(1285,883,o),
(1115,882,o),
(940.004,880,c),
(946.004,950,o),
(946.004,1004,o),
(952.004,1047,c),
(1294,1049,o),
(1647,1045,o),
(1916,1069,c),
(1957,1436,l),
(1897,1449,o),
(1823,1449,o),
(1761,1449,c),
(1043,1433,l),
(400.004,1433,l),
(315.004,1429,o),
(309.004,1430,o),
(243.004,1428,c),
(243.004,1399,o),
(176.004,-1,o),
(175.004,-2,cs),
(376.004,3,l),
(376.004,3,o),
(1042,-22,o),
(1318,-22,cs)
);
},
{
closed = 1;
nodes = (
(866,1682,o),
(980,1811,o),
(1039,1860,c),
(1077,1809,o),
(1116,1760,o),
(1154,1710,c),
(1181,1687,o),
(1205,1671,o),
(1231,1660,c),
(1266,1660,o),
(1419,1699,o),
(1456,1720,c),
(1441,1747,o),
(1400,1792,o),
(1380,1815,cs),
(1313,1890,o),
(1198,2030,o),
(1159,2067,c),
(1142,2069,o),
(1124,2069,o),
(1105,2069,cs),
(1078,2069,o),
(1050,2070,o),
(1023,2070,cs),
(990,2070,o),
(957,2068,o),
(926,2060,c),
(881,2012,o),
(839,1967,o),
(793,1921,cs),
(669,1795,ls),
(639,1764,o),
(613,1741,o),
(593,1716,c),
(630,1708,o),
(762,1661,o),
(810,1661,c)
);
}
);
};
layerId = m001;
shapes = (
{
ref = E;
},
{
pos = (622,439);
ref = circumflexcomb;
}
);
width = 2048;
}
);
unicode = 202;
},
{
glyphname = Edblgrave;
kernLeft = E;
kernRight = E;
lastChange = "2023-07-05 14:32:28 +0000";
layers = (
{
background = {
anchors = (
{
name = bottom;
pos = (1024,0);
},
{
name = ogonek;
pos = (1843,10);
},
{
name = top;
pos = (1024,1465);
}
);
shapes = (
{
closed = 1;
nodes = (
(1562,-22,o),
(1695,-23,o),
(1934,-24,c),
(1945,41,o),
(1966,78,o),
(1966,349,c),
(916.004,349,l),
(927.004,556,l),
(987.004,557,o),
(1045,557,o),
(1104,557,cs),
(1168.44,556.609,o),
(1223.34,556.448,o),
(1270.02,556.448,cs),
(1462.38,556.448,o),
(1514.98,559.195,o),
(1519,560,c),
(1541.52,646.319,o),
(1562.28,827.71,o),
(1562.28,878.692,cs),
(1562.28,882.048,o),
(1562.19,884.839,o),
(1562,887,c),
(1535,883,o),
(1508,882,o),
(1482,882,cs),
(1455,882,o),
(1430,883,o),
(1406,883,cs),
(1285,883,o),
(1115,882,o),
(940.004,880,c),
(946.004,950,o),
(946.004,1004,o),
(952.004,1047,c),
(1294,1049,o),
(1647,1045,o),
(1916,1069,c),
(1957,1436,l),
(1897,1449,o),
(1823,1449,o),
(1761,1449,c),
(1043,1433,l),
(400.004,1433,l),
(315.004,1429,o),
(309.004,1430,o),
(243.004,1428,c),
(243.004,1399,o),
(176.004,-1,o),
(175.004,-2,cs),
(376.004,3,l),
(376.004,3,o),
(1042,-22,o),
(1318,-22,cs)
);
}
);
};
layerId = m001;
shapes = (
{
ref = E;
},
{
pos = (600,439);
ref = dblgravecomb;
}
);
width = 2048;
}
);
unicode = 516;
},
{
glyphname = Edieresis;
kernLeft = E;
kernRight = E;
lastChange = "2023-07-05 14:32:28 +0000";
layers = (
{
background = {
anchors = (
{
name = bottom;
pos = (1024,0);
},
{
name = ogonek;
pos = (1843,10);
},
{
name = top;
pos = (1024,1465);
}
);
shapes = (
{
closed = 1;
nodes = (
(1562,-22,o),
(1695,-23,o),
(1934,-24,c),
(1945,41,o),
(1966,78,o),
(1966,349,c),
(916.004,349,l),
(927.004,556,l),
(987.004,557,o),
(1045,557,o),
(1104,557,cs),
(1168.44,556.609,o),
(1223.34,556.448,o),
(1270.02,556.448,cs),
(1462.38,556.448,o),
(1514.98,559.195,o),
(1519,560,c),
(1541.52,646.319,o),
(1562.28,827.71,o),
(1562.28,878.692,cs),
(1562.28,882.048,o),
(1562.19,884.839,o),
(1562,887,c),
(1535,883,o),
(1508,882,o),
(1482,882,cs),
(1455,882,o),
(1430,883,o),
(1406,883,cs),
(1285,883,o),
(1115,882,o),
(940.004,880,c),
(946.004,950,o),
(946.004,1004,o),
(952.004,1047,c),
(1294,1049,o),
(1647,1045,o),
(1916,1069,c),
(1957,1436,l),
(1897,1449,o),
(1823,1449,o),
(1761,1449,c),
(1043,1433,l),
(400.004,1433,l),
(315.004,1429,o),
(309.004,1430,o),
(243.004,1428,c),
(243.004,1399,o),
(176.004,-1,o),
(175.004,-2,cs),
(376.004,3,l),
(376.004,3,o),
(1042,-22,o),
(1318,-22,cs)
);
},
{
closed = 1;
nodes = (
(1530,1658,l),
(1530,2015,l),
(1511,2015,l),
(1158,2015,l),
(1150,1659,l),
(1478,1658,l)
);
},
{
closed = 1;
nodes = (
(518,1657,o),
(521,1657,o),
(528,1657,cs),
(645,1657,o),
(752,1659,o),
(899,1659,c),
(904,2017,l),
(886,2017,ls),
(786,2017,o),
(662,2015,o),
(558,2015,cs),
(531,2015,l),
(518,1667,l),
(518,1664,ls)
);
}
);
};
layerId = m001;
shapes = (
{
ref = E;
},
{
pos = (529,439);
ref = dieresiscomb;
}
);
width = 2048;
}
);
unicode = 203;
},
{
glyphname = Edotaccent;
lastChange = "2023-07-05 14:32:28 +0000";
layers = (
{
background = {
anchors = (
{
name = bottom;
pos = (1024,0);
},
{
name = ogonek;
pos = (1843,10);
},
{
name = top;
pos = (1024,1465);
}
);
shapes = (
{
closed = 1;
nodes = (
(1562,-22,o),
(1695,-23,o),
(1934,-24,c),
(1945,41,o),
(1966,78,o),
(1966,349,c),
(916.004,349,l),
(927.004,556,l),
(987.004,557,o),
(1045,557,o),
(1104,557,cs),
(1168.44,556.609,o),
(1223.34,556.448,o),
(1270.02,556.448,cs),
(1462.38,556.448,o),
(1514.98,559.195,o),
(1519,560,c),
(1541.52,646.319,o),
(1562.28,827.71,o),
(1562.28,878.692,cs),
(1562.28,882.048,o),
(1562.19,884.839,o),
(1562,887,c),
(1535,883,o),
(1508,882,o),
(1482,882,cs),
(1455,882,o),
(1430,883,o),
(1406,883,cs),
(1285,883,o),
(1115,882,o),
(940.004,880,c),
(946.004,950,o),
(946.004,1004,o),
(952.004,1047,c),
(1294,1049,o),
(1647,1045,o),
(1916,1069,c),
(1957,1436,l),
(1897,1449,o),
(1823,1449,o),
(1761,1449,c),
(1043,1433,l),
(400.004,1433,l),
(315.004,1429,o),
(309.004,1430,o),
(243.004,1428,c),
(243.004,1399,o),
(176.004,-1,o),
(175.004,-2,cs),
(376.004,3,l),
(376.004,3,o),
(1042,-22,o),
(1318,-22,cs)
);
},
{
closed = 1;
nodes = (
(809,1828,o),
(812,1828,o),
(820,1828,cs),
(949,1828,o),
(1068,1830,o),
(1181,1831,c),
(1206,1834,o),
(1206,1847,o),
(1211,1891,c),
(1239,2205,l),
(1239,2224,o),
(1230,2229,o),
(1218,2229,cs),
(1105,2228,o),
(970,2227,o),
(853,2227,c),
(829,2223,o),
(826,2210,o),
(824,2166,cs),
(807,1877,o),
(820,2091,o),
(809,1839,c),
(809,1835,ls)
);
}
);
};
layerId = m001;
shapes = (
{
ref = E;
},
{
pos = (836,439);
ref = dotaccentcomb;
}
);
width = 2048;
}
);
unicode = 278;
},
{
glyphname = Egrave;
kernLeft = E;
kernRight = E;
lastChange = "2023-07-05 14:32:28 +0000";
layers = (
{
background = {
anchors = (
{
name = bottom;
pos = (1024,0);
},
{
name = ogonek;
pos = (1843,10);
},
{
name = top;
pos = (1024,1465);
}
);
shapes = (
{
closed = 1;
nodes = (
(1562,-22,o),
(1695,-23,o),
(1934,-24,c),
(1945,41,o),
(1966,78,o),
(1966,349,c),
(916.004,349,l),
(927.004,556,l),
(987.004,557,o),
(1045,557,o),
(1104,557,cs),
(1168.44,556.609,o),
(1223.34,556.448,o),
(1270.02,556.448,cs),
(1462.38,556.448,o),
(1514.98,559.195,o),
(1519,560,c),
(1541.52,646.319,o),
(1562.28,827.71,o),
(1562.28,878.692,cs),
(1562.28,882.048,o),
(1562.19,884.839,o),
(1562,887,c),
(1535,883,o),
(1508,882,o),
(1482,882,cs),
(1455,882,o),
(1430,883,o),
(1406,883,cs),
(1285,883,o),
(1115,882,o),
(940.004,880,c),
(946.004,950,o),
(946.004,1004,o),
(952.004,1047,c),
(1294,1049,o),
(1647,1045,o),
(1916,1069,c),
(1957,1436,l),
(1897,1449,o),
(1823,1449,o),
(1761,1449,c),
(1043,1433,l),
(400.004,1433,l),
(315.004,1429,o),
(309.004,1430,o),
(243.004,1428,c),
(243.004,1399,o),
(176.004,-1,o),
(175.004,-2,cs),
(376.004,3,l),
(376.004,3,o),
(1042,-22,o),
(1318,-22,cs)
);
},
{
closed = 1;
nodes = (
(1089,2109,l),
(1086,2109,ls),
(1081,2109,o),
(800,2018,o),
(739,1999,c),
(1156,1634,l),
(1184,1645,l),
(1309,1690,l)
);
}
);
};
layerId = m001;
shapes = (
{
ref = E;
},
{
pos = (814,439);
ref = gravecomb;
}
);
width = 2048;
}
);
unicode = 200;
},
{
glyphname = Einvertedbreve;
kernLeft = E;
kernRight = E;
lastChange = "2023-07-05 14:32:28 +0000";
layers = (
{
background = {
anchors = (
{
name = bottom;
pos = (1024,0);
},
{
name = ogonek;
pos = (1843,10);
},
{
name = top;
pos = (1123.519,1930.34);
}
);
shapes = (
{
closed = 1;
nodes = (
(1562,-22,o),
(1695,-23,o),
(1934,-24,c),
(1945,41,o),
(1966,78,o),
(1966,349,c),
(916.004,349,l),
(927.004,556,l),
(987.004,557,o),
(1045,557,o),
(1104,557,cs),
(1168.44,556.609,o),
(1223.34,556.448,o),
(1270.02,556.448,cs),
(1462.38,556.448,o),
(1514.98,559.195,o),
(1519,560,c),
(1541.52,646.319,o),
(1562.28,827.71,o),
(1562.28,878.692,cs),
(1562.28,882.048,o),
(1562.19,884.839,o),
(1562,887,c),
(1535,883,o),
(1508,882,o),
(1482,882,cs),
(1455,882,o),
(1430,883,o),
(1406,883,cs),
(1285,883,o),
(1115,882,o),
(940.004,880,c),
(946.004,950,o),
(946.004,1004,o),
(952.004,1047,c),
(1294,1049,o),
(1647,1045,o),
(1916,1069,c),
(1957,1436,l),
(1897,1449,o),
(1823,1449,o),
(1761,1449,c),
(1043,1433,l),
(400.004,1433,l),
(315.004,1429,o),
(309.004,1430,o),
(243.004,1428,c),
(243.004,1399,o),
(176.004,-1,o),
(175.004,-2,cs),
(376.004,3,l),
(376.004,3,o),
(1042,-22,o),
(1318,-22,cs)
);
},
{
closed = 1;
nodes = (
(1223,1668,o),
(1222,1668,o),
(1222,1665,cs),
(1222,1652,o),
(1235,1644,o),
(1307,1644,cs),
(1397,1644,o),
(1404,1654,o),
(1404,1681,cs),
(1404,1804,o),
(1329,1930,o),
(1148,1930,cs),
(979,1930,o),
(844,1843,o),
(844,1695,cs),
(844,1663,o),
(848,1649,o),
(939,1649,cs),
(1005,1649,o),
(1010,1658,o),
(1013,1672,cs),
(1013,1673,o),
(1012,1674,o),
(1012,1675,cs),
(1012,1714,o),
(1037,1774,o),
(1123,1774,cs),
(1192,1774,o),
(1227,1734,o),
(1227,1698,cs),
(1227,1687,o),
(1224,1678,o),
(1223,1671,cs)
);
}
);
};
layerId = m001;
shapes = (
{
ref = E;
},
{
pos = (788,0);
ref = breveinvertedcomb;
}
);
width = 2048;
}
);
unicode = 518;
},
{
glyphname = Emacron;
lastChange = "2023-07-05 14:32:28 +0000";
layers = (
{
background = {
anchors = (
{
name = bottom;
pos = (1024,0);
},
{
name = ogonek;
pos = (1843,10);
},
{
name = top;
pos = (1024,1465);
}
);
shapes = (
{
closed = 1;
nodes = (
(1562,-22,o),
(1695,-23,o),
(1934,-24,c),
(1945,41,o),
(1966,78,o),
(1966,349,c),
(916.004,349,l),
(927.004,556,l),
(987.004,557,o),
(1045,557,o),
(1104,557,cs),
(1168.44,556.609,o),
(1223.34,556.448,o),
(1270.02,556.448,cs),
(1462.38,556.448,o),
(1514.98,559.195,o),
(1519,560,c),
(1541.52,646.319,o),
(1562.28,827.71,o),
(1562.28,878.692,cs),
(1562.28,882.048,o),
(1562.19,884.839,o),
(1562,887,c),
(1535,883,o),
(1508,882,o),
(1482,882,cs),
(1455,882,o),
(1430,883,o),
(1406,883,cs),
(1285,883,o),
(1115,882,o),
(940.004,880,c),
(946.004,950,o),
(946.004,1004,o),
(952.004,1047,c),
(1294,1049,o),
(1647,1045,o),
(1916,1069,c),
(1957,1436,l),
(1897,1449,o),
(1823,1449,o),
(1761,1449,c),
(1043,1433,l),
(400.004,1433,l),
(315.004,1429,o),
(309.004,1430,o),
(243.004,1428,c),
(243.004,1399,o),
(176.004,-1,o),
(175.004,-2,cs),
(376.004,3,l),
(376.004,3,o),
(1042,-22,o),
(1318,-22,cs)
);
},
{
closed = 1;
nodes = (
(587,1023,l),
(714,1025,l),
(822,1025,o),
(1190,1033,o),
(1446,1041,c),
(1448,1075,l),
(1451,1126,o),
(1460,1390,o),
(1462,1467,c),
(629,1449,l)
);
}
);
};
layerId = m001;
shapes = (
{
ref = E;
},
{
pos = (429,439);
ref = macroncomb;
}
);
width = 2048;
}
);
unicode = 274;
},
{
glyphname = Eogonek;
lastChange = "2023-07-05 14:32:28 +0000";
layers = (
{
background = {
anchors = (
{
name = bottom;
pos = (1024,0);
},
{
name = ogonek;
pos = (1843,10);
},
{
name = top;
pos = (1024,1465);
}
);
shapes = (
{
closed = 1;
nodes = (
(1562,-22,o),
(1695,-23,o),
(1934,-24,c),
(1945,41,o),
(1966,78,o),
(1966,349,c),
(916.004,349,l),
(927.004,556,l),
(987.004,557,o),
(1045,557,o),
(1104,557,cs),
(1168.44,556.609,o),
(1223.34,556.448,o),
(1270.02,556.448,cs),
(1462.38,556.448,o),
(1514.98,559.195,o),
(1519,560,c),
(1541.52,646.319,o),
(1562.28,827.71,o),
(1562.28,878.692,cs),
(1562.28,882.048,o),
(1562.19,884.839,o),
(1562,887,c),
(1535,883,o),
(1508,882,o),
(1482,882,cs),
(1455,882,o),
(1430,883,o),
(1406,883,cs),
(1285,883,o),
(1115,882,o),
(940.004,880,c),
(946.004,950,o),
(946.004,1004,o),
(952.004,1047,c),
(1294,1049,o),
(1647,1045,o),
(1916,1069,c),
(1957,1436,l),
(1897,1449,o),
(1823,1449,o),
(1761,1449,c),
(1043,1433,l),
(400.004,1433,l),
(315.004,1429,o),
(309.004,1430,o),
(243.004,1428,c),
(243.004,1399,o),
(176.004,-1,o),
(175.004,-2,cs),
(376.004,3,l),
(376.004,3,o),
(1042,-22,o),
(1318,-22,cs)
);
},
{
closed = 1;
nodes = (
(1410,-510,o),
(1489,-596,o),
(1619,-596,cs),
(1674,-596,o),
(1743,-591,o),
(1795,-565,c),
(1803,-557,o),
(1815,-449,o),
(1815,-412,c),
(1761,-431,o),
(1733,-438,o),
(1662,-438,cs),
(1615,-438,o),
(1591,-412,o),
(1591,-377,cs),
(1591,-370,o),
(1592,-363,o),
(1594,-356,cs),
(1632,-209,o),
(1752,-113,o),
(1843,-17,c),
(1835,-17,o),
(1791,-18,o),
(1748,-18,cs),
(1664,-18,l),
(1541,-101,o),
(1421,-226,o),
(1410,-386,c)
);
}
);
};
layerId = m001;
shapes = (
{
ref = E;
},
{
pos = (1160,27);
ref = ogonekcomb;
}
);
width = 2048;
}
);
unicode = 280;
},
{
glyphname = F;
lastChange = "2023-07-05 14:32:28 +0000";
layers = (
{
anchors = (
{
name = bottom;
pos = (956,0);
},
{
name = top;
pos = (956,1465);
}
);
background = {
shapes = (
{
closed = 1;
nodes = (
(911,47,o),
(909,95,o),
(911,143,cs),
(925,512,l),
(1288,514,l),
(1397,516,o),
(1491,519,o),
(1588,529,c),
(1610,640,o),
(1633,757,o),
(1633,827,c),
(1585,837,o),
(1532,839,o),
(1483,839,cs),
(1338,839,o),
(1138,836,o),
(939,834,c),
(941,915,o),
(941,971,o),
(949,1061,c),
(1449,1067,l),
(1610,1067,o),
(1772,1067,o),
(1910,1084,c),
(1929,1254,l),
(1943,1333,o),
(1951,1393,o),
(1951,1437,c),
(1911,1447,o),
(1858,1449,o),
(1816,1449,cs),
(1178,1440,l),
(497,1433,l),
(393,1429,o),
(293,1424,o),
(210,1420,c),
(190,324,ls),
(188,217,o),
(178,83,o),
(177,-24,c),
(245,-25,ls),
(292,-25,o),
(794.412,-2.353,o),
(905,0,c)
);
}
);
};
layerId = m001;
shapes = (
{
closed = 1;
nodes = (
(292,-25,o),
(794,-2,o),
(905,0,c),
(911,47,o),
(909,95,o),
(911,143,cs),
(925,512,l),
(1288,514,ls),
(1397,516,o),
(1491,519,o),
(1588,529,c),
(1610,640,o),
(1633,757,o),
(1633,827,c),
(1585,837,o),
(1532,839,o),
(1483,839,cs),
(1338,839,o),
(1138,836,o),
(939,834,c),
(941,915,o),
(941,971,o),
(949,1061,c),
(1449,1067,ls),
(1610,1067,o),
(1772,1067,o),
(1910,1084,c),
(1929,1254,l),
(1943,1333,o),
(1951,1393,o),
(1951,1437,c),
(1911,1447,o),
(1858,1449,o),
(1816,1449,cs),
(497,1433,ls),
(393,1429,o),
(293,1424,o),
(210,1420,c),
(190,324,ls),
(188,217,o),
(178,83,o),
(177,-24,c),
(245,-25,ls)
);
}
);
width = 1912;
}
);
unicode = 70;
},
{
glyphname = G;
kernLeft = G;
kernRight = G;
lastChange = "2023-07-05 14:32:28 +0000";
layers = (
{
anchors = (
{
name = bottom;
pos = (1099,0);
},
{
name = top;
pos = (1099,1465);
}
);
background = {
anchors = (
{
name = bottom;
pos = (1099,0);
},
{
name = top;
pos = (1099,1465);
}
);
shapes = (
{
closed = 1;
nodes = (
(1832,-10,o),
(1984,0,o),
(2020,0,c),
(2020,777,l),
(1981,786,o),
(1313,787,o),
(1278,790,c),
(1265,501,l),
(1503,501,l),
(1466,430,o),
(1382,361,o),
(1240,361,cs),
(1041,361,o),
(909,476,o),
(909,705,cs),
(909,972,o),
(1174,1040,o),
(1405,1040,cs),
(1584,1040,o),
(1798,999,o),
(1884,978,c),
(1884,1404,l),
(1745,1439,o),
(1457,1466,o),
(1325,1466,cs),
(710,1466,o),
(126,1274,o),
(126,690,cs),
(126,180,o),
(585,-45,o),
(1120,-45,cs),
(1352,-45,o),
(1680,44,o),
(1802,194,c),
(1832,-10,l)
);
}
);
};
layerId = m001;
shapes = (
{
closed = 1;
nodes = (
(1352,-45,o),
(1680,44,o),
(1802,194,c),
(1832,-10,l),
(1832,-10,o),
(1984,0,o),
(2020,0,c),
(2020,777,l),
(1981,786,o),
(1313,787,o),
(1278,790,c),
(1265,501,l),
(1503,501,l),
(1466,430,o),
(1382,361,o),
(1240,361,cs),
(1041,361,o),
(909,476,o),
(909,705,cs),
(909,972,o),
(1174,1040,o),
(1405,1040,cs),
(1584,1040,o),
(1798,999,o),
(1884,978,c),
(1884,1404,l),
(1745,1439,o),
(1457,1466,o),
(1325,1466,cs),
(710,1466,o),
(126,1274,o),
(126,690,cs),
(126,180,o),
(585,-45,o),
(1120,-45,cs)
);
}
);
width = 2198;
}
);
unicode = 71;
},
{
glyphname = Gbreve;
kernLeft = G;
kernRight = G;
lastChange = "2023-07-05 14:32:28 +0000";
layers = (
{
background = {
anchors = (
{
name = bottom;
pos = (1099,0);
},
{
name = top;
pos = (1099,1465);
}
);
shapes = (
{
closed = 1;
nodes = (
(1832,-10,o),
(1984,0,o),
(2020,0,c),
(2020,777,l),
(1981,786,o),
(1313,787,o),
(1278,790,c),
(1265,501,l),
(1503,501,l),
(1466,430,o),
(1382,361,o),
(1240,361,cs),
(1041,361,o),
(909,476,o),
(909,705,cs),
(909,972,o),
(1174,1040,o),
(1405,1040,cs),
(1584,1040,o),
(1798,999,o),
(1884,978,c),
(1884,1404,l),
(1745,1439,o),
(1457,1466,o),
(1325,1466,cs),
(710,1466,o),
(126,1274,o),
(126,690,cs),
(126,180,o),
(585,-45,o),
(1120,-45,cs),
(1352,-45,o),
(1680,44,o),
(1802,194,c),
(1832,-10,l)
);
},
{
closed = 1;
nodes = (
(1182,1778,o),
(1089,1778,cs),
(1004,1778,o),
(975,1831,o),
(975,1873,cs),
(975,1887,o),
(978,1900,o),
(978,1904,c),
(777,1904,l),
(770,1879,o),
(767,1855,o),
(767,1833,cs),
(767,1688,o),
(908,1590,o),
(1075,1590,cs),
(1277,1590,o),
(1431,1690,o),
(1431,1904,c),
(1222,1902,l),
(1222,1816,o)
);
}
);
};
layerId = m001;
shapes = (
{
ref = G;
},
{
pos = (693,439);
ref = brevecomb;
}
);
width = 2198;
}
);
unicode = 286;
},
{
glyphname = Gdotaccent;
lastChange = "2023-07-05 14:32:28 +0000";
layers = (
{
background = {
anchors = (
{
name = bottom;
pos = (1099,0);
},
{
name = top;
pos = (1099,1465);
}
);
shapes = (
{
closed = 1;
nodes = (
(1832,-10,o),
(1984,0,o),
(2020,0,c),
(2020,777,l),
(1981,786,o),
(1313,787,o),
(1278,790,c),
(1265,501,l),
(1503,501,l),
(1466,430,o),
(1382,361,o),
(1240,361,cs),
(1041,361,o),
(909,476,o),
(909,705,cs),
(909,972,o),
(1174,1040,o),
(1405,1040,cs),
(1584,1040,o),
(1798,999,o),
(1884,978,c),
(1884,1404,l),
(1745,1439,o),
(1457,1466,o),
(1325,1466,cs),
(710,1466,o),
(126,1274,o),
(126,690,cs),
(126,180,o),
(585,-45,o),
(1120,-45,cs),
(1352,-45,o),
(1680,44,o),
(1802,194,c),
(1832,-10,l)
);
},
{
closed = 1;
nodes = (
(884,1828,o),
(887,1828,o),
(895,1828,cs),
(1024,1828,o),
(1143,1830,o),
(1256,1831,c),
(1281,1834,o),
(1281,1847,o),
(1286,1891,c),
(1314,2205,l),
(1314,2224,o),
(1305,2229,o),
(1293,2229,cs),
(1180,2228,o),
(1045,2227,o),
(928,2227,c),
(904,2223,o),
(901,2210,o),
(899,2166,cs),
(882,1877,o),
(895,2091,o),
(884,1839,c),
(884,1835,ls)
);
}
);
};
layerId = m001;
shapes = (
{
ref = G;
},
{
pos = (811,439);
ref = dotaccentcomb;
}
);
width = 2198;
}
);
unicode = 288;
},
{
glyphname = H;
lastChange = "2023-07-05 14:32:28 +0000";
layers = (
{
anchors = (
{
name = bottom;
pos = (1211,0);
},
{
name = center;
pos = (1211,733);
},
{
name = top;
pos = (1211,1465);
},
{
name = topleft;
pos = (20,1465);
}
);
background = {
anchors = (
{
name = center;
pos = (1211,733);
},
{
name = top;
pos = (1211,1465);
}
);
shapes = (
{
closed = 1;
nodes = (
(988,1453,l),
(984,1453.21,o),
(977.485,1453.32,o),
(968.804,1453.32,cs),
(855.959,1453.32,o),
(377.214,1436.07,o),
(302,1424,c),
(290,1410,l),
(286,1350,l),
(269,1184,o),
(262,1074,o),
(256,966,c),
(237,456,ls),
(237,441,o),
(235,417,o),
(235,402,cs),
(230,261,o),
(226,103,o),
(226,-17,c),
(356.43,-23.016,ls),
(376,-23.016,ls),
(916,2,l),
(942,432,l),
(1476,432,l),
(1470,317,o),
(1462,60,o),
(1462,-11,c),
(1537,-11,o),
(2124,2,o),
(2180,2,c),
(2197,698,o),
(2201,677,o),
(2201,717,cs),
(2201,792,o),
(2238,1434,o),
(2237,1454,c),
(1661,1439,l),
(1619,1438,o),
(1554,1435,o),
(1509,1429,c),
(1509,1338,o),
(1490,964,o),
(1488,943,c),
(950,943,l)
);
}
);
};
layerId = m001;
shapes = (
{
closed = 1;
nodes = (
(376,-23,l),
(916,2,l),
(942,432,l),
(1476,432,l),
(1470,317,o),
(1462,60,o),
(1462,-11,c),
(1537,-11,o),
(2124,2,o),
(2180,2,c),
(2197,698,o),
(2201,677,o),
(2201,717,cs),
(2201,792,o),
(2238,1434,o),
(2237,1454,c),
(1661,1439,ls),
(1619,1438,o),
(1554,1435,o),
(1509,1429,c),
(1509,1338,o),
(1490,964,o),
(1488,943,c),
(950,943,l),
(988,1453,l),
(969,1453,ls),
(856,1453,o),
(377,1436,o),
(302,1424,c),
(290,1410,l),
(286,1350,ls),
(269,1184,o),
(262,1074,o),
(256,966,cs),
(237,456,ls),
(237,441,o),
(235,417,o),
(235,402,cs),
(230,261,o),
(226,103,o),
(226,-17,c),
(356,-23,l)
);
}
);
width = 2421;
}
);
unicode = 72;
},
{
glyphname = Hbar;
lastChange = "2023-07-05 14:32:28 +0000";
layers = (
{
anchors = (
{
name = bottom;
pos = (1211,0);
},
{
name = center;
pos = (1211,733);
},
{
name = top;
pos = (1211,1465);
},
{
name = topleft;
pos = (20,1465);
}
);
layerId = m001;
shapes = (
{
closed = 1;
nodes = (
(376,-23,l),
(916,2,l),
(942,374,l),
(1476,374,l),
(1470,259,o),
(1462,60,o),
(1462,-11,c),
(1537,-11,o),
(2124,2,o),
(2180,2,c),
(2197,698,o),
(2201,677,o),
(2201,717,cs),
(2201,792,o),
(2238,1434,o),
(2237,1454,c),
(1661,1439,ls),
(1619,1438,o),
(1554,1435,o),
(1509,1429,c),
(1509,1338,o),
(1490,866,o),
(1488,845,c),
(950,845,l),
(988,1453,l),
(969,1453,ls),
(856,1453,o),
(377,1436,o),
(302,1424,c),
(290,1410,l),
(286,1350,ls),
(269,1184,o),
(262,1074,o),
(256,966,cs),
(237,456,ls),
(237,441,o),
(235,417,o),
(235,402,cs),
(230,261,o),
(226,103,o),
(226,-17,c),
(356,-23,l)
);
},
{
closed = 1;
nodes = (
(253,1024,ls),
(384,1024,o),
(2072,1030,o),
(2382,1036,c),
(2393,1138,o),
(2388,1221,o),
(2388,1249,cs),
(2388,1283,l),
(2118,1275,o),
(399,1265,o),
(132,1255,c),
(99,1024,l)
);
}
);
width = 2421;
}
);
unicode = 294;
},
{
glyphname = I;
kernLeft = I;
kernRight = I;
lastChange = "2023-07-05 14:32:28 +0000";
layers = (
{
anchors = (
{
name = bottom;
pos = (592,0);
},
{
name = ogonek;
pos = (735,29);
},
{
name = top;
pos = (632,1465);
},
{
name = topleft;
pos = (20,1465);
}
);
background = {
anchors = (
{
name = ogonek;
pos = (1065,10);
},
{
name = top;
pos = (592,1465);
}
);
shapes = (
{
closed = 1;
nodes = (
(933,1449,o),
(875,1447,o),
(816,1447,c),
(390.525,1396.09,o),
(333,1397,o),
(273,1368,c),
(276,1353,o),
(277,1334,o),
(277,1312,cs),
(277,1177,o),
(266,1003,o),
(256,789,c),
(238,153,l),
(238,86,o),
(244,26,o),
(253,-30,c),
(383,-30,o),
(632,15,o),
(771,15,c),
(837,17,o),
(896,25,o),
(959,32,c),
(958,38,o),
(958,45,o),
(958,51,cs),
(958,72,o),
(960,92,o),
(961,112,cs),
(974,578,l),
(987,835,o),
(985,1010,o),
(1001,1262,c),
(1001,1333,o),
(998,1393,o),
(990,1449,c)
);
}
);
};
layerId = m001;
shapes = (
{
closed = 1;
nodes = (
(383,-30,o),
(632,15,o),
(771,15,cs),
(837,17,o),
(896,25,o),
(959,32,c),
(958,38,o),
(958,45,o),
(958,51,cs),
(958,72,o),
(960,92,o),
(961,112,cs),
(974,578,ls),
(987,835,o),
(985,1010,o),
(1001,1262,c),
(1001,1333,o),
(998,1393,o),
(990,1449,c),
(933,1449,o),
(875,1447,o),
(816,1447,c),
(391,1396,o),
(333,1397,o),
(273,1368,c),
(276,1353,o),
(277,1334,o),
(277,1312,cs),
(277,1177,o),
(266,1003,o),
(256,789,cs),
(238,153,ls),
(238,86,o),
(244,26,o),
(253,-30,c)
);
}
);
width = 1183;
}
);
unicode = 73;
},
{
glyphname = IJ;
lastChange = "2023-07-05 14:32:28 +0000";
layers = (
{
background = {
anchors = (
{
name = ogonek;
pos = (1065,10);
},
{
name = top;
pos = (1865,1465);
}
);
shapes = (
{
closed = 1;
nodes = (
(933,1449,o),
(875,1447,o),
(816,1447,c),
(390.525,1396.09,o),
(333,1397,o),
(273,1368,c),
(276,1353,o),
(277,1334,o),
(277,1312,cs),
(277,1177,o),
(266,1003,o),
(256,789,c),
(238,153,l),
(238,86,o),
(244,26,o),
(253,-30,c),
(383,-30,o),
(632,15,o),
(771,15,c),
(837,17,o),
(896,25,o),
(959,32,c),
(958,38,o),
(958,45,o),
(958,51,cs),
(958,72,o),
(960,92,o),
(961,112,cs),
(974,578,l),
(987,835,o),
(985,1010,o),
(1001,1262,c),
(1001,1333,o),
(998,1393,o),
(990,1449,c)
);
},
{
closed = 1;
nodes = (
(2337,1450,o),
(2280,1447,o),
(2226,1447,c),
(1757,1408,l),
(1697,1408,o),
(1641,1406,o),
(1588,1401,c),
(1591,1349,o),
(1591,1296,o),
(1592,1247,c),
(1592,998,o),
(1590,729,o),
(1590,689,cs),
(1590,413,o),
(1500,274,o),
(1279,236,c),
(1386,21,o),
(1468,-109,o),
(1481,-129,c),
(1877,-96,o),
(2137,25,o),
(2288,284,c),
(2358,402,o),
(2360,569,o),
(2374,854,cs),
(2397,1315,l),
(2396,1364,o),
(2396,1409,o),
(2392,1452,c)
);
}
);
};
layerId = m001;
shapes = (
{
ref = I;
},
{
pos = (1183,0);
ref = J;
}
);
width = 2546;
}
);
unicode = 306;
},
{
glyphname = Iacute;
kernLeft = I;
kernRight = I;
lastChange = "2023-07-05 14:32:28 +0000";
layers = (
{
background = {
anchors = (
{
name = ogonek;
pos = (1065,10);
},
{
name = top;
pos = (592,1465);
}
);
shapes = (
{
closed = 1;
nodes = (
(933,1449,o),
(875,1447,o),
(816,1447,c),
(390.525,1396.09,o),
(333,1397,o),
(273,1368,c),
(276,1353,o),
(277,1334,o),
(277,1312,cs),
(277,1177,o),
(266,1003,o),
(256,789,c),
(238,153,l),
(238,86,o),
(244,26,o),
(253,-30,c),
(383,-30,o),
(632,15,o),
(771,15,c),
(837,17,o),
(896,25,o),
(959,32,c),
(958,38,o),
(958,45,o),
(958,51,cs),
(958,72,o),
(960,92,o),
(961,112,cs),
(974,578,l),
(987,835,o),
(985,1010,o),
(1001,1262,c),
(1001,1333,o),
(998,1393,o),
(990,1449,c)
);
},
{
closed = 1;
nodes = (
(461,1645,o),
(463,1644,o),
(463,1644,c),
(549,1709,o),
(795,1910,o),
(896,1991,c),
(849,2005,o),
(598,2077,o),
(552,2089,c),
(530,2058,o),
(370,1821,o),
(289,1686,c),
(325,1677,o),
(442,1648,o),
(460,1645,cs)
);
}
);
};
layerId = m001;
shapes = (
{
ref = I;
},
{
pos = (265,439);
ref = acutecomb;
}
);
width = 1183;
}
);
unicode = 205;
},
{
glyphname = Icircumflex;
kernLeft = I;
kernRight = I;
lastChange = "2023-07-05 14:32:28 +0000";
layers = (
{
background = {
anchors = (
{
name = ogonek;
pos = (1065,10);
},
{
name = top;
pos = (592,1465);
}
);
shapes = (
{
closed = 1;
nodes = (
(933,1449,o),
(875,1447,o),
(816,1447,c),
(390.525,1396.09,o),
(333,1397,o),
(273,1368,c),
(276,1353,o),
(277,1334,o),
(277,1312,cs),
(277,1177,o),
(266,1003,o),
(256,789,c),
(238,153,l),
(238,86,o),
(244,26,o),
(253,-30,c),
(383,-30,o),
(632,15,o),
(771,15,c),
(837,17,o),
(896,25,o),
(959,32,c),
(958,38,o),
(958,45,o),
(958,51,cs),
(958,72,o),
(960,92,o),
(961,112,cs),
(974,578,l),
(987,835,o),
(985,1010,o),
(1001,1262,c),
(1001,1333,o),
(998,1393,o),
(990,1449,c)
);
},
{
closed = 1;
nodes = (
(434,1682,o),
(548,1811,o),
(607,1860,c),
(645,1809,o),
(684,1760,o),
(722,1710,c),
(749,1687,o),
(773,1671,o),
(799,1660,c),
(834,1660,o),
(987,1699,o),
(1024,1720,c),
(1009,1747,o),
(968,1792,o),
(948,1815,cs),
(881,1890,o),
(766,2030,o),
(727,2067,c),
(710,2069,o),
(692,2069,o),
(673,2069,cs),
(646,2069,o),
(618,2070,o),
(591,2070,cs),
(558,2070,o),
(525,2068,o),
(494,2060,c),
(449,2012,o),
(407,1967,o),
(361,1921,cs),
(237,1795,ls),
(207,1764,o),
(181,1741,o),
(161,1716,c),
(198,1708,o),
(330,1661,o),
(378,1661,c)
);
}
);
};
layerId = m001;
shapes = (
{
ref = I;
},
{
pos = (130,439);
ref = circumflexcomb;
}
);
width = 1183;
}
);
unicode = 206;
},
{
glyphname = Idblgrave;
kernLeft = I;
kernRight = I;
lastChange = "2023-07-05 14:32:28 +0000";
layers = (
{
background = {
anchors = (
{
name = ogonek;
pos = (1065,10);
},
{
name = top;
pos = (592,1465);
}
);
shapes = (
{
closed = 1;
nodes = (
(933,1449,o),
(875,1447,o),
(816,1447,c),
(390.525,1396.09,o),
(333,1397,o),
(273,1368,c),
(276,1353,o),
(277,1334,o),
(277,1312,cs),
(277,1177,o),
(266,1003,o),
(256,789,c),
(238,153,l),
(238,86,o),
(244,26,o),
(253,-30,c),
(383,-30,o),
(632,15,o),
(771,15,c),
(837,17,o),
(896,25,o),
(959,32,c),
(958,38,o),
(958,45,o),
(958,51,cs),
(958,72,o),
(960,92,o),
(961,112,cs),
(974,578,l),
(987,835,o),
(985,1010,o),
(1001,1262,c),
(1001,1333,o),
(998,1393,o),
(990,1449,c)
);
}
);
};
layerId = m001;
shapes = (
{
ref = I;
},
{
pos = (108,439);
ref = dblgravecomb;
}
);
width = 1183;
}
);
unicode = 520;
},
{
glyphname = Idieresis;
kernLeft = I;
kernRight = I;
lastChange = "2023-07-05 14:32:28 +0000";
layers = (
{
background = {
anchors = (
{
name = ogonek;
pos = (1065,10);
},
{
name = top;
pos = (592,1465);
}
);
shapes = (
{
closed = 1;
nodes = (
(933,1449,o),
(875,1447,o),
(816,1447,c),
(390.525,1396.09,o),
(333,1397,o),
(273,1368,c),
(276,1353,o),
(277,1334,o),
(277,1312,cs),
(277,1177,o),
(266,1003,o),
(256,789,c),
(238,153,l),
(238,86,o),
(244,26,o),
(253,-30,c),
(383,-30,o),
(632,15,o),
(771,15,c),
(837,17,o),
(896,25,o),
(959,32,c),
(958,38,o),
(958,45,o),
(958,51,cs),
(958,72,o),
(960,92,o),
(961,112,cs),
(974,578,l),
(987,835,o),
(985,1010,o),
(1001,1262,c),
(1001,1333,o),
(998,1393,o),
(990,1449,c)
);
},
{
closed = 1;
nodes = (
(1098,1658,l),
(1098,2015,l),
(1079,2015,l),
(726,2015,l),
(718,1659,l),
(1046,1658,l)
);
},
{
closed = 1;
nodes = (
(86,1657,o),
(89,1657,o),
(96,1657,cs),
(213,1657,o),
(320,1659,o),
(467,1659,c),
(472,2017,l),
(454,2017,ls),
(354,2017,o),
(230,2015,o),
(126,2015,cs),
(99,2015,l),
(86,1667,l),
(86,1664,ls)
);
}
);
};
layerId = m001;
shapes = (
{
ref = I;
},
{
pos = (37,439);
ref = dieresiscomb;
}
);
width = 1183;
}
);
unicode = 207;
},
{
glyphname = Idotaccent;
kernLeft = I;
kernRight = I;
lastChange = "2023-07-05 14:32:28 +0000";
layers = (
{
background = {
anchors = (
{
name = ogonek;
pos = (1065,10);
},
{
name = top;
pos = (592,1465);
}
);
shapes = (
{
closed = 1;
nodes = (
(933,1449,o),
(875,1447,o),
(816,1447,c),
(390.525,1396.09,o),
(333,1397,o),
(273,1368,c),
(276,1353,o),
(277,1334,o),
(277,1312,cs),
(277,1177,o),
(266,1003,o),
(256,789,c),
(238,153,l),
(238,86,o),
(244,26,o),
(253,-30,c),
(383,-30,o),
(632,15,o),
(771,15,c),
(837,17,o),
(896,25,o),
(959,32,c),
(958,38,o),
(958,45,o),
(958,51,cs),
(958,72,o),
(960,92,o),
(961,112,cs),
(974,578,l),
(987,835,o),
(985,1010,o),
(1001,1262,c),
(1001,1333,o),
(998,1393,o),
(990,1449,c)
);
},
{
closed = 1;
nodes = (
(377,1828,o),
(380,1828,o),
(388,1828,cs),
(517,1828,o),
(636,1830,o),
(749,1831,c),
(774,1834,o),
(774,1847,o),
(779,1891,c),
(807,2205,l),
(807,2224,o),
(798,2229,o),
(786,2229,cs),
(673,2228,o),
(538,2227,o),
(421,2227,c),
(397,2223,o),
(394,2210,o),
(392,2166,cs),
(375,1877,o),
(388,2091,o),
(377,1839,c),
(377,1835,ls)
);
}
);
};
layerId = m001;
shapes = (
{
ref = I;
},
{
pos = (344,439);
ref = dotaccentcomb;
}
);
width = 1183;
}
);
unicode = 304;
},
{
glyphname = Igrave;
kernLeft = I;
kernRight = I;
lastChange = "2023-07-05 14:32:28 +0000";
layers = (
{
background = {
anchors = (
{
name = ogonek;
pos = (1065,10);
},
{
name = top;
pos = (592,1465);
}
);
shapes = (
{
closed = 1;
nodes = (
(933,1449,o),
(875,1447,o),
(816,1447,c),
(390.525,1396.09,o),
(333,1397,o),
(273,1368,c),
(276,1353,o),
(277,1334,o),
(277,1312,cs),
(277,1177,o),
(266,1003,o),
(256,789,c),
(238,153,l),
(238,86,o),
(244,26,o),
(253,-30,c),
(383,-30,o),
(632,15,o),
(771,15,c),
(837,17,o),
(896,25,o),
(959,32,c),
(958,38,o),
(958,45,o),
(958,51,cs),
(958,72,o),
(960,92,o),
(961,112,cs),
(974,578,l),
(987,835,o),
(985,1010,o),
(1001,1262,c),
(1001,1333,o),
(998,1393,o),
(990,1449,c)
);
},
{
closed = 1;
nodes = (
(657,2109,l),
(654,2109,ls),
(649,2109,o),
(368,2018,o),
(307,1999,c),
(724,1634,l),
(752,1645,l),
(877,1690,l)
);
}
);
};
layerId = m001;
shapes = (
{
ref = I;
},
{
pos = (322,439);
ref = gravecomb;
}
);
width = 1183;
}
);
unicode = 204;
},
{
glyphname = Iinvertedbreve;
kernLeft = I;
kernRight = I;
lastChange = "2023-07-05 14:32:28 +0000";
layers = (
{
background = {
anchors = (
{
name = ogonek;
pos = (1065,10);
},
{
name = top;
pos = (650.404,1930.34);
}
);
shapes = (
{
closed = 1;
nodes = (
(933,1449,o),
(875,1447,o),
(816,1447,c),
(390.525,1396.09,o),
(333,1397,o),
(273,1368,c),
(276,1353,o),
(277,1334,o),
(277,1312,cs),
(277,1177,o),
(266,1003,o),
(256,789,c),
(238,153,l),
(238,86,o),
(244,26,o),
(253,-30,c),
(383,-30,o),
(632,15,o),
(771,15,c),
(837,17,o),
(896,25,o),
(959,32,c),
(958,38,o),
(958,45,o),
(958,51,cs),
(958,72,o),
(960,92,o),
(961,112,cs),
(974,578,l),
(987,835,o),
(985,1010,o),
(1001,1262,c),
(1001,1333,o),
(998,1393,o),
(990,1449,c)
);
},
{
closed = 1;
nodes = (
(749,1668,o),
(748,1668,o),
(748,1665,cs),
(748,1652,o),
(761,1644,o),
(833,1644,cs),
(923,1644,o),
(930,1654,o),
(930,1681,cs),
(930,1804,o),
(855,1930,o),
(674,1930,cs),
(505,1930,o),
(370,1843,o),
(370,1695,cs),
(370,1663,o),
(374,1649,o),
(465,1649,cs),
(531,1649,o),
(536,1658,o),
(539,1672,cs),
(539,1673,o),
(538,1674,o),
(538,1675,cs),
(538,1714,o),
(563,1774,o),
(649,1774,cs),
(718,1774,o),
(753,1734,o),
(753,1698,cs),
(753,1687,o),
(750,1678,o),
(749,1671,cs)
);
}
);
};
layerId = m001;
shapes = (
{
ref = I;
},
{
pos = (296,0);
ref = breveinvertedcomb;
}
);
width = 1183;
}
);
unicode = 522;
},
{
glyphname = Imacron;
lastChange = "2023-07-05 14:32:28 +0000";
layers = (
{
background = {
anchors = (
{
name = ogonek;
pos = (1065,10);
},
{
name = top;
pos = (592,1465);
}
);
shapes = (
{
closed = 1;
nodes = (
(933,1449,o),
(875,1447,o),
(816,1447,c),
(390.525,1396.09,o),
(333,1397,o),
(273,1368,c),
(276,1353,o),
(277,1334,o),
(277,1312,cs),
(277,1177,o),
(266,1003,o),
(256,789,c),
(238,153,l),
(238,86,o),
(244,26,o),
(253,-30,c),
(383,-30,o),
(632,15,o),
(771,15,c),
(837,17,o),
(896,25,o),
(959,32,c),
(958,38,o),
(958,45,o),
(958,51,cs),
(958,72,o),
(960,92,o),
(961,112,cs),
(974,578,l),
(987,835,o),
(985,1010,o),
(1001,1262,c),
(1001,1333,o),
(998,1393,o),
(990,1449,c)
);
},
{
closed = 1;
nodes = (
(155,1023,l),
(282,1025,l),
(390,1025,o),
(758,1033,o),
(1014,1041,c),
(1016,1075,l),
(1019,1126,o),
(1028,1390,o),
(1030,1467,c),
(197,1449,l)
);
}
);
};
layerId = m001;
shapes = (
{
ref = I;
},
{
pos = (-63,439);
ref = macroncomb;
}
);
width = 1183;
}
);
unicode = 298;
},
{
glyphname = Iogonek;
lastChange = "2023-07-05 14:32:28 +0000";
layers = (
{
background = {
anchors = (
{
name = ogonek;
pos = (1065,10);
},
{
name = top;
pos = (592,1465);
}
);
shapes = (
{
closed = 1;
nodes = (
(933,1449,o),
(875,1447,o),
(816,1447,c),
(390.525,1396.09,o),
(333,1397,o),
(273,1368,c),
(276,1353,o),
(277,1334,o),
(277,1312,cs),
(277,1177,o),
(266,1003,o),
(256,789,c),
(238,153,l),
(238,86,o),
(244,26,o),
(253,-30,c),
(383,-30,o),
(632,15,o),
(771,15,c),
(837,17,o),
(896,25,o),
(959,32,c),
(958,38,o),
(958,45,o),
(958,51,cs),
(958,72,o),
(960,92,o),
(961,112,cs),
(974,578,l),
(987,835,o),
(985,1010,o),
(1001,1262,c),
(1001,1333,o),
(998,1393,o),
(990,1449,c)
);
},
{
closed = 1;
nodes = (
(632,-510,o),
(711,-596,o),
(841,-596,cs),
(896,-596,o),
(965,-591,o),
(1017,-565,c),
(1025,-557,o),
(1037,-449,o),
(1037,-412,c),
(983,-431,o),
(955,-438,o),
(884,-438,cs),
(837,-438,o),
(813,-412,o),
(813,-377,cs),
(813,-370,o),
(814,-363,o),
(816,-356,cs),
(854,-209,o),
(974,-113,o),
(1065,-17,c),
(1057,-17,o),
(1013,-18,o),
(970,-18,cs),
(886,-18,l),
(763,-101,o),
(643,-226,o),
(632,-386,c)
);
}
);
};
layerId = m001;
shapes = (
{
ref = I;
},
{
pos = (252,46);
ref = ogonekcomb;
}
);
width = 1183;
}
);
unicode = 302;
},
{
glyphname = J;
lastChange = "2023-07-05 14:32:28 +0000";
layers = (
{
anchors = (
{
name = bottom;
pos = (682,0);
},
{
name = top;
pos = (842,1465);
}
);
background = {
anchors = (
{
name = top;
pos = (682,1465);
}
);
shapes = (
{
closed = 1;
nodes = (
(1154,1450,o),
(1097,1447,o),
(1043,1447,c),
(574,1408,l),
(514,1408,o),
(458,1406,o),
(405,1401,c),
(408,1349,o),
(408,1296,o),
(409,1247,c),
(409,997.979,o),
(407,729.314,o),
(407,689,cs),
(407,413,o),
(317,274,o),
(96,236,c),
(203,21,o),
(285,-109,o),
(298,-129,c),
(694,-96,o),
(954,25,o),
(1105,284,c),
(1175,402,o),
(1177,569,o),
(1191,854,cs),
(1214,1315,l),
(1213,1364,o),
(1213,1409,o),
(1209,1452,c)
);
}
);
};
layerId = m001;
shapes = (
{
closed = 1;
nodes = (
(694,-96,o),
(954,25,o),
(1105,284,cs),
(1175,402,o),
(1177,569,o),
(1191,854,cs),
(1214,1315,l),
(1213,1364,o),
(1213,1409,o),
(1209,1452,c),
(1154,1450,o),
(1097,1447,o),
(1043,1447,c),
(574,1408,l),
(514,1408,o),
(458,1406,o),
(405,1401,c),
(408,1349,o),
(408,1296,o),
(409,1247,cs),
(409,998,o),
(407,729,o),
(407,689,cs),
(407,413,o),
(317,274,o),
(96,236,c),
(203,21,o),
(285,-109,o),
(298,-129,c)
);
}
);
width = 1363;
}
);
unicode = 74;
},
{
glyphname = K;
lastChange = "2023-07-05 14:32:28 +0000";
layers = (
{
anchors = (
{
name = bottom;
pos = (1166,0);
},
{
name = top;
pos = (1166,1465);
}
);
background = {
anchors = (
{
name = bottom;
pos = (1166,0);
},
{
name = top;
pos = (1166,1465);
}
);
shapes = (
{
closed = 1;
nodes = (
(2158,1248,o),
(2155,1249,o),
(2154,1251,c),
(2154,1249,l),
(1782,1368,l),
(1430,1491,l),
(1365,1415,l),
(950,891,l),
(954,1008,o),
(957,1125,o),
(967,1262,c),
(967,1333,o),
(964,1393,o),
(955,1449,c),
(923,1449,o),
(891,1450,o),
(858,1450,cs),
(694,1450,o),
(279,1397,o),
(217,1368,c),
(220,1353,o),
(221,1334,o),
(221,1312,cs),
(221,1177,o),
(210,1003,o),
(200,789,c),
(181,153,l),
(181,86,o),
(187,26,o),
(196,-30,c),
(330,-30,o),
(859,26,o),
(923,32,c),
(923,36,ls),
(923,56,o),
(937,371,o),
(939,532,c),
(1020,446,o),
(1294,200,o),
(1459,61,c),
(1632,-81,l),
(1738,-27,l),
(2293,202,l),
(1637,716,l),
(2027,1108,l),
(2154,1242,l),
(2154,1249,l),
(2158,1248,l)
);
}
);
};
layerId = m001;
shapes = (
{
closed = 1;
nodes = (
(1738,-27,l),
(2293,202,l),
(1637,716,l),
(2027,1108,l),
(2154,1242,l),
(2154,1249,l),
(2158,1248,l),
(2158,1248,o),
(2155,1249,o),
(2154,1251,c),
(2154,1249,l),
(1782,1368,l),
(1430,1491,l),
(1365,1415,l),
(950,891,l),
(954,1008,o),
(957,1125,o),
(967,1262,c),
(967,1333,o),
(964,1393,o),
(955,1449,c),
(923,1449,o),
(891,1450,o),
(858,1450,cs),
(694,1450,o),
(279,1397,o),
(217,1368,c),
(220,1353,o),
(221,1334,o),
(221,1312,cs),
(221,1177,o),
(210,1003,o),
(200,789,cs),
(181,153,ls),
(181,86,o),
(187,26,o),
(196,-30,c),
(330,-30,o),
(859,26,o),
(923,32,c),
(923,36,ls),
(923,56,o),
(937,371,o),
(939,532,c),
(1020,446,o),
(1294,200,o),
(1459,61,cs),
(1632,-81,l)
);
}
);
width = 2332;
}
);
unicode = 75;
},
{
glyphname = L;
lastChange = "2023-07-05 14:32:28 +0000";
layers = (
{
anchors = (
{
name = bottom;
pos = (968,0);
},
{
name = center;
pos = (968,733);
},
{
name = top;
pos = (725,1460);
},
{
name = topright;
pos = (1370,1508);
}
);
background = {
anchors = (
{
name = bottom;
pos = (968,0);
},
{
name = top;
pos = (968,1465);
}
);
shapes = (
{
closed = 1;
nodes = (
(239,-20,o),
(274,-22,o),
(359,-22,cs),
(517,-21,o),
(799,-20,o),
(1075,-20,cs),
(1442,-20,o),
(1796,-21,o),
(1829,-21,c),
(1861,200,l),
(1876,279,o),
(1877,323,o),
(1877,367,c),
(1820,376,o),
(1759,380,o),
(1688,380,cs),
(1683,380,o),
(1676,379,o),
(1668,378,cs),
(903,360,l),
(922,624,o),
(935,758,o),
(942,950,c),
(965,1450,l),
(565,1470,o),
(323,1440,o),
(221,1405,c),
(207,1208,o),
(186,659,o),
(180,570,c),
(164,243,l),
(168,-15,l)
);
}
);
};
layerId = m001;
shapes = (
{
closed = 1;
nodes = (
(517,-21,o),
(799,-20,o),
(1075,-20,cs),
(1442,-20,o),
(1796,-21,o),
(1829,-21,c),
(1861,200,l),
(1876,279,o),
(1877,323,o),
(1877,367,c),
(1820,376,o),
(1759,380,o),
(1688,380,cs),
(1683,380,o),
(1676,379,o),
(1668,378,c),
(903,360,l),
(922,624,o),
(935,758,o),
(942,950,cs),
(965,1450,l),
(565,1470,o),
(323,1440,o),
(221,1405,c),
(207,1208,o),
(186,659,o),
(180,570,cs),
(164,243,l),
(168,-15,l),
(239,-20,o),
(274,-22,o),
(359,-22,cs)
);
}
);
width = 1936;
}
);
unicode = 76;
},
{
glyphname = Lacute;
lastChange = "2023-07-05 14:32:28 +0000";
layers = (
{
background = {
anchors = (
{
name = bottom;
pos = (968,0);
},
{
name = top;
pos = (968,1465);
}
);
shapes = (
{
closed = 1;
nodes = (
(239,-20,o),
(274,-22,o),
(359,-22,cs),
(517,-21,o),
(799,-20,o),
(1075,-20,cs),
(1442,-20,o),
(1796,-21,o),
(1829,-21,c),
(1861,200,l),
(1876,279,o),
(1877,323,o),
(1877,367,c),
(1820,376,o),
(1759,380,o),
(1688,380,cs),
(1683,380,o),
(1676,379,o),
(1668,378,cs),
(903,360,l),
(922,624,o),
(935,758,o),
(942,950,c),
(965,1450,l),
(565,1470,o),
(323,1440,o),
(221,1405,c),
(207,1208,o),
(186,659,o),
(180,570,c),
(164,243,l),
(168,-15,l)
);
},
{
closed = 1;
nodes = (
(837,1645,o),
(839,1644,o),
(839,1644,c),
(925,1709,o),
(1171,1910,o),
(1272,1991,c),
(1225,2005,o),
(974,2077,o),
(928,2089,c),
(906,2058,o),
(746,1821,o),
(665,1686,c),
(701,1677,o),
(818,1648,o),
(836,1645,cs)
);
}
);
};
layerId = m001;
shapes = (
{
ref = L;
},
{
pos = (358,434);
ref = acutecomb;
}
);
width = 1936;
}
);
unicode = 313;
},
{
glyphname = Lcaron;
lastChange = "2023-07-05 14:32:28 +0000";
layers = (
{
background = {
anchors = (
{
name = bottom;
pos = (968,0);
},
{
name = top;
pos = (968,1465);
}
);
shapes = (
{
closed = 1;
nodes = (
(239,-20,o),
(274,-22,o),
(359,-22,cs),
(517,-21,o),
(799,-20,o),
(1075,-20,cs),
(1442,-20,o),
(1796,-21,o),
(1829,-21,c),
(1861,200,l),
(1876,279,o),
(1877,323,o),
(1877,367,c),
(1820,376,o),
(1759,380,o),
(1688,380,cs),
(1683,380,o),
(1676,379,o),
(1668,378,cs),
(903,360,l),
(922,624,o),
(935,758,o),
(942,950,c),
(965,1450,l),
(565,1470,o),
(323,1440,o),
(221,1405,c),
(207,1208,o),
(186,659,o),
(180,570,c),
(164,243,l),
(168,-15,l)
);
},
{
closed = 1;
nodes = (
(464,2221,o),
(462,2217,o),
(462,2211,cs),
(462,2204,o),
(465,2196,o),
(471,2186,cs),
(568,2029,o),
(798,1686,o),
(800,1686,c),
(803,1684,o),
(810,1684,o),
(814,1684,cs),
(992,1684,l),
(993,1683,o),
(996,1682,o),
(998,1682,cs),
(1002,1682,o),
(1006,1684,o),
(1010,1688,cs),
(1150,1851,o),
(1295,2018,o),
(1445,2186,c),
(1466,2205,o),
(1474,2219,o),
(1474,2229,cs),
(1474,2232,o),
(1473,2234,o),
(1472,2237,c),
(1473,2238,o),
(1473,2240,o),
(1473,2242,cs),
(1473,2275,o),
(1308,2344,o),
(1265,2376,c),
(1224,2397,o),
(1204,2404,o),
(1196,2404,c),
(1196,2404,o),
(1195,2403,o),
(1195,2402,cs),
(1196,2401,l),
(1112,2286,o),
(1023,2177,o),
(937,2065,c),
(789,2375,l),
(780,2397,o),
(777,2405,o),
(772,2405,cs),
(744,2405,o),
(466,2269,o),
(466,2228,cs),
(466,2227,o),
(466,2226,o),
(467,2225,c)
);
}
);
};
layerId = m001;
shapes = (
{
ref = L;
},
{
pos = (1217,-46);
ref = caroncomb.alt;
}
);
width = 1936;
}
);
unicode = 317;
},
{
glyphname = Lslash;
lastChange = "2023-07-05 14:32:28 +0000";
layers = (
{
background = {
anchors = (
{
name = bottom;
pos = (968,0);
},
{
name = top;
pos = (968,1465);
}
);
shapes = (
{
closed = 1;
nodes = (
(239,-20,o),
(274,-22,o),
(359,-22,cs),
(517,-21,o),
(799,-20,o),
(1075,-20,cs),
(1442,-20,o),
(1796,-21,o),
(1829,-21,c),
(1861,200,l),
(1876,279,o),
(1877,323,o),
(1877,367,c),
(1820,376,o),
(1759,380,o),
(1688,380,cs),
(1683,380,o),
(1676,379,o),
(1668,378,cs),
(903,360,l),
(922,624,o),
(935,758,o),
(942,950,c),
(965,1450,l),
(565,1470,o),
(323,1440,o),
(221,1405,c),
(207,1208,o),
(186,659,o),
(180,570,c),
(164,243,l),
(168,-15,l)
);
},
{
closed = 1;
nodes = (
(251,526,l),
(405,526,l),
(536,526,o),
(1004,532,o),
(1314,538,c),
(1325,588,o),
(1350,853,o),
(1350,881,c),
(1350,915,l),
(1080,907,o),
(581,897,o),
(314,887,c)
);
}
);
};
layerId = m001;
shapes = (
{
closed = 1;
nodes = (
(1111,771,ls),
(1128,777,o),
(1147,781,o),
(1163,817,cs),
(1179,854,o),
(1199,1091,o),
(1199,1127,cs),
(1199,1164,o),
(1166,1154,o),
(1149,1148,cs),
(45,766,ls),
(35,763,o),
(15,748,o),
(13,719,cs),
(-5,454,ls),
(-8,416,o),
(14,412,o),
(53,425,cs)
);
},
{
ref = L;
}
);
width = 1936;
}
);
unicode = 321;
},
{
glyphname = M;
lastChange = "2023-07-05 14:32:28 +0000";
layers = (
{
anchors = (
{
name = bottom;
pos = (1344,0);
},
{
name = top;
pos = (1344,1465);
}
);
background = {
shapes = (
{
closed = 1;
nodes = (
(134,17,l),
(238,2,o),
(448,-9,o),
(591,-9,cs),
(670,-9,o),
(740,-7,o),
(807,-4,c),
(880,635,l),
(977,419,o),
(1177,23,o),
(1177,23,c),
(1269,18,o),
(1445,21,o),
(1470,21,c),
(1876,673,l),
(1893,518,l),
(1906,366,o),
(1939,-29,o),
(1939,-29,c),
(2099,-29,o),
(2395,2,o),
(2557,13,c),
(2550,136,l),
(2521,580,l),
(2515,798,o),
(2498,1035,o),
(2472,1427,c),
(1725,1474,l),
(1331,779,l),
(1009,1370,l),
(973,1447,l),
(830.919,1436.51,o),
(286.023,1426.93,o),
(225.321,1426.93,cs),
(222.365,1426.93,o),
(220.557,1426.95,o),
(220,1427,c),
(170,471,o),
(160,306,o),
(147,173,c)
);
}
);
};
layerId = m001;
shapes = (
{
closed = 1;
nodes = (
(2099,-29,o),
(2395,2,o),
(2557,13,c),
(2550,136,l),
(2521,580,l),
(2515,798,o),
(2498,1035,o),
(2472,1427,c),
(1725,1474,l),
(1331,779,l),
(1009,1370,l),
(973,1447,l),
(831,1437,o),
(286,1427,o),
(225,1427,cs),
(220,1427,l),
(170,471,o),
(160,306,o),
(147,173,cs),
(134,17,l),
(238,2,o),
(448,-9,o),
(591,-9,cs),
(670,-9,o),
(740,-7,o),
(807,-4,c),
(880,635,l),
(977,419,o),
(1177,23,o),
(1177,23,c),
(1269,18,o),
(1445,21,o),
(1470,21,c),
(1876,673,l),
(1893,518,l),
(1939,-29,l)
);
}
);
width = 2687;
}
);
unicode = 77;
},
{
glyphname = N;
kernLeft = N;
kernRight = N;
lastChange = "2023-07-05 14:32:28 +0000";
layers = (
{
anchors = (
{
name = bottom;
pos = (1184,0);
},
{
name = top;
pos = (1184,1465);
}
);
background = {
anchors = (
{
name = bottom;
pos = (1184,0);
},
{
name = top;
pos = (1184,1465);
}
);
shapes = (
{
closed = 1;
nodes = (
(187,1358.33,o),
(187.444,1248.33,o),
(187.444,1166.19,cs),
(187.444,1125.11,o),
(187.333,1091,o),
(187,1077,cs),
(176,762,o),
(165,427,o),
(154,137,c),
(154,75,o),
(161,21,o),
(169,-29,c),
(375,-29,o),
(622,22,o),
(773,32,c),
(772.795,34.257,o),
(772.632,36.473,o),
(772.632,43.494,cs),
(772.632,70.687,o),
(775.078,169.971,o),
(787,623,c),
(1532,-45,l),
(2058,50,o),
(2140,47,o),
(2229,62,c),
(2218,113,o),
(2217,169,o),
(2217,228,cs),
(2217,229,l),
(2220,455,ls),
(2222,616,o),
(2224,808,o),
(2224,958,cs),
(2224,1058,o),
(2226,1201,o),
(2233,1278,c),
(2233,1342,o),
(2228,1397,o),
(2222,1447,c),
(2172,1447,o),
(2120,1446,o),
(2071,1445,c),
(1636,1420,l),
(1624,1380,o),
(1623,1334,o),
(1620,1279,c),
(1620,839,l),
(1468,1016,o),
(1098,1433,o),
(1066,1470,c),
(187,1391,l)
);
}
);
};
layerId = m001;
shapes = (
{
closed = 1;
nodes = (
(2058,50,o),
(2140,47,o),
(2229,62,c),
(2218,113,o),
(2217,169,o),
(2217,228,cs),
(2217,229,l),
(2220,455,ls),
(2222,616,o),
(2224,808,o),
(2224,958,cs),
(2224,1058,o),
(2226,1201,o),
(2233,1278,c),
(2233,1342,o),
(2228,1397,o),
(2222,1447,c),
(2172,1447,o),
(2120,1446,o),
(2071,1445,cs),
(1636,1420,l),
(1624,1380,o),
(1623,1334,o),
(1620,1279,c),
(1620,839,l),
(1468,1016,o),
(1098,1433,o),
(1066,1470,c),
(187,1391,l),
(187,1358,o),
(187,1248,o),
(187,1166,cs),
(187,1077,l),
(176,762,o),
(165,427,o),
(154,137,cs),
(154,75,o),
(161,21,o),
(169,-29,c),
(375,-29,o),
(622,22,o),
(773,32,c),
(773,43,ls),
(773,71,o),
(775,170,o),
(787,623,c),
(1532,-45,l)
);
}
);
width = 2368;
}
);
unicode = 78;
},
{
glyphname = Nacute;
lastChange = "2023-07-05 14:32:28 +0000";
layers = (
{
background = {
anchors = (
{
name = bottom;
pos = (1184,0);
},
{
name = top;
pos = (1184,1465);
}
);
shapes = (
{
closed = 1;
nodes = (
(187,1358.33,o),
(187.444,1248.33,o),
(187.444,1166.19,cs),
(187.444,1125.11,o),
(187.333,1091,o),
(187,1077,cs),
(176,762,o),
(165,427,o),
(154,137,c),
(154,75,o),
(161,21,o),
(169,-29,c),
(375,-29,o),
(622,22,o),
(773,32,c),
(772.795,34.257,o),
(772.632,36.473,o),
(772.632,43.494,cs),
(772.632,70.687,o),
(775.078,169.971,o),
(787,623,c),
(1532,-45,l),
(2058,50,o),
(2140,47,o),
(2229,62,c),
(2218,113,o),
(2217,169,o),
(2217,228,cs),
(2217,229,l),
(2220,455,ls),
(2222,616,o),
(2224,808,o),
(2224,958,cs),
(2224,1058,o),
(2226,1201,o),
(2233,1278,c),
(2233,1342,o),
(2228,1397,o),
(2222,1447,c),
(2172,1447,o),
(2120,1446,o),
(2071,1445,c),
(1636,1420,l),
(1624,1380,o),
(1623,1334,o),
(1620,1279,c),
(1620,839,l),
(1468,1016,o),
(1098,1433,o),
(1066,1470,c),
(187,1391,l)
);
},
{
closed = 1;
nodes = (
(1053,1645,o),
(1055,1644,o),
(1055,1644,c),
(1141,1709,o),
(1387,1910,o),
(1488,1991,c),
(1441,2005,o),
(1190,2077,o),
(1144,2089,c),
(1122,2058,o),
(962,1821,o),
(881,1686,c),
(917,1677,o),
(1034,1648,o),
(1052,1645,cs)
);
}
);
};
layerId = m001;
shapes = (
{
ref = N;
},
{
pos = (817,439);
ref = acutecomb;
}
);
width = 2368;
}
);
unicode = 323;
},
{
glyphname = Ncaron;
lastChange = "2023-07-05 14:32:28 +0000";
layers = (
{
background = {
anchors = (
{
name = bottom;
pos = (1184,0);
},
{
name = top;
pos = (1184,1465);
}
);
shapes = (
{
closed = 1;
nodes = (
(187,1358.33,o),
(187.444,1248.33,o),
(187.444,1166.19,cs),
(187.444,1125.11,o),
(187.333,1091,o),
(187,1077,cs),
(176,762,o),
(165,427,o),
(154,137,c),
(154,75,o),
(161,21,o),
(169,-29,c),
(375,-29,o),
(622,22,o),
(773,32,c),
(772.795,34.257,o),
(772.632,36.473,o),
(772.632,43.494,cs),
(772.632,70.687,o),
(775.078,169.971,o),
(787,623,c),
(1532,-45,l),
(2058,50,o),
(2140,47,o),
(2229,62,c),
(2218,113,o),
(2217,169,o),
(2217,228,cs),
(2217,229,l),
(2220,455,ls),
(2222,616,o),
(2224,808,o),
(2224,958,cs),
(2224,1058,o),
(2226,1201,o),
(2233,1278,c),
(2233,1342,o),
(2228,1397,o),
(2222,1447,c),
(2172,1447,o),
(2120,1446,o),
(2071,1445,c),
(1636,1420,l),
(1624,1380,o),
(1623,1334,o),
(1620,1279,c),
(1620,839,l),
(1468,1016,o),
(1098,1433,o),
(1066,1470,c),
(187,1391,l)
);
},
{
closed = 1;
nodes = (
(680,2221,o),
(678,2217,o),
(678,2211,cs),
(678,2204,o),
(681,2196,o),
(687,2186,cs),
(784,2029,o),
(1014,1686,o),
(1016,1686,c),
(1019,1684,o),
(1026,1684,o),
(1030,1684,cs),
(1208,1684,l),
(1209,1683,o),
(1212,1682,o),
(1214,1682,cs),
(1218,1682,o),
(1222,1684,o),
(1226,1688,cs),
(1366,1851,o),
(1511,2018,o),
(1661,2186,c),
(1682,2205,o),
(1690,2219,o),
(1690,2229,cs),
(1690,2232,o),
(1689,2234,o),
(1688,2237,c),
(1689,2238,o),
(1689,2240,o),
(1689,2242,cs),
(1689,2275,o),
(1524,2344,o),
(1481,2376,c),
(1440,2397,o),
(1420,2404,o),
(1412,2404,c),
(1412,2404,o),
(1411,2403,o),
(1411,2402,cs),
(1412,2401,l),
(1328,2286,o),
(1239,2177,o),
(1153,2065,c),
(1005,2375,l),
(996,2397,o),
(993,2405,o),
(988,2405,cs),
(960,2405,o),
(682,2269,o),
(682,2228,cs),
(682,2227,o),
(682,2226,o),
(683,2225,c)
);
}
);
};
layerId = m001;
shapes = (
{
ref = N;
},
{
pos = (666,439);
ref = caroncomb;
}
);
width = 2368;
}
);
unicode = 327;
},
{
glyphname = Ntilde;
kernLeft = N;
kernRight = N;
lastChange = "2023-07-05 14:32:28 +0000";
layers = (
{
background = {
anchors = (
{
name = bottom;
pos = (1184,0);
},
{
name = top;
pos = (1184,1465);
}
);
shapes = (
{
closed = 1;
nodes = (
(187,1358.33,o),
(187.444,1248.33,o),
(187.444,1166.19,cs),
(187.444,1125.11,o),
(187.333,1091,o),
(187,1077,cs),
(176,762,o),
(165,427,o),
(154,137,c),
(154,75,o),
(161,21,o),
(169,-29,c),
(375,-29,o),
(622,22,o),
(773,32,c),
(772.795,34.257,o),
(772.632,36.473,o),
(772.632,43.494,cs),
(772.632,70.687,o),
(775.078,169.971,o),
(787,623,c),
(1532,-45,l),
(2058,50,o),
(2140,47,o),
(2229,62,c),
(2218,113,o),
(2217,169,o),
(2217,228,cs),
(2217,229,l),
(2220,455,ls),
(2222,616,o),
(2224,808,o),
(2224,958,cs),
(2224,1058,o),
(2226,1201,o),
(2233,1278,c),
(2233,1342,o),
(2228,1397,o),
(2222,1447,c),
(2172,1447,o),
(2120,1446,o),
(2071,1445,c),
(1636,1420,l),
(1624,1380,o),
(1623,1334,o),
(1620,1279,c),
(1620,839,l),
(1468,1016,o),
(1098,1433,o),
(1066,1470,c),
(187,1391,l)
);
},
{
closed = 1;
nodes = (
(1210,2137,o),
(1134,2143,o),
(1028,2143,cs),
(840,2143,o),
(686,1974,o),
(686,1723,cs),
(686,1711,o),
(701,1706,o),
(716,1706,cs),
(796,1706,o),
(802,1709,o),
(887,1709,cs),
(904,1709,o),
(916,1721,o),
(916,1732,cs),
(916,1783,o),
(932,1842,o),
(995,1842,cs),
(1029,1842,o),
(1053,1837,o),
(1075,1805,cs),
(1162,1678,o),
(1244,1653,o),
(1330,1653,cs),
(1541,1653,o),
(1683,1875,o),
(1683,2067,cs),
(1683,2082,o),
(1668,2086,o),
(1657,2086,cs),
(1640,2086,o),
(1460,2077,o),
(1453,2077,cs),
(1428,2077,o),
(1452,1970,o),
(1369,1970,cs),
(1340,1970,o),
(1320,1983,o),
(1295,2018,cs)
);
}
);
};
layerId = m001;
shapes = (
{
ref = N;
},
{
pos = (622,439);
ref = tildecomb;
}
);
width = 2368;
}
);
unicode = 209;
},
{
glyphname = Eng;
lastChange = "2023-07-05 14:32:28 +0000";
layers = (
{
anchors = (
{
name = bottom;
pos = (1184,0);
},
{
name = top;
pos = (1184,1465);
}
);
layerId = m001;
shapes = (
{
closed = 1;
nodes = (
(1933,-618,o),
(2171,-480,o),
(2192,-67,cs),
(2194,7,ls),
(2219,504,o),
(2224,330,o),
(2224,958,cs),
(2224,1058,o),
(2226,1201,o),
(2233,1278,c),
(2233,1342,o),
(2228,1397,o),
(2222,1447,c),
(2172,1447,o),
(2120,1446,o),
(2071,1445,cs),
(1636,1420,l),
(1624,1380,o),
(1623,1334,o),
(1620,1279,c),
(1620,839,l),
(1468,1016,o),
(1098,1433,o),
(1066,1470,c),
(187,1391,l),
(187,1166,l),
(187,1077,l),
(176,762,o),
(165,427,o),
(154,137,cs),
(154,75,o),
(161,21,o),
(169,-29,c),
(375,-29,o),
(622,22,o),
(773,32,c),
(773,43,ls),
(773,71,o),
(775,170,o),
(787,623,c),
(1599,-33,l),
(1567,-265,o),
(1470,-293,o),
(1336,-293,cs),
(1303,-293,o),
(1266,-291,o),
(1228,-289,c),
(1228,-316,o),
(1193,-585,o),
(1193,-608,cs),
(1193,-609,l),
(1226,-611,o),
(1430,-618,o),
(1523,-618,cs)
);
}
);
width = 2333;
}
);
metricRight = j;
unicode = 330;
},
{
glyphname = O;
kernLeft = O;
kernRight = O;
lastChange = "2023-07-05 14:32:28 +0000";
layers = (
{
anchors = (
{
name = bottom;
pos = (1283,0);
},
{
name = center;
pos = (1283,733);
},
{
name = ogonek;
pos = (2309,10);
},
{
name = top;
pos = (1283,1465);
},
{
name = topleft;
pos = (20,1465);
},
{
name = topright;
pos = (2545,1465);
}
);
background = {
anchors = (
{
name = top;
pos = (1283,1465);
}
);
shapes = (
{
closed = 1;
nodes = (
(1066,361,o),
(927,454,o),
(927,705,c),
(929,944,o),
(1069,1066,o),
(1294,1066,cs),
(1503,1066,o),
(1646,989,o),
(1646,742,cs),
(1646,484,o),
(1514,368,o),
(1283,361,c)
);
},
{
closed = 1;
nodes = (
(1757,-45,o),
(2439,113,o),
(2439,753,cs),
(2439,1340.29,o),
(1808,1481,o),
(1278.01,1481.34,cs),
(977,1481,o),
(126,1344.29,o),
(126,689,cs),
(126,106,o),
(747,-45,o),
(1235,-45,cs)
);
}
);
};
layerId = m001;
shapes = (
{
closed = 1;
nodes = (
(1757,-45,o),
(2439,113,o),
(2439,753,cs),
(2439,1340,o),
(1808,1481,o),
(1278,1481,cs),
(977,1481,o),
(126,1344,o),
(126,689,cs),
(126,106,o),
(747,-45,o),
(1235,-45,cs)
);
},
{
closed = 1;
nodes = (
(1066,354,o),
(927,454,o),
(927,705,cs),
(927,944,o),
(1069,1066,o),
(1294,1066,cs),
(1503,1066,o),
(1646,989,o),
(1646,742,cs),
(1646,484,o),
(1514,368,o),
(1283,361,cs)
);
}
);
width = 2565;
}
);
unicode = 79;
},
{
glyphname = Oacute;
kernLeft = O;
kernRight = O;
lastChange = "2023-07-05 14:32:28 +0000";
layers = (
{
background = {
anchors = (
{
name = top;
pos = (1283,1465);
}
);
shapes = (
{
closed = 1;
nodes = (
(1066,361,o),
(927,454,o),
(927,705,c),
(929,944,o),
(1069,1066,o),
(1294,1066,cs),
(1503,1066,o),
(1646,989,o),
(1646,742,cs),
(1646,484,o),
(1514,368,o),
(1283,361,c)
);
},
{
closed = 1;
nodes = (
(1757,-45,o),
(2439,113,o),
(2439,753,cs),
(2439,1340.29,o),
(1808,1481,o),
(1278.01,1481.34,cs),
(977,1481,o),
(126,1344.29,o),
(126,689,cs),
(126,106,o),
(747,-45,o),
(1235,-45,cs)
);
},
{
closed = 1;
nodes = (
(1152,1645,o),
(1154,1644,o),
(1154,1644,c),
(1240,1709,o),
(1486,1910,o),
(1587,1991,c),
(1540,2005,o),
(1289,2077,o),
(1243,2089,c),
(1221,2058,o),
(1061,1821,o),
(980,1686,c),
(1016,1677,o),
(1133,1648,o),
(1151,1645,cs)
);
}
);
};
layerId = m001;
shapes = (
{
ref = O;
},
{
pos = (916,439);
ref = acutecomb;
}
);
width = 2565;
}
);
unicode = 211;
},
{
glyphname = Ocircumflex;
kernLeft = O;
kernRight = O;
lastChange = "2023-07-05 14:32:28 +0000";
layers = (
{
background = {
anchors = (
{
name = top;
pos = (1283,1465);
}
);
shapes = (
{
closed = 1;
nodes = (
(1066,361,o),
(927,454,o),
(927,705,c),
(929,944,o),
(1069,1066,o),
(1294,1066,cs),
(1503,1066,o),
(1646,989,o),
(1646,742,cs),
(1646,484,o),
(1514,368,o),
(1283,361,c)
);
},
{
closed = 1;
nodes = (
(1757,-45,o),
(2439,113,o),
(2439,753,cs),
(2439,1340.29,o),
(1808,1481,o),
(1278.01,1481.34,cs),
(977,1481,o),
(126,1344.29,o),
(126,689,cs),
(126,106,o),
(747,-45,o),
(1235,-45,cs)
);
},
{
closed = 1;
nodes = (
(1125,1682,o),
(1239,1811,o),
(1298,1860,c),
(1336,1809,o),
(1375,1760,o),
(1413,1710,c),
(1440,1687,o),
(1464,1671,o),
(1490,1660,c),
(1525,1660,o),
(1678,1699,o),
(1715,1720,c),
(1700,1747,o),
(1659,1792,o),
(1639,1815,cs),
(1572,1890,o),
(1457,2030,o),
(1418,2067,c),
(1401,2069,o),
(1383,2069,o),
(1364,2069,cs),
(1337,2069,o),
(1309,2070,o),
(1282,2070,cs),
(1249,2070,o),
(1216,2068,o),
(1185,2060,c),
(1140,2012,o),
(1098,1967,o),
(1052,1921,cs),
(928,1795,ls),
(898,1764,o),
(872,1741,o),
(852,1716,c),
(889,1708,o),
(1021,1661,o),
(1069,1661,c)
);
}
);
};
layerId = m001;
shapes = (
{
ref = O;
},
{
pos = (781,439);
ref = circumflexcomb;
}
);
width = 2565;
}
);
unicode = 212;
},
{
glyphname = Odblgrave;
kernLeft = O;
kernRight = O;
lastChange = "2023-07-05 14:32:28 +0000";
layers = (
{
background = {
anchors = (
{
name = top;
pos = (1283,1465);
}
);
shapes = (
{
closed = 1;
nodes = (
(1066,361,o),
(927,454,o),
(927,705,c),
(929,944,o),
(1069,1066,o),
(1294,1066,cs),
(1503,1066,o),
(1646,989,o),
(1646,742,cs),
(1646,484,o),
(1514,368,o),
(1283,361,c)
);
},
{
closed = 1;
nodes = (
(1757,-45,o),
(2439,113,o),
(2439,753,cs),
(2439,1340.29,o),
(1808,1481,o),
(1278.01,1481.34,cs),
(977,1481,o),
(126,1344.29,o),
(126,689,cs),
(126,106,o),
(747,-45,o),
(1235,-45,cs)
);
}
);
};
layerId = m001;
shapes = (
{
ref = O;
},
{
pos = (759,439);
ref = dblgravecomb;
}
);
width = 2565;
}
);
unicode = 524;
},
{
glyphname = Odieresis;
kernLeft = O;
kernRight = O;
lastChange = "2023-07-05 14:32:28 +0000";
layers = (
{
background = {
anchors = (
{
name = top;
pos = (1283,1465);
}
);
shapes = (
{
closed = 1;
nodes = (
(1066,361,o),
(927,454,o),
(927,705,c),
(929,944,o),
(1069,1066,o),
(1294,1066,cs),
(1503,1066,o),
(1646,989,o),
(1646,742,cs),
(1646,484,o),
(1514,368,o),
(1283,361,c)
);
},
{
closed = 1;
nodes = (
(1757,-45,o),
(2439,113,o),
(2439,753,cs),
(2439,1340.29,o),
(1808,1481,o),
(1278.01,1481.34,cs),
(977,1481,o),
(126,1344.29,o),
(126,689,cs),
(126,106,o),
(747,-45,o),
(1235,-45,cs)
);
},
{
closed = 1;
nodes = (
(1789,1658,l),
(1789,2015,l),
(1770,2015,l),
(1417,2015,l),
(1409,1659,l),
(1737,1658,l)
);
},
{
closed = 1;
nodes = (
(777,1657,o),
(780,1657,o),
(787,1657,cs),
(904,1657,o),
(1011,1659,o),
(1158,1659,c),
(1163,2017,l),
(1145,2017,ls),
(1045,2017,o),
(921,2015,o),
(817,2015,cs),
(790,2015,l),
(777,1667,l),
(777,1664,ls)
);
}
);
};
layerId = m001;
shapes = (
{
ref = O;
},
{
pos = (688,439);
ref = dieresiscomb;
}
);
width = 2565;
}
);
unicode = 214;
},
{
glyphname = Ograve;
kernLeft = O;
kernRight = O;
lastChange = "2023-07-05 14:32:28 +0000";
layers = (
{
background = {
anchors = (
{
name = top;
pos = (1283,1465);
}
);
shapes = (
{
closed = 1;
nodes = (
(1066,361,o),
(927,454,o),
(927,705,c),
(929,944,o),
(1069,1066,o),
(1294,1066,cs),
(1503,1066,o),
(1646,989,o),
(1646,742,cs),
(1646,484,o),
(1514,368,o),
(1283,361,c)
);
},
{
closed = 1;
nodes = (
(1757,-45,o),
(2439,113,o),
(2439,753,cs),
(2439,1340.29,o),
(1808,1481,o),
(1278.01,1481.34,cs),
(977,1481,o),
(126,1344.29,o),
(126,689,cs),
(126,106,o),
(747,-45,o),
(1235,-45,cs)
);
},
{
closed = 1;
nodes = (
(1348,2109,l),
(1345,2109,ls),
(1340,2109,o),
(1059,2018,o),
(998,1999,c),
(1415,1634,l),
(1443,1645,l),
(1568,1690,l)
);
}
);
};
layerId = m001;
shapes = (
{
ref = O;
},
{
pos = (973,439);
ref = gravecomb;
}
);
width = 2565;
}
);
unicode = 210;
},
{
glyphname = Ohungarumlaut;
lastChange = "2023-07-05 14:32:28 +0000";
layers = (
{
background = {
anchors = (
{
name = top;
pos = (1283,1465);
}
);
shapes = (
{
closed = 1;
nodes = (
(1066,361,o),
(927,454,o),
(927,705,c),
(929,944,o),
(1069,1066,o),
(1294,1066,cs),
(1503,1066,o),
(1646,989,o),
(1646,742,cs),
(1646,484,o),
(1514,368,o),
(1283,361,c)
);
},
{
closed = 1;
nodes = (
(1757,-45,o),
(2439,113,o),
(2439,753,cs),
(2439,1340.29,o),
(1808,1481,o),
(1278.01,1481.34,cs),
(977,1481,o),
(126,1344.29,o),
(126,689,cs),
(126,106,o),
(747,-45,o),
(1235,-45,cs)
);
},
{
closed = 1;
nodes = (
(1218,2198,l),
(855,2461,l),
(636,1734,l),
(836,1601,l)
);
},
{
closed = 1;
nodes = (
(1931,2187,l),
(1567,2486,l),
(1252,1757,ls),
(1251,1755,o),
(1250,1754,o),
(1250,1752,c),
(1415,1590,l)
);
}
);
};
layerId = m001;
shapes = (
{
ref = O;
},
{
pos = (620,439);
ref = hungarumlautcomb;
}
);
width = 2565;
}
);
unicode = 336;
},
{
glyphname = Oinvertedbreve;
kernLeft = O;
kernRight = O;
lastChange = "2023-07-05 14:32:28 +0000";
layers = (
{
background = {
anchors = (
{
name = top;
pos = (1316.733,1930.34);
}
);
shapes = (
{
closed = 1;
nodes = (
(1066,361,o),
(927,454,o),
(927,705,c),
(929,944,o),
(1069,1066,o),
(1294,1066,cs),
(1503,1066,o),
(1646,989,o),
(1646,742,cs),
(1646,484,o),
(1514,368,o),
(1283,361,c)
);
},
{
closed = 1;
nodes = (
(1757,-45,o),
(2439,113,o),
(2439,753,cs),
(2439,1340.29,o),
(1808,1481,o),
(1278.01,1481.34,cs),
(977,1481,o),
(126,1344.29,o),
(126,689,cs),
(126,106,o),
(747,-45,o),
(1235,-45,cs)
);
},
{
closed = 1;
nodes = (
(1416,1668,o),
(1415,1668,o),
(1415,1665,cs),
(1415,1652,o),
(1428,1644,o),
(1500,1644,cs),
(1590,1644,o),
(1597,1654,o),
(1597,1681,cs),
(1597,1804,o),
(1522,1930,o),
(1341,1930,cs),
(1172,1930,o),
(1037,1843,o),
(1037,1695,cs),
(1037,1663,o),
(1041,1649,o),
(1132,1649,cs),
(1198,1649,o),
(1203,1658,o),
(1206,1672,cs),
(1206,1673,o),
(1205,1674,o),
(1205,1675,cs),
(1205,1714,o),
(1230,1774,o),
(1316,1774,cs),
(1385,1774,o),
(1420,1734,o),
(1420,1698,cs),
(1420,1687,o),
(1417,1678,o),
(1416,1671,cs)
);
}
);
};
layerId = m001;
shapes = (
{
ref = O;
},
{
pos = (947,0);
ref = breveinvertedcomb;
}
);
width = 2565;
}
);
unicode = 526;
},
{
glyphname = Omacron;
lastChange = "2023-07-05 14:32:28 +0000";
layers = (
{
background = {
anchors = (
{
name = top;
pos = (1283,1465);
}
);
shapes = (
{
closed = 1;
nodes = (
(1066,361,o),
(927,454,o),
(927,705,c),
(929,944,o),
(1069,1066,o),
(1294,1066,cs),
(1503,1066,o),
(1646,989,o),
(1646,742,cs),
(1646,484,o),
(1514,368,o),
(1283,361,c)
);
},
{
closed = 1;
nodes = (
(1757,-45,o),
(2439,113,o),
(2439,753,cs),
(2439,1340.29,o),
(1808,1481,o),
(1278.01,1481.34,cs),
(977,1481,o),
(126,1344.29,o),
(126,689,cs),
(126,106,o),
(747,-45,o),
(1235,-45,cs)
);
},
{
closed = 1;
nodes = (
(846,1023,l),
(973,1025,l),
(1081,1025,o),
(1449,1033,o),
(1705,1041,c),
(1707,1075,l),
(1710,1126,o),
(1719,1390,o),
(1721,1467,c),
(888,1449,l)
);
}
);
};
layerId = m001;
shapes = (
{
ref = O;
},
{
pos = (588,439);
ref = macroncomb;
}
);
width = 2565;
}
);
unicode = 332;
},
{
glyphname = Oslash;
lastChange = "2023-07-05 14:32:28 +0000";
layers = (
{
anchors = (
{
name = top;
pos = (1283,1465);
}
);
background = {
anchors = (
{
name = top;
pos = (1283,1465);
}
);
shapes = (
{
closed = 1;
nodes = (
(1827,1628,ls),
(1827,1635,o),
(1820,1638,o),
(1812,1641,cs),
(1650,1703,l),
(1643,1703,l),
(831,-10,l),
(799,-71,o),
(756,-150,o),
(756,-174,c),
(905,-257,ls),
(914,-262,o),
(923,-264,o),
(931,-264,cs),
(951,-264,o),
(949,-243,o),
(960,-220,cs),
(1026,-84,l),
(1827,1625,l)
);
},
{
closed = 1;
nodes = (
(1066,361,o),
(927,454,o),
(927,705,c),
(929,944,o),
(1069,1066,o),
(1294,1066,cs),
(1503,1066,o),
(1646,989,o),
(1646,742,cs),
(1646,484,o),
(1514,368,o),
(1283,361,c)
);
},
{
closed = 1;
nodes = (
(1757,-45,o),
(2439,113,o),
(2439,753,cs),
(2439,1340.29,o),
(1808,1481,o),
(1278.01,1481.34,cs),
(977,1481,o),
(126,1344.29,o),
(126,689,cs),
(126,106,o),
(747,-45,o),
(1235,-45,cs)
);
}
);
};
layerId = m001;
shapes = (
{
closed = 1;
nodes = (
(951,-264,o),
(949,-243,o),
(960,-220,cs),
(1026,-84,l),
(1827,1625,l),
(1827,1628,ls),
(1827,1635,o),
(1820,1638,o),
(1812,1641,cs),
(1650,1703,l),
(1643,1703,l),
(831,-10,l),
(799,-71,o),
(756,-150,o),
(756,-174,c),
(905,-257,ls),
(914,-262,o),
(923,-264,o),
(931,-264,cs)
);
},
{
ref = O;
}
);
width = 2565;
}
);
unicode = 216;
},
{
glyphname = Otilde;
kernLeft = O;
kernRight = O;
lastChange = "2023-07-05 14:32:28 +0000";
layers = (
{
background = {
anchors = (
{
name = top;
pos = (1283,1465);
}
);
shapes = (
{
closed = 1;
nodes = (
(1066,361,o),
(927,454,o),
(927,705,c),
(929,944,o),
(1069,1066,o),
(1294,1066,cs),
(1503,1066,o),
(1646,989,o),
(1646,742,cs),
(1646,484,o),
(1514,368,o),
(1283,361,c)
);
},
{
closed = 1;
nodes = (
(1757,-45,o),
(2439,113,o),
(2439,753,cs),
(2439,1340.29,o),
(1808,1481,o),
(1278.01,1481.34,cs),
(977,1481,o),
(126,1344.29,o),
(126,689,cs),
(126,106,o),
(747,-45,o),
(1235,-45,cs)
);
},
{
closed = 1;
nodes = (
(1309,2137,o),
(1233,2143,o),
(1127,2143,cs),
(939,2143,o),
(785,1974,o),
(785,1723,cs),
(785,1711,o),
(800,1706,o),
(815,1706,cs),
(895,1706,o),
(901,1709,o),
(986,1709,cs),
(1003,1709,o),
(1015,1721,o),
(1015,1732,cs),
(1015,1783,o),
(1031,1842,o),
(1094,1842,cs),
(1128,1842,o),
(1152,1837,o),
(1174,1805,cs),
(1261,1678,o),
(1343,1653,o),
(1429,1653,cs),
(1640,1653,o),
(1782,1875,o),
(1782,2067,cs),
(1782,2082,o),
(1767,2086,o),
(1756,2086,cs),
(1739,2086,o),
(1559,2077,o),
(1552,2077,cs),
(1527,2077,o),
(1551,1970,o),
(1468,1970,cs),
(1439,1970,o),
(1419,1983,o),
(1394,2018,cs)
);
}
);
};
layerId = m001;
shapes = (
{
ref = O;
},
{
pos = (721,439);
ref = tildecomb;
}
);
width = 2565;
}
);
unicode = 213;
},
{
glyphname = OE;
lastChange = "2023-07-05 14:32:28 +0000";
layers = (
{
anchors = (
{
name = bottom;
pos = (1672,0);
},
{
name = top;
pos = (1672,1465);
}
);
background = {
anchors = (
{
name = top;
pos = (1672,1465);
}
);
shapes = (
{
closed = 1;
nodes = (
(927,936,o),
(1053,1088,o),
(1288,1088,cs),
(1385,1088,o),
(1623,1056,o),
(1626,1016,c),
(1626,967,o),
(1625,931,o),
(1625,900,cs),
(1625,827,o),
(1626,782,o),
(1626,669,cs),
(1626,592,o),
(1627,572,o),
(1637,436,c),
(1637,382,o),
(1409,340,o),
(1287,340,cs),
(1059,340,o),
(927,463,o),
(927,705,cs)
);
},
{
closed = 1;
nodes = (
(2896,-23,o),
(3024,-23,o),
(3167,-34,c),
(3191,14,o),
(3201,58,o),
(3202,133,c),
(3211,156,o),
(3247,230,o),
(3247,246,cs),
(3247,248,o),
(3247,249,o),
(3246,249,c),
(3246,350,l),
(2339,350,l),
(2350,548,l),
(2414,549,o),
(2474,550,o),
(2533,550,cs),
(2595,550,ls),
(2729,550,o),
(2853,550,o),
(2984,565,c),
(3007,679,o),
(3029,790,o),
(3029,863,c),
(2971,873,o),
(2904,875,o),
(2840,875,cs),
(2710,875,o),
(2537,873,o),
(2362,871,c),
(2374,1031,l),
(2652,1034,o),
(2945,1034,o),
(3176,1036,c),
(3202,1121,o),
(3228,1344,o),
(3228,1427,c),
(3216,1426,o),
(3204,1426,o),
(3193,1426,cs),
(3153,1426,o),
(3118,1428,o),
(3081,1431,cs),
(2931,1441,o),
(2802,1443,o),
(2705,1445,c),
(2029,1435,o),
(1731,1429,o),
(1513,1417,c),
(1395,1392,l),
(1365,1441,o),
(1324,1443,o),
(1269,1443,cs),
(1250,1443,ls),
(747,1443,o),
(126,1249,o),
(126,698,cs),
(126,181,o),
(617,-17,o),
(1087,-17,cs),
(1208,-17,o),
(1321,1,o),
(1423,34,c),
(1417,4,ls),
(1416,3,o),
(1415,2,o),
(1415,1,cs),
(1415,-13,o),
(1560,-21,o),
(2783,-23,cs)
);
}
);
};
layerId = m001;
shapes = (
{
closed = 1;
nodes = (
(1563,338,o),
(1450,336,o),
(1287,336,cs),
(1056,336,o),
(927,470,o),
(927,687,cs),
(927,796,o),
(949,875,o),
(993,925,cs),
(1014,949,o),
(1039,969,o),
(1068,986,cs),
(1139,1026,o),
(1252,1046,o),
(1405,1046,cs),
(1647,1046,l),
(1626,342,l),
(1626,342,l)
);
},
{
closed = 1;
nodes = (
(901,1440,o),
(621,1367,o),
(410,1220,cs),
(221,1088,o),
(126,914,o),
(126,698,cs),
(126,417,o),
(279,223,o),
(511,116,cs),
(678,39,o),
(870,0,o),
(1087,1,cs),
(3237,-3,l),
(3243,94,o),
(3246,211,o),
(3246,350,c),
(2339,350,l),
(2350,548,l),
(2435,549,o),
(2496,550,o),
(2533,550,cs),
(2595,550,ls),
(2767,550,o),
(2897,548,o),
(2984,545,c),
(3014,710,o),
(3029,821,o),
(3029,877,c),
(2982,876,o),
(2918,875,o),
(2836,875,cs),
(2753,875,o),
(2595,874,o),
(2362,871,c),
(2374,1031,l),
(2481,1032,o),
(2631,1033,o),
(2823,1034,cs),
(3015,1035,o),
(3143,1035,o),
(3206,1036,c),
(3217,1121,o),
(3228,1353,o),
(3228,1446,c),
(1250,1439,l),
(1250,1439,l)
);
}
);
width = 3328;
}
);
metricLeft = O;
metricRight = E;
unicode = 338;
},
{
glyphname = P;
lastChange = "2023-07-05 14:32:28 +0000";
layers = (
{
anchors = (
{
name = bottom;
pos = (1130,0);
},
{
name = top;
pos = (1130,1465);
}
);
background = {
shapes = (
{
closed = 1;
nodes = (
(940,447,l),
(987,447,o),
(1178,441,o),
(1306,441,cs),
(1732,441,o),
(2177,532,o),
(2177,939,cs),
(2177,1349,o),
(1754,1453,o),
(1331,1453,cs),
(987,1453,o),
(595,1421,o),
(265,1363,c),
(259,1109,o),
(245,470,o),
(237,270,c),
(234,98,ls),
(233,64,o),
(232,28,o),
(229,-9,c),
(240,-12,o),
(266,-13,o),
(302,-13,cs),
(462,-13,o),
(820,12,o),
(919,19,c)
);
},
{
closed = 1;
nodes = (
(1463,835,o),
(1372,773,o),
(1162,773,cs),
(1102,773,o),
(1032,778,o),
(952,789,c),
(952,803,o),
(953,898,o),
(966,1044,c),
(994,1058,o),
(1221,1071,o),
(1265,1071,cs),
(1359,1071,o),
(1463,1057,o),
(1463,936,cs)
);
}
);
};
layerId = m001;
shapes = (
{
closed = 1;
nodes = (
(462,-13,o),
(820,12,o),
(919,19,c),
(940,447,l),
(987,447,o),
(1178,441,o),
(1306,441,cs),
(1732,441,o),
(2177,532,o),
(2177,939,cs),
(2177,1349,o),
(1754,1453,o),
(1331,1453,cs),
(987,1453,o),
(595,1421,o),
(265,1363,c),
(259,1109,o),
(245,470,o),
(237,270,cs),
(234,98,ls),
(233,64,o),
(232,28,o),
(229,-9,c),
(240,-12,o),
(266,-13,o),
(302,-13,cs)
);
},
{
closed = 1;
nodes = (
(1102,773,o),
(1032,778,o),
(952,789,c),
(952,803,o),
(953,898,o),
(966,1044,c),
(994,1058,o),
(1221,1071,o),
(1265,1071,cs),
(1359,1071,o),
(1463,1057,o),
(1463,936,cs),
(1463,835,o),
(1372,773,o),
(1162,773,cs)
);
}
);
width = 2260;
}
);
unicode = 80;
},
{
glyphname = Thorn;
lastChange = "2023-07-05 14:32:28 +0000";
layers = (
{
anchors = (
{
name = bottom;
pos = (1060,0);
},
{
name = top;
pos = (1060,1465);
}
);
background = {
shapes = (
{
closed = 1;
nodes = (
(880,-10,l),
(1616,-10,o),
(1990,241,o),
(1990,600,cs),
(1990,915,o),
(1772,1148,o),
(1245,1148,cs),
(1149,1148,o),
(1042,1141,o),
(925,1124,c),
(947,1420,l),
(947,1447,o),
(932,1454,o),
(907,1454,cs),
(877,1454,o),
(839,1447,o),
(817,1441,c),
(282,1418,l),
(226,-232,l),
(226,-274,o),
(228,-316,o),
(229,-353,c),
(239,-353,ls),
(325,-353,o),
(657,-332,o),
(866,-311,c)
);
},
{
closed = 1;
nodes = (
(1359,436,o),
(1290,282,o),
(895,272,c),
(920,831,l),
(1290,831,o),
(1359,728,o),
(1359,581,cs)
);
}
);
};
layerId = m001;
shapes = (
{
closed = 1;
nodes = (
(239,-353,ls),
(325,-353,o),
(657,-332,o),
(866,-311,c),
(880,-10,l),
(1616,-10,o),
(1990,241,o),
(1990,600,cs),
(1990,915,o),
(1772,1148,o),
(1245,1148,cs),
(1149,1148,o),
(1042,1141,o),
(925,1124,c),
(947,1420,l),
(947,1447,o),
(932,1454,o),
(907,1454,cs),
(877,1454,o),
(839,1447,o),
(817,1441,c),
(282,1418,l),
(226,-232,ls),
(226,-274,o),
(228,-316,o),
(229,-353,c)
);
},
{
closed = 1;
nodes = (
(920,831,l),
(1290,831,o),
(1359,728,o),
(1359,581,cs),
(1359,436,o),
(1290,282,o),
(895,272,c)
);
}
);
width = 2120;
}
);
unicode = 222;
},
{
glyphname = Q;
lastChange = "2023-07-05 14:32:28 +0000";
layers = (
{
anchors = (
{
name = bottom;
pos = (1258,0);
},
{
name = top;
pos = (1258,1465);
}
);
background = {
shapes = (
{
closed = 1;
nodes = (
(1068,361,o),
(904,456,o),
(904,705,cs),
(904,952,o),
(1063,1067,o),
(1287,1067,cs),
(1512,1067,o),
(1621,967,o),
(1621,727,cs),
(1621,549,o),
(1539,362,o),
(1291,362,cs),
(1290,362,o),
(1289,363,o),
(1288,363,cs),
(1287,363,o),
(1286,362,o),
(1284,361,c)
);
},
{
closed = 1;
nodes = (
(1655,-337,o),
(1907,-239,o),
(1907,-211,c),
(1722,49,l),
(2328,170,o),
(2437,497,o),
(2437,756,cs),
(2437,783,o),
(2436,808,o),
(2434,833,cs),
(2397.37,1323.88,o),
(1735,1480,o),
(1274,1480,cs),
(1008,1480,o),
(127,1346.65,o),
(127,689,cs),
(127,166,o),
(587,-38,o),
(1085,-38,cs),
(1195,-38,o),
(1300,-28,o),
(1398,-13,c),
(1413,-30,o),
(1638,-337,o),
(1651,-337,cs)
);
}
);
};
layerId = m001;
shapes = (
{
closed = 1;
nodes = (
(1655,-337,o),
(1907,-239,o),
(1907,-211,c),
(1722,49,l),
(2328,170,o),
(2437,497,o),
(2437,756,cs),
(2437,783,o),
(2436,808,o),
(2434,833,cs),
(2397,1324,o),
(1735,1480,o),
(1274,1480,cs),
(1008,1480,o),
(127,1347,o),
(127,689,cs),
(127,166,o),
(587,-38,o),
(1085,-38,cs),
(1195,-38,o),
(1300,-28,o),
(1398,-13,c),
(1413,-30,o),
(1638,-337,o),
(1651,-337,cs)
);
},
{
closed = 1;
nodes = (
(1068,361,o),
(904,456,o),
(904,705,cs),
(904,952,o),
(1063,1067,o),
(1287,1067,cs),
(1512,1067,o),
(1621,967,o),
(1621,727,cs),
(1621,549,o),
(1539,362,o),
(1291,362,cs),
(1290,362,o),
(1289,363,o),
(1288,363,cs),
(1287,363,o),
(1286,362,o),
(1284,361,c)
);
}
);
width = 2516;
}
);
unicode = 81;
},
{
glyphname = R;
kernLeft = R;
kernRight = R;
lastChange = "2023-07-05 14:32:28 +0000";
layers = (
{
anchors = (
{
name = bottom;
pos = (1199,0);
},
{
name = top;
pos = (1199,1465);
}
);
background = {
anchors = (
{
name = bottom;
pos = (1199,0);
},
{
name = top;
pos = (1199,1465);
}
);
shapes = (
{
closed = 1;
nodes = (
(1081,1067,o),
(1137,1070,o),
(1235,1070,cs),
(1322,1070,o),
(1477,1057,o),
(1477,954,cs),
(1477,803,o),
(1255,812,o),
(988,782,c),
(1005,1064,l)
);
},
{
closed = 1;
nodes = (
(2292,19,l),
(2195,140,o),
(1943,501,o),
(1831,629,c),
(2013,691,o),
(2188,822,o),
(2188,1027,cs),
(2188,1415,o),
(1772,1449,o),
(1313,1449,c),
(403,1394,o),
(308,1394,o),
(294,1394,c),
(284,811,l),
(278,646,ls),
(269,406,o),
(258,143,o),
(258,-38,c),
(492,-30,l),
(597,-30,o),
(821,-7,o),
(946,0,cs),
(953,1,o),
(953,5,o),
(953,9,cs),
(973,506,l),
(1218,523,l),
(1270,400,o),
(1464,0,o),
(1511,-86,c),
(1628,-70,l)
);
}
);
};
layerId = m001;
shapes = (
{
closed = 1;
nodes = (
(2292,19,l),
(2195,140,o),
(1943,501,o),
(1831,629,c),
(2013,691,o),
(2188,822,o),
(2188,1027,cs),
(2188,1415,o),
(1772,1449,o),
(1313,1449,c),
(403,1394,o),
(308,1394,o),
(294,1394,c),
(284,811,l),
(278,646,ls),
(269,406,o),
(258,143,o),
(258,-38,c),
(492,-30,ls),
(597,-30,o),
(821,-7,o),
(946,0,cs),
(953,1,o),
(953,5,o),
(953,9,cs),
(973,506,l),
(1218,523,l),
(1270,400,o),
(1464,0,o),
(1511,-86,c)
);
},
{
closed = 1;
nodes = (
(1005,1064,l),
(1081,1067,o),
(1137,1070,o),
(1235,1070,cs),
(1322,1070,o),
(1477,1057,o),
(1477,954,cs),
(1477,803,o),
(1255,812,o),
(988,782,c)
);
}
);
width = 2398;
}
);
unicode = 82;
},
{
glyphname = Racute;
lastChange = "2023-07-05 14:32:28 +0000";
layers = (
{
background = {
anchors = (
{
name = bottom;
pos = (1199,0);
},
{
name = top;
pos = (1199,1465);
}
);
shapes = (
{
closed = 1;
nodes = (
(1081,1067,o),
(1137,1070,o),
(1235,1070,cs),
(1322,1070,o),
(1477,1057,o),
(1477,954,cs),
(1477,803,o),
(1255,812,o),
(988,782,c),
(1005,1064,l)
);
},
{
closed = 1;
nodes = (
(2292,19,l),
(2195,140,o),
(1943,501,o),
(1831,629,c),
(2013,691,o),
(2188,822,o),
(2188,1027,cs),
(2188,1415,o),
(1772,1449,o),
(1313,1449,c),
(403,1394,o),
(308,1394,o),
(294,1394,c),
(284,811,l),
(278,646,ls),
(269,406,o),
(258,143,o),
(258,-38,c),
(492,-30,l),
(597,-30,o),
(821,-7,o),
(946,0,cs),
(953,1,o),
(953,5,o),
(953,9,cs),
(973,506,l),
(1218,523,l),
(1270,400,o),
(1464,0,o),
(1511,-86,c),
(1628,-70,l)
);
},
{
closed = 1;
nodes = (
(1068,1645,o),
(1070,1644,o),
(1070,1644,c),
(1156,1709,o),
(1402,1910,o),
(1503,1991,c),
(1456,2005,o),
(1205,2077,o),
(1159,2089,c),
(1137,2058,o),
(977,1821,o),
(896,1686,c),
(932,1677,o),
(1049,1648,o),
(1067,1645,cs)
);
}
);
};
layerId = m001;
shapes = (
{
ref = R;
},
{
pos = (832,439);
ref = acutecomb;
}
);
width = 2398;
}
);
unicode = 340;
},
{
glyphname = Rcaron;
lastChange = "2023-07-05 14:32:28 +0000";
layers = (
{
background = {
anchors = (
{
name = bottom;
pos = (1199,0);
},
{
name = top;
pos = (1199,1465);
}
);
shapes = (
{
closed = 1;
nodes = (
(1081,1067,o),
(1137,1070,o),
(1235,1070,cs),
(1322,1070,o),
(1477,1057,o),
(1477,954,cs),
(1477,803,o),
(1255,812,o),
(988,782,c),
(1005,1064,l)
);
},
{
closed = 1;
nodes = (
(2292,19,l),
(2195,140,o),
(1943,501,o),
(1831,629,c),
(2013,691,o),
(2188,822,o),
(2188,1027,cs),
(2188,1415,o),
(1772,1449,o),
(1313,1449,c),
(403,1394,o),
(308,1394,o),
(294,1394,c),
(284,811,l),
(278,646,ls),
(269,406,o),
(258,143,o),
(258,-38,c),
(492,-30,l),
(597,-30,o),
(821,-7,o),
(946,0,cs),
(953,1,o),
(953,5,o),
(953,9,cs),
(973,506,l),
(1218,523,l),
(1270,400,o),
(1464,0,o),
(1511,-86,c),
(1628,-70,l)
);
},
{
closed = 1;
nodes = (
(695,2221,o),
(693,2217,o),
(693,2211,cs),
(693,2204,o),
(696,2196,o),
(702,2186,cs),
(799,2029,o),
(1029,1686,o),
(1031,1686,c),
(1034,1684,o),
(1041,1684,o),
(1045,1684,cs),
(1223,1684,l),
(1224,1683,o),
(1227,1682,o),
(1229,1682,cs),
(1233,1682,o),
(1237,1684,o),
(1241,1688,cs),
(1381,1851,o),
(1526,2018,o),
(1676,2186,c),
(1697,2205,o),
(1705,2219,o),
(1705,2229,cs),
(1705,2232,o),
(1704,2234,o),
(1703,2237,c),
(1704,2238,o),
(1704,2240,o),
(1704,2242,cs),
(1704,2275,o),
(1539,2344,o),
(1496,2376,c),
(1455,2397,o),
(1435,2404,o),
(1427,2404,c),
(1427,2404,o),
(1426,2403,o),
(1426,2402,cs),
(1427,2401,l),
(1343,2286,o),
(1254,2177,o),
(1168,2065,c),
(1020,2375,l),
(1011,2397,o),
(1008,2405,o),
(1003,2405,cs),
(975,2405,o),
(697,2269,o),
(697,2228,cs),
(697,2227,o),
(697,2226,o),
(698,2225,c)
);
}
);
};
layerId = m001;
shapes = (
{
ref = R;
},
{
pos = (681,439);
ref = caroncomb;
}
);
width = 2398;
}
);
unicode = 344;
},
{
glyphname = Rdblgrave;
kernLeft = R;
kernRight = R;
lastChange = "2023-07-05 14:32:28 +0000";
layers = (
{
background = {
anchors = (
{
name = bottom;
pos = (1199,0);
},
{
name = top;
pos = (1199,1465);
}
);
shapes = (
{
closed = 1;
nodes = (
(1081,1067,o),
(1137,1070,o),
(1235,1070,cs),
(1322,1070,o),
(1477,1057,o),
(1477,954,cs),
(1477,803,o),
(1255,812,o),
(988,782,c),
(1005,1064,l)
);
},
{
closed = 1;
nodes = (
(2292,19,l),
(2195,140,o),
(1943,501,o),
(1831,629,c),
(2013,691,o),
(2188,822,o),
(2188,1027,cs),
(2188,1415,o),
(1772,1449,o),
(1313,1449,c),
(403,1394,o),
(308,1394,o),
(294,1394,c),
(284,811,l),
(278,646,ls),
(269,406,o),
(258,143,o),
(258,-38,c),
(492,-30,l),
(597,-30,o),
(821,-7,o),
(946,0,cs),
(953,1,o),
(953,5,o),
(953,9,cs),
(973,506,l),
(1218,523,l),
(1270,400,o),
(1464,0,o),
(1511,-86,c),
(1628,-70,l)
);
}
);
};
layerId = m001;
shapes = (
{
ref = R;
},
{
pos = (675,439);
ref = dblgravecomb;
}
);
width = 2398;
}
);
unicode = 528;
},
{
glyphname = Rinvertedbreve;
kernLeft = R;
kernRight = R;
lastChange = "2023-07-05 14:32:28 +0000";
layers = (
{
background = {
anchors = (
{
name = bottom;
pos = (1199,0);
},
{
name = top;
pos = (1327.174,1930.34);
}
);
shapes = (
{
closed = 1;
nodes = (
(1081,1067,o),
(1137,1070,o),
(1235,1070,cs),
(1322,1070,o),
(1477,1057,o),
(1477,954,cs),
(1477,803,o),
(1255,812,o),
(988,782,c),
(1005,1064,l)
);
},
{
closed = 1;
nodes = (
(2292,19,l),
(2195,140,o),
(1943,501,o),
(1831,629,c),
(2013,691,o),
(2188,822,o),
(2188,1027,cs),
(2188,1415,o),
(1772,1449,o),
(1313,1449,c),
(403,1394,o),
(308,1394,o),
(294,1394,c),
(284,811,l),
(278,646,ls),
(269,406,o),
(258,143,o),
(258,-38,c),
(492,-30,l),
(597,-30,o),
(821,-7,o),
(946,0,cs),
(953,1,o),
(953,5,o),
(953,9,cs),
(973,506,l),
(1218,523,l),
(1270,400,o),
(1464,0,o),
(1511,-86,c),
(1628,-70,l)
);
},
{
closed = 1;
nodes = (
(1426,1668,o),
(1425,1668,o),
(1425,1665,cs),
(1425,1652,o),
(1438,1644,o),
(1510,1644,cs),
(1600,1644,o),
(1607,1654,o),
(1607,1681,cs),
(1607,1804,o),
(1532,1930,o),
(1351,1930,cs),
(1182,1930,o),
(1047,1843,o),
(1047,1695,cs),
(1047,1663,o),
(1051,1649,o),
(1142,1649,cs),
(1208,1649,o),
(1213,1658,o),
(1216,1672,cs),
(1216,1673,o),
(1215,1674,o),
(1215,1675,cs),
(1215,1714,o),
(1240,1774,o),
(1326,1774,cs),
(1395,1774,o),
(1430,1734,o),
(1430,1698,cs),
(1430,1687,o),
(1427,1678,o),
(1426,1671,cs)
);
}
);
};
layerId = m001;
shapes = (
{
ref = R;
},
{
pos = (863,0);
ref = breveinvertedcomb;
}
);
width = 2398;
}
);
unicode = 530;
},
{
glyphname = S;
kernLeft = S;
kernRight = S;
lastChange = "2023-07-05 14:32:28 +0000";
layers = (
{
anchors = (
{
name = bottom;
pos = (1079,0);
},
{
name = top;
pos = (1079,1465);
}
);
background = {
anchors = (
{
name = bottom;
pos = (1085,0);
},
{
name = top;
pos = (1085,1465);
}
);
shapes = (
{
closed = 1;
nodes = (
(1603,-51,o),
(2019,69,o),
(2019,454,cs),
(2019,837,o),
(1506,879,o),
(1085,950,cs),
(960,971,o),
(890,979,o),
(890,1019,cs),
(890,1082,o),
(1027,1085,o),
(1102,1085,cs),
(1247,1085,o),
(1522,1043,o),
(1799,968,c),
(1837,1053,o),
(1862,1161,o),
(1907,1330,c),
(1780,1392,o),
(1441,1465,o),
(1209,1465,cs),
(724,1465,o),
(164,1421,o),
(164,985,cs),
(164,574,o),
(656,534,o),
(1180,450,cs),
(1201,447,o),
(1250,445,o),
(1250,399,cs),
(1250,352,o),
(1158,344,o),
(1091,344,cs),
(760,344,o),
(561,393,o),
(270,466,c),
(264,466,o),
(262,462,o),
(262,459,cs),
(228,328,o),
(197,217,o),
(165,84,c),
(442,-8,o),
(765,-49,o),
(1019,-51,c)
);
}
);
};
layerId = m001;
shapes = (
{
closed = 1;
nodes = (
(1603,-51,o),
(2019,69,o),
(2019,454,cs),
(2019,837,o),
(1506,879,o),
(1085,950,cs),
(960,971,o),
(890,979,o),
(890,1019,cs),
(890,1082,o),
(1027,1085,o),
(1102,1085,cs),
(1247,1085,o),
(1522,1043,o),
(1799,968,c),
(1837,1053,o),
(1862,1161,o),
(1907,1330,c),
(1780,1392,o),
(1441,1465,o),
(1209,1465,cs),
(724,1465,o),
(164,1421,o),
(164,985,cs),
(164,574,o),
(656,534,o),
(1180,450,cs),
(1201,447,o),
(1250,445,o),
(1250,399,cs),
(1250,352,o),
(1158,344,o),
(1091,344,cs),
(760,344,o),
(561,393,o),
(270,466,c),
(264,466,o),
(262,462,o),
(262,459,c),
(228,328,o),
(197,217,o),
(165,84,c),
(442,-8,o),
(765,-49,o),
(1019,-51,cs)
);
}
);
width = 2157;
}
);
unicode = 83;
},
{
glyphname = Sacute;
lastChange = "2023-07-05 14:32:28 +0000";
layers = (
{
background = {
anchors = (
{
name = bottom;
pos = (1085,0);
},
{
name = top;
pos = (1085,1465);
}
);
shapes = (
{
closed = 1;
nodes = (
(1603,-51,o),
(2019,69,o),
(2019,454,cs),
(2019,837,o),
(1506,879,o),
(1085,950,cs),
(960,971,o),
(890,979,o),
(890,1019,cs),
(890,1082,o),
(1027,1085,o),
(1102,1085,cs),
(1247,1085,o),
(1522,1043,o),
(1799,968,c),
(1837,1053,o),
(1862,1161,o),
(1907,1330,c),
(1780,1392,o),
(1441,1465,o),
(1209,1465,cs),
(724,1465,o),
(164,1421,o),
(164,985,cs),
(164,574,o),
(656,534,o),
(1180,450,cs),
(1201,447,o),
(1250,445,o),
(1250,399,cs),
(1250,352,o),
(1158,344,o),
(1091,344,cs),
(760,344,o),
(561,393,o),
(270,466,c),
(264,466,o),
(262,462,o),
(262,459,cs),
(228,328,o),
(197,217,o),
(165,84,c),
(442,-8,o),
(765,-49,o),
(1019,-51,c)
);
},
{
closed = 1;
nodes = (
(954,1645,o),
(956,1644,o),
(956,1644,c),
(1042,1709,o),
(1288,1910,o),
(1389,1991,c),
(1342,2005,o),
(1091,2077,o),
(1045,2089,c),
(1023,2058,o),
(863,1821,o),
(782,1686,c),
(818,1677,o),
(935,1648,o),
(953,1645,cs)
);
}
);
};
layerId = m001;
shapes = (
{
ref = S;
},
{
pos = (712,439);
ref = acutecomb;
}
);
width = 2157;
}
);
unicode = 346;
},
{
glyphname = Scaron;
kernLeft = S;
kernRight = S;
lastChange = "2023-07-05 14:32:28 +0000";
layers = (
{
background = {
anchors = (
{
name = bottom;
pos = (1085,0);
},
{
name = top;
pos = (1085,1465);
}
);
shapes = (
{
closed = 1;
nodes = (
(1603,-51,o),
(2019,69,o),
(2019,454,cs),
(2019,837,o),
(1506,879,o),
(1085,950,cs),
(960,971,o),
(890,979,o),
(890,1019,cs),
(890,1082,o),
(1027,1085,o),
(1102,1085,cs),
(1247,1085,o),
(1522,1043,o),
(1799,968,c),
(1837,1053,o),
(1862,1161,o),
(1907,1330,c),
(1780,1392,o),
(1441,1465,o),
(1209,1465,cs),
(724,1465,o),
(164,1421,o),
(164,985,cs),
(164,574,o),
(656,534,o),
(1180,450,cs),
(1201,447,o),
(1250,445,o),
(1250,399,cs),
(1250,352,o),
(1158,344,o),
(1091,344,cs),
(760,344,o),
(561,393,o),
(270,466,c),
(264,466,o),
(262,462,o),
(262,459,cs),
(228,328,o),
(197,217,o),
(165,84,c),
(442,-8,o),
(765,-49,o),
(1019,-51,c)
);
},
{
closed = 1;
nodes = (
(581,2221,o),
(579,2217,o),
(579,2211,cs),
(579,2204,o),
(582,2196,o),
(588,2186,cs),
(685,2029,o),
(915,1686,o),
(917,1686,c),
(920,1684,o),
(927,1684,o),
(931,1684,cs),
(1109,1684,l),
(1110,1683,o),
(1113,1682,o),
(1115,1682,cs),
(1119,1682,o),
(1123,1684,o),
(1127,1688,cs),
(1267,1851,o),
(1412,2018,o),
(1562,2186,c),
(1583,2205,o),
(1591,2219,o),
(1591,2229,cs),
(1591,2232,o),
(1590,2234,o),
(1589,2237,c),
(1590,2238,o),
(1590,2240,o),
(1590,2242,cs),
(1590,2275,o),
(1425,2344,o),
(1382,2376,c),
(1341,2397,o),
(1321,2404,o),
(1313,2404,c),
(1313,2404,o),
(1312,2403,o),
(1312,2402,cs),
(1313,2401,l),
(1229,2286,o),
(1140,2177,o),
(1054,2065,c),
(906,2375,l),
(897,2397,o),
(894,2405,o),
(889,2405,cs),
(861,2405,o),
(583,2269,o),
(583,2228,cs),
(583,2227,o),
(583,2226,o),
(584,2225,c)
);
}
);
};
layerId = m001;
shapes = (
{
ref = S;
},
{
pos = (561,439);
ref = caroncomb;
}
);
width = 2157;
}
);
unicode = 352;
},
{
glyphname = Scedilla;
kernLeft = S;
kernRight = S;
lastChange = "2023-07-05 14:32:28 +0000";
layers = (
{
background = {
anchors = (
{
name = bottom;
pos = (1085,0);
},
{
name = top;
pos = (1085,1465);
}
);
shapes = (
{
closed = 1;
nodes = (
(1603,-51,o),
(2019,69,o),
(2019,454,cs),
(2019,837,o),
(1506,879,o),
(1085,950,cs),
(960,971,o),
(890,979,o),
(890,1019,cs),
(890,1082,o),
(1027,1085,o),
(1102,1085,cs),
(1247,1085,o),
(1522,1043,o),
(1799,968,c),
(1837,1053,o),
(1862,1161,o),
(1907,1330,c),
(1780,1392,o),
(1441,1465,o),
(1209,1465,cs),
(724,1465,o),
(164,1421,o),
(164,985,cs),
(164,574,o),
(656,534,o),
(1180,450,cs),
(1201,447,o),
(1250,445,o),
(1250,399,cs),
(1250,352,o),
(1158,344,o),
(1091,344,cs),
(760,344,o),
(561,393,o),
(270,466,c),
(264,466,o),
(262,462,o),
(262,459,cs),
(228,328,o),
(197,217,o),
(165,84,c),
(442,-8,o),
(765,-49,o),
(1019,-51,c)
);
},
{
closed = 1;
nodes = (
(1130,-156,o),
(1112,-157,o),
(1094,-159,c),
(1142,-17,l),
(963,-17,l),
(900,-266,l),
(1059,-287,ls),
(1109,-294,o),
(1129,-323,o),
(1129,-355,cs),
(1129,-403,o),
(1095,-448,o),
(1026,-448,cs),
(985,-448,o),
(934,-433,o),
(870,-394,c),
(830,-537,l),
(898,-585,o),
(983,-610,o),
(1064,-610,cs),
(1208,-610,o),
(1340,-532,o),
(1340,-365,cs),
(1340,-243,o),
(1287,-156,o),
(1146,-156,cs)
);
}
);
};
layerId = m001;
shapes = (
{
ref = S;
},
{
pos = (803,0);
ref = cedillacomb;
}
);
width = 2157;
}
);
unicode = 350;
},
{
glyphname = Scommaaccent;
kernLeft = S;
kernRight = S;
lastChange = "2023-07-05 14:32:28 +0000";
layers = (
{
background = {
anchors = (
{
name = bottom;
pos = (1076,-887);
},
{
name = top;
pos = (1085,1465);
}
);
shapes = (
{
closed = 1;
nodes = (
(1603,-51,o),
(2019,69,o),
(2019,454,cs),
(2019,837,o),
(1506,879,o),
(1085,950,cs),
(960,971,o),
(890,979,o),
(890,1019,cs),
(890,1082,o),
(1027,1085,o),
(1102,1085,cs),
(1247,1085,o),
(1522,1043,o),
(1799,968,c),
(1837,1053,o),
(1862,1161,o),
(1907,1330,c),
(1780,1392,o),
(1441,1465,o),
(1209,1465,cs),
(724,1465,o),
(164,1421,o),
(164,985,cs),
(164,574,o),
(656,534,o),
(1180,450,cs),
(1201,447,o),
(1250,445,o),
(1250,399,cs),
(1250,352,o),
(1158,344,o),
(1091,344,cs),
(760,344,o),
(561,393,o),
(270,466,c),
(264,466,o),
(262,462,o),
(262,459,cs),
(228,328,o),
(197,217,o),
(165,84,c),
(442,-8,o),
(765,-49,o),
(1019,-51,c)
);
},
{
closed = 1;
nodes = (
(1062,-887,o),
(1284,-791,o),
(1287,-538,cs),
(1291,-209,l),
(882,-209,l),
(868,-569,l),
(1007,-569,l),
(997,-644,o),
(965,-714,o),
(868,-727,c),
(860,-880,l),
(878,-885,o),
(899,-887,o),
(921,-887,cs)
);
}
);
};
layerId = m001;
shapes = (
{
ref = S;
},
{
pos = (760,0);
ref = commaaccentcomb;
}
);
width = 2157;
}
);
unicode = 536;
},
{
glyphname = Germandbls;
lastChange = "2023-07-05 14:32:28 +0000";
layers = (
{
anchors = (
{
name = bottom;
pos = (600,0);
},
{
name = top;
pos = (600,1465);
}
);
layerId = m001;
shapes = (
{
closed = 1;
nodes = (
(549,-251,o),
(661,-250,o),
(937,-250,cs),
(1314,-250,o),
(1320,-230,o),
(1663,-230,c),
(1677,25,o),
(1698,1004,o),
(1704,1093,c),
(1716,1678,l),
(1645,1683,o),
(1610,1685,o),
(1525,1685,cs),
(1367,1684,o),
(1235,1683,o),
(959,1683,cs),
(692,1683,o),
(408,1684,o),
(375,1684,cs),
(326,1684,o),
(259,1653,o),
(253,1605,cs),
(229,1413,o),
(216,859,o),
(212,570,cs),
(200,-245,l),
(271,-250,o),
(306,-252,o),
(391,-252,cs)
);
},
{
closed = 1;
nodes = (
(784,394,o),
(797,958,o),
(804,1150,cs),
(811,1295,l),
(1131,1303,l),
(1112,1039,o),
(1099,475,o),
(1092,283,cs),
(1085,138,l),
(765,130,l)
);
}
);
width = 1920;
}
);
unicode = 7838;
},
{
glyphname = T;
kernLeft = T;
kernRight = T;
lastChange = "2023-07-05 14:32:28 +0000";
layers = (
{
anchors = (
{
name = bottom;
pos = (986,0);
},
{
name = center;
pos = (986,733);
},
{
name = top;
pos = (986,1465);
}
);
background = {
anchors = (
{
name = bottom;
pos = (986,0);
},
{
name = center;
pos = (986,733);
},
{
name = top;
pos = (986,1465);
}
);
shapes = (
{
closed = 1;
nodes = (
(1292,44,o),
(1312,590,o),
(1323,835,c),
(1329,1051,l),
(1850,1051,l),
(1881,1151,o),
(1911,1360,o),
(1921,1446,c),
(1871,1447,o),
(1812,1449,o),
(1755,1449,cs),
(1287,1446,o),
(526,1432,o),
(138,1420,c),
(122,1320,o),
(101,1091,o),
(99,1051,c),
(377.667,1051,o),
(499,1051.44,o),
(567.889,1051.44,cs),
(602.333,1051.44,o),
(623.667,1051.33,o),
(645,1051,c),
(638,919,o),
(635,826,o),
(630,669,cs),
(618,265,l),
(610,93,o),
(609,34,o),
(609,-25,c),
(610.417,-25.07,o),
(612.108,-25.104,o),
(614.059,-25.104,cs),
(696.072,-25.104,o),
(1238.3,35.116,o),
(1293,40,c)
);
}
);
};
layerId = m001;
shapes = (
{
closed = 1;
nodes = (
(696,-25,o),
(1238,35,o),
(1293,40,c),
(1292,44,o),
(1312,590,o),
(1323,835,cs),
(1329,1051,l),
(1850,1051,l),
(1881,1151,o),
(1911,1360,o),
(1921,1446,c),
(1871,1447,o),
(1812,1449,o),
(1755,1449,cs),
(1287,1446,o),
(526,1432,o),
(138,1420,c),
(122,1320,o),
(101,1091,o),
(99,1051,c),
(378,1051,o),
(499,1051,o),
(568,1051,cs),
(645,1051,l),
(638,919,o),
(635,826,o),
(630,669,cs),
(618,265,ls),
(610,93,o),
(609,34,o),
(609,-25,c),
(614,-25,ls)
);
}
);
width = 1972;
}
);
unicode = 84;
},
{
glyphname = Tcaron;
lastChange = "2023-07-05 14:32:28 +0000";
layers = (
{
background = {
anchors = (
{
name = bottom;
pos = (986,0);
},
{
name = center;
pos = (986,733);
},
{
name = top;
pos = (986,1465);
}
);
shapes = (
{
closed = 1;
nodes = (
(1292,44,o),
(1312,590,o),
(1323,835,c),
(1329,1051,l),
(1850,1051,l),
(1881,1151,o),
(1911,1360,o),
(1921,1446,c),
(1871,1447,o),
(1812,1449,o),
(1755,1449,cs),
(1287,1446,o),
(526,1432,o),
(138,1420,c),
(122,1320,o),
(101,1091,o),
(99,1051,c),
(377.667,1051,o),
(499,1051.44,o),
(567.889,1051.44,cs),
(602.333,1051.44,o),
(623.667,1051.33,o),
(645,1051,c),
(638,919,o),
(635,826,o),
(630,669,cs),
(618,265,l),
(610,93,o),
(609,34,o),
(609,-25,c),
(610.417,-25.07,o),
(612.108,-25.104,o),
(614.059,-25.104,cs),
(696.072,-25.104,o),
(1238.3,35.116,o),
(1293,40,c)
);
},
{
closed = 1;
nodes = (
(482,2221,o),
(480,2217,o),
(480,2211,cs),
(480,2204,o),
(483,2196,o),
(489,2186,cs),
(586,2029,o),
(816,1686,o),
(818,1686,c),
(821,1684,o),
(828,1684,o),
(832,1684,cs),
(1010,1684,l),
(1011,1683,o),
(1014,1682,o),
(1016,1682,cs),
(1020,1682,o),
(1024,1684,o),
(1028,1688,cs),
(1168,1851,o),
(1313,2018,o),
(1463,2186,c),
(1484,2205,o),
(1492,2219,o),
(1492,2229,cs),
(1492,2232,o),
(1491,2234,o),
(1490,2237,c),
(1491,2238,o),
(1491,2240,o),
(1491,2242,cs),
(1491,2275,o),
(1326,2344,o),
(1283,2376,c),
(1242,2397,o),
(1222,2404,o),
(1214,2404,c),
(1214,2404,o),
(1213,2403,o),
(1213,2402,cs),
(1214,2401,l),
(1130,2286,o),
(1041,2177,o),
(955,2065,c),
(807,2375,l),
(798,2397,o),
(795,2405,o),
(790,2405,cs),
(762,2405,o),
(484,2269,o),
(484,2228,cs),
(484,2227,o),
(484,2226,o),
(485,2225,c)
);
}
);
};
layerId = m001;
shapes = (
{
ref = T;
},
{
pos = (468,439);
ref = caroncomb;
}
);
width = 1972;
}
);
unicode = 356;
},
{
glyphname = Tcommaaccent;
kernLeft = T;
kernRight = T;
lastChange = "2023-07-05 14:32:28 +0000";
layers = (
{
background = {
anchors = (
{
name = bottom;
pos = (987,-887);
},
{
name = center;
pos = (986,733);
},
{
name = top;
pos = (986,1465);
}
);
shapes = (
{
closed = 1;
nodes = (
(1292,44,o),
(1312,590,o),
(1323,835,c),
(1329,1051,l),
(1850,1051,l),
(1881,1151,o),
(1911,1360,o),
(1921,1446,c),
(1871,1447,o),
(1812,1449,o),
(1755,1449,cs),
(1287,1446,o),
(526,1432,o),
(138,1420,c),
(122,1320,o),
(101,1091,o),
(99,1051,c),
(377.667,1051,o),
(499,1051.44,o),
(567.889,1051.44,cs),
(602.333,1051.44,o),
(623.667,1051.33,o),
(645,1051,c),
(638,919,o),
(635,826,o),
(630,669,cs),
(618,265,l),
(610,93,o),
(609,34,o),
(609,-25,c),
(610.417,-25.07,o),
(612.108,-25.104,o),
(614.059,-25.104,cs),
(696.072,-25.104,o),
(1238.3,35.116,o),
(1293,40,c)
);
},
{
closed = 1;
nodes = (
(973,-887,o),
(1195,-791,o),
(1198,-538,cs),
(1202,-209,l),
(793,-209,l),
(779,-569,l),
(918,-569,l),
(908,-644,o),
(876,-714,o),
(779,-727,c),
(771,-880,l),
(789,-885,o),
(810,-887,o),
(832,-887,cs)
);
}
);
};
layerId = m001;
shapes = (
{
ref = T;
},
{
pos = (667,0);
ref = commaaccentcomb;
}
);
width = 1972;
}
);
unicode = 538;
},
{
glyphname = U;
kernLeft = U;
kernRight = U;
lastChange = "2023-07-05 14:32:28 +0000";
layers = (
{
anchors = (
{
name = bottom;
pos = (1218,0);
},
{
name = ogonek;
pos = (1582,10);
},
{
name = top;
pos = (1218,1465);
},
{
name = topright;
pos = (2415,1465);
}
);
background = {
anchors = (
{
name = ogonek;
pos = (2193,10);
},
{
name = top;
pos = (1225,1465);
}
);
shapes = (
{
closed = 1;
nodes = (
(1618,-48,o),
(2147,56,o),
(2267,545,c),
(2286,587,o),
(2310,1024,o),
(2315,1283,cs),
(2315,1333,o),
(2314,1379,o),
(2314,1426,c),
(1957,1417,o),
(1741,1411,o),
(1540,1401,c),
(1535,1238,l),
(1516,710,l),
(1515,483,o),
(1388,358,o),
(1209,358,cs),
(984.644,358,o),
(927.199,506.561,o),
(927.199,610.888,cs),
(927.199,618.162,o),
(927.479,625.221,o),
(928,632,cs),
(959,1285,l),
(959,1336,o),
(959,1389,o),
(962,1443,c),
(653,1437,l),
(168,1415,l),
(153,1312,o),
(156,1184,o),
(149,984,c),
(144,677,ls),
(143,648,o),
(142,618,o),
(142,592,cs),
(142,-7,o),
(725.118,-48,o),
(1191,-48,cs)
);
}
);
};
layerId = m001;
shapes = (
{
closed = 1;
nodes = (
(1618,-48,o),
(2147,56,o),
(2267,545,c),
(2286,587,o),
(2310,1024,o),
(2315,1283,cs),
(2315,1333,o),
(2314,1379,o),
(2314,1426,c),
(1957,1417,o),
(1741,1411,o),
(1540,1401,c),
(1535,1238,l),
(1516,710,ls),
(1508,483,o),
(1388,358,o),
(1209,358,cs),
(985,358,o),
(927,507,o),
(927,611,cs),
(927,618,o),
(927,625,o),
(928,632,cs),
(959,1285,l),
(959,1336,o),
(959,1389,o),
(962,1443,c),
(653,1437,l),
(168,1415,l),
(153,1312,o),
(156,1184,o),
(149,984,cs),
(144,677,ls),
(143,648,o),
(142,618,o),
(142,592,cs),
(142,-7,o),
(725,-48,o),
(1191,-48,cs)
);
}
);
width = 2435;
}
);
unicode = 85;
},
{
glyphname = Uacute;
kernLeft = U;
kernRight = U;
lastChange = "2023-07-05 14:32:28 +0000";
layers = (
{
background = {
anchors = (
{
name = ogonek;
pos = (2193,10);
},
{
name = top;
pos = (1225,1465);
}
);
shapes = (
{
closed = 1;
nodes = (
(1618,-48,o),
(2147,56,o),
(2267,545,c),
(2286,587,o),
(2310,1024,o),
(2315,1283,cs),
(2315,1333,o),
(2314,1379,o),
(2314,1426,c),
(1957,1417,o),
(1741,1411,o),
(1540,1401,c),
(1535,1238,l),
(1516,710,l),
(1515,483,o),
(1388,358,o),
(1209,358,cs),
(984.644,358,o),
(927.199,506.561,o),
(927.199,610.888,cs),
(927.199,618.162,o),
(927.479,625.221,o),
(928,632,cs),
(959,1285,l),
(959,1336,o),
(959,1389,o),
(962,1443,c),
(653,1437,l),
(168,1415,l),
(153,1312,o),
(156,1184,o),
(149,984,c),
(144,677,ls),
(143,648,o),
(142,618,o),
(142,592,cs),
(142,-7,o),
(725.118,-48,o),
(1191,-48,cs)
);
},
{
closed = 1;
nodes = (
(1094,1645,o),
(1096,1644,o),
(1096,1644,c),
(1182,1709,o),
(1428,1910,o),
(1529,1991,c),
(1482,2005,o),
(1231,2077,o),
(1185,2089,c),
(1163,2058,o),
(1003,1821,o),
(922,1686,c),
(958,1677,o),
(1075,1648,o),
(1093,1645,cs)
);
}
);
};
layerId = m001;
shapes = (
{
ref = U;
},
{
pos = (851,439);
ref = acutecomb;
}
);
width = 2435;
}
);
unicode = 218;
},
{
glyphname = Ubreve;
lastChange = "2023-07-05 14:32:28 +0000";
layers = (
{
background = {
anchors = (
{
name = ogonek;
pos = (2193,10);
},
{
name = top;
pos = (1225,1465);
}
);
shapes = (
{
closed = 1;
nodes = (
(1618,-48,o),
(2147,56,o),
(2267,545,c),
(2286,587,o),
(2310,1024,o),
(2315,1283,cs),
(2315,1333,o),
(2314,1379,o),
(2314,1426,c),
(1957,1417,o),
(1741,1411,o),
(1540,1401,c),
(1535,1238,l),
(1516,710,l),
(1515,483,o),
(1388,358,o),
(1209,358,cs),
(984.644,358,o),
(927.199,506.561,o),
(927.199,610.888,cs),
(927.199,618.162,o),
(927.479,625.221,o),
(928,632,cs),
(959,1285,l),
(959,1336,o),
(959,1389,o),
(962,1443,c),
(653,1437,l),
(168,1415,l),
(153,1312,o),
(156,1184,o),
(149,984,c),
(144,677,ls),
(143,648,o),
(142,618,o),
(142,592,cs),
(142,-7,o),
(725.118,-48,o),
(1191,-48,cs)
);
},
{
closed = 1;
nodes = (
(1308,1778,o),
(1215,1778,cs),
(1130,1778,o),
(1101,1831,o),
(1101,1873,cs),
(1101,1887,o),
(1104,1900,o),
(1104,1904,c),
(903,1904,l),
(896,1879,o),
(893,1855,o),
(893,1833,cs),
(893,1688,o),
(1034,1590,o),
(1201,1590,cs),
(1403,1590,o),
(1557,1690,o),
(1557,1904,c),
(1348,1902,l),
(1348,1816,o)
);
}
);
};
layerId = m001;
shapes = (
{
ref = U;
},
{
pos = (812,439);
ref = brevecomb;
}
);
width = 2435;
}
);
unicode = 364;
},
{
glyphname = Ucircumflex;
kernLeft = U;
kernRight = U;
lastChange = "2023-07-05 14:32:28 +0000";
layers = (
{
background = {
anchors = (
{
name = ogonek;
pos = (2193,10);
},
{
name = top;
pos = (1225,1465);
}
);
shapes = (
{
closed = 1;
nodes = (
(1618,-48,o),
(2147,56,o),
(2267,545,c),
(2286,587,o),
(2310,1024,o),
(2315,1283,cs),
(2315,1333,o),
(2314,1379,o),
(2314,1426,c),
(1957,1417,o),
(1741,1411,o),
(1540,1401,c),
(1535,1238,l),
(1516,710,l),
(1515,483,o),
(1388,358,o),
(1209,358,cs),
(984.644,358,o),
(927.199,506.561,o),
(927.199,610.888,cs),
(927.199,618.162,o),
(927.479,625.221,o),
(928,632,cs),
(959,1285,l),
(959,1336,o),
(959,1389,o),
(962,1443,c),
(653,1437,l),
(168,1415,l),
(153,1312,o),
(156,1184,o),
(149,984,c),
(144,677,ls),
(143,648,o),
(142,618,o),
(142,592,cs),
(142,-7,o),
(725.118,-48,o),
(1191,-48,cs)
);
},
{
closed = 1;
nodes = (
(1067,1682,o),
(1181,1811,o),
(1240,1860,c),
(1278,1809,o),
(1317,1760,o),
(1355,1710,c),
(1382,1687,o),
(1406,1671,o),
(1432,1660,c),
(1467,1660,o),
(1620,1699,o),
(1657,1720,c),
(1642,1747,o),
(1601,1792,o),
(1581,1815,cs),
(1514,1890,o),
(1399,2030,o),
(1360,2067,c),
(1343,2069,o),
(1325,2069,o),
(1306,2069,cs),
(1279,2069,o),
(1251,2070,o),
(1224,2070,cs),
(1191,2070,o),
(1158,2068,o),
(1127,2060,c),
(1082,2012,o),
(1040,1967,o),
(994,1921,cs),
(870,1795,ls),
(840,1764,o),
(814,1741,o),
(794,1716,c),
(831,1708,o),
(963,1661,o),
(1011,1661,c)
);
}
);
};
layerId = m001;
shapes = (
{
ref = U;
},
{
pos = (716,439);
ref = circumflexcomb;
}
);
width = 2435;
}
);
unicode = 219;
},
{
glyphname = Udblgrave;
kernLeft = U;
kernRight = U;
lastChange = "2023-07-05 14:32:28 +0000";
layers = (
{
background = {
anchors = (
{
name = ogonek;
pos = (2193,10);
},
{
name = top;
pos = (1225,1465);
}
);
shapes = (
{
closed = 1;
nodes = (
(1618,-48,o),
(2147,56,o),
(2267,545,c),
(2286,587,o),
(2310,1024,o),
(2315,1283,cs),
(2315,1333,o),
(2314,1379,o),
(2314,1426,c),
(1957,1417,o),
(1741,1411,o),
(1540,1401,c),
(1535,1238,l),
(1516,710,l),
(1515,483,o),
(1388,358,o),
(1209,358,cs),
(984.644,358,o),
(927.199,506.561,o),
(927.199,610.888,cs),
(927.199,618.162,o),
(927.479,625.221,o),
(928,632,cs),
(959,1285,l),
(959,1336,o),
(959,1389,o),
(962,1443,c),
(653,1437,l),
(168,1415,l),
(153,1312,o),
(156,1184,o),
(149,984,c),
(144,677,ls),
(143,648,o),
(142,618,o),
(142,592,cs),
(142,-7,o),
(725.118,-48,o),
(1191,-48,cs)
);
}
);
};
layerId = m001;
shapes = (
{
ref = U;
},
{
pos = (694,439);
ref = dblgravecomb;
}
);
width = 2435;
}
);
unicode = 532;
},
{
glyphname = Udieresis;
kernLeft = U;
kernRight = U;
lastChange = "2023-07-05 14:32:28 +0000";
layers = (
{
background = {
anchors = (
{
name = ogonek;
pos = (2193,10);
},
{
name = top;
pos = (1225,1465);
}
);
shapes = (
{
closed = 1;
nodes = (
(1618,-48,o),
(2147,56,o),
(2267,545,c),
(2286,587,o),
(2310,1024,o),
(2315,1283,cs),
(2315,1333,o),
(2314,1379,o),
(2314,1426,c),
(1957,1417,o),
(1741,1411,o),
(1540,1401,c),
(1535,1238,l),
(1516,710,l),
(1515,483,o),
(1388,358,o),
(1209,358,cs),
(984.644,358,o),
(927.199,506.561,o),
(927.199,610.888,cs),
(927.199,618.162,o),
(927.479,625.221,o),
(928,632,cs),
(959,1285,l),
(959,1336,o),
(959,1389,o),
(962,1443,c),
(653,1437,l),
(168,1415,l),
(153,1312,o),
(156,1184,o),
(149,984,c),
(144,677,ls),
(143,648,o),
(142,618,o),
(142,592,cs),
(142,-7,o),
(725.118,-48,o),
(1191,-48,cs)
);
},
{
closed = 1;
nodes = (
(1731,1658,l),
(1731,2015,l),
(1712,2015,l),
(1359,2015,l),
(1351,1659,l),
(1679,1658,l)
);
},
{
closed = 1;
nodes = (
(719,1657,o),
(722,1657,o),
(729,1657,cs),
(846,1657,o),
(953,1659,o),
(1100,1659,c),
(1105,2017,l),
(1087,2017,ls),
(987,2017,o),
(863,2015,o),
(759,2015,cs),
(732,2015,l),
(719,1667,l),
(719,1664,ls)
);
}
);
};
layerId = m001;
shapes = (
{
ref = U;
},
{
pos = (623,439);
ref = dieresiscomb;
}
);
width = 2435;
}
);
unicode = 220;
},
{
glyphname = Ugrave;
kernLeft = U;
kernRight = U;
lastChange = "2023-07-05 14:32:28 +0000";
layers = (
{
background = {
anchors = (
{
name = ogonek;
pos = (2193,10);
},
{
name = top;
pos = (1225,1465);
}
);
shapes = (
{
closed = 1;
nodes = (
(1618,-48,o),
(2147,56,o),
(2267,545,c),
(2286,587,o),
(2310,1024,o),
(2315,1283,cs),
(2315,1333,o),
(2314,1379,o),
(2314,1426,c),
(1957,1417,o),
(1741,1411,o),
(1540,1401,c),
(1535,1238,l),
(1516,710,l),
(1515,483,o),
(1388,358,o),
(1209,358,cs),
(984.644,358,o),
(927.199,506.561,o),
(927.199,610.888,cs),
(927.199,618.162,o),
(927.479,625.221,o),
(928,632,cs),
(959,1285,l),
(959,1336,o),
(959,1389,o),
(962,1443,c),
(653,1437,l),
(168,1415,l),
(153,1312,o),
(156,1184,o),
(149,984,c),
(144,677,ls),
(143,648,o),
(142,618,o),
(142,592,cs),
(142,-7,o),
(725.118,-48,o),
(1191,-48,cs)
);
},
{
closed = 1;
nodes = (
(1290,2109,l),
(1287,2109,ls),
(1282,2109,o),
(1001,2018,o),
(940,1999,c),
(1357,1634,l),
(1385,1645,l),
(1510,1690,l)
);
}
);
};
layerId = m001;
shapes = (
{
ref = U;
},
{
pos = (908,439);
ref = gravecomb;
}
);
width = 2435;
}
);
unicode = 217;
},
{
glyphname = Uhungarumlaut;
lastChange = "2023-07-05 14:32:28 +0000";
layers = (
{
background = {
anchors = (
{
name = ogonek;
pos = (2193,10);
},
{
name = top;
pos = (1225,1465);
}
);
shapes = (
{
closed = 1;
nodes = (
(1618,-48,o),
(2147,56,o),
(2267,545,c),
(2286,587,o),
(2310,1024,o),
(2315,1283,cs),
(2315,1333,o),
(2314,1379,o),
(2314,1426,c),
(1957,1417,o),
(1741,1411,o),
(1540,1401,c),
(1535,1238,l),
(1516,710,l),
(1515,483,o),
(1388,358,o),
(1209,358,cs),
(984.644,358,o),
(927.199,506.561,o),
(927.199,610.888,cs),
(927.199,618.162,o),
(927.479,625.221,o),
(928,632,cs),
(959,1285,l),
(959,1336,o),
(959,1389,o),
(962,1443,c),
(653,1437,l),
(168,1415,l),
(153,1312,o),
(156,1184,o),
(149,984,c),
(144,677,ls),
(143,648,o),
(142,618,o),
(142,592,cs),
(142,-7,o),
(725.118,-48,o),
(1191,-48,cs)
);
},
{
closed = 1;
nodes = (
(1160,2198,l),
(797,2461,l),
(578,1734,l),
(778,1601,l)
);
},
{
closed = 1;
nodes = (
(1873,2187,l),
(1509,2486,l),
(1194,1757,ls),
(1193,1755,o),
(1192,1754,o),
(1192,1752,c),
(1357,1590,l)
);
}
);
};
layerId = m001;
shapes = (
{
ref = U;
},
{
pos = (555,439);
ref = hungarumlautcomb;
}
);
width = 2435;
}
);
unicode = 368;
},
{
glyphname = Uinvertedbreve;
kernLeft = U;
kernRight = U;
lastChange = "2023-07-05 14:32:28 +0000";
layers = (
{
background = {
anchors = (
{
name = ogonek;
pos = (2193,10);
},
{
name = top;
pos = (1237.079,1930.34);
}
);
shapes = (
{
closed = 1;
nodes = (
(1618,-48,o),
(2147,56,o),
(2267,545,c),
(2286,587,o),
(2310,1024,o),
(2315,1283,cs),
(2315,1333,o),
(2314,1379,o),
(2314,1426,c),
(1957,1417,o),
(1741,1411,o),
(1540,1401,c),
(1535,1238,l),
(1516,710,l),
(1515,483,o),
(1388,358,o),
(1209,358,cs),
(984.644,358,o),
(927.199,506.561,o),
(927.199,610.888,cs),
(927.199,618.162,o),
(927.479,625.221,o),
(928,632,cs),
(959,1285,l),
(959,1336,o),
(959,1389,o),
(962,1443,c),
(653,1437,l),
(168,1415,l),
(153,1312,o),
(156,1184,o),
(149,984,c),
(144,677,ls),
(143,648,o),
(142,618,o),
(142,592,cs),
(142,-7,o),
(725.118,-48,o),
(1191,-48,cs)
);
},
{
closed = 1;
nodes = (
(1336,1668,o),
(1335,1668,o),
(1335,1665,cs),
(1335,1652,o),
(1348,1644,o),
(1420,1644,cs),
(1510,1644,o),
(1517,1654,o),
(1517,1681,cs),
(1517,1804,o),
(1442,1930,o),
(1261,1930,cs),
(1092,1930,o),
(957,1843,o),
(957,1695,cs),
(957,1663,o),
(961,1649,o),
(1052,1649,cs),
(1118,1649,o),
(1123,1658,o),
(1126,1672,cs),
(1126,1673,o),
(1125,1674,o),
(1125,1675,cs),
(1125,1714,o),
(1150,1774,o),
(1236,1774,cs),
(1305,1774,o),
(1340,1734,o),
(1340,1698,cs),
(1340,1687,o),
(1337,1678,o),
(1336,1671,cs)
);
}
);
};
layerId = m001;
shapes = (
{
ref = U;
},
{
pos = (882,0);
ref = breveinvertedcomb;
}
);
width = 2435;
}
);
unicode = 534;
},
{
glyphname = Umacron;
lastChange = "2023-07-05 14:32:28 +0000";
layers = (
{
background = {
anchors = (
{
name = ogonek;
pos = (2193,10);
},
{
name = top;
pos = (1225,1465);
}
);
shapes = (
{
closed = 1;
nodes = (
(1618,-48,o),
(2147,56,o),
(2267,545,c),
(2286,587,o),
(2310,1024,o),
(2315,1283,cs),
(2315,1333,o),
(2314,1379,o),
(2314,1426,c),
(1957,1417,o),
(1741,1411,o),
(1540,1401,c),
(1535,1238,l),
(1516,710,l),
(1515,483,o),
(1388,358,o),
(1209,358,cs),
(984.644,358,o),
(927.199,506.561,o),
(927.199,610.888,cs),
(927.199,618.162,o),
(927.479,625.221,o),
(928,632,cs),
(959,1285,l),
(959,1336,o),
(959,1389,o),
(962,1443,c),
(653,1437,l),
(168,1415,l),
(153,1312,o),
(156,1184,o),
(149,984,c),
(144,677,ls),
(143,648,o),
(142,618,o),
(142,592,cs),
(142,-7,o),
(725.118,-48,o),
(1191,-48,cs)
);
},
{
closed = 1;
nodes = (
(788,1023,l),
(915,1025,l),
(1023,1025,o),
(1391,1033,o),
(1647,1041,c),
(1649,1075,l),
(1652,1126,o),
(1661,1390,o),
(1663,1467,c),
(830,1449,l)
);
}
);
};
layerId = m001;
shapes = (
{
ref = U;
},
{
pos = (523,439);
ref = macroncomb;
}
);
width = 2435;
}
);
unicode = 362;
},
{
glyphname = Uogonek;
lastChange = "2023-07-05 14:32:28 +0000";
layers = (
{
background = {
anchors = (
{
name = ogonek;
pos = (2193,10);
},
{
name = top;
pos = (1225,1465);
}
);
shapes = (
{
closed = 1;
nodes = (
(1618,-48,o),
(2147,56,o),
(2267,545,c),
(2286,587,o),
(2310,1024,o),
(2315,1283,cs),
(2315,1333,o),
(2314,1379,o),
(2314,1426,c),
(1957,1417,o),
(1741,1411,o),
(1540,1401,c),
(1535,1238,l),
(1516,710,l),
(1515,483,o),
(1388,358,o),
(1209,358,cs),
(984.644,358,o),
(927.199,506.561,o),
(927.199,610.888,cs),
(927.199,618.162,o),
(927.479,625.221,o),
(928,632,cs),
(959,1285,l),
(959,1336,o),
(959,1389,o),
(962,1443,c),
(653,1437,l),
(168,1415,l),
(153,1312,o),
(156,1184,o),
(149,984,c),
(144,677,ls),
(143,648,o),
(142,618,o),
(142,592,cs),
(142,-7,o),
(725.118,-48,o),
(1191,-48,cs)
);
},
{
closed = 1;
nodes = (
(1760,-510,o),
(1839,-596,o),
(1969,-596,cs),
(2024,-596,o),
(2093,-591,o),
(2145,-565,c),
(2153,-557,o),
(2165,-449,o),
(2165,-412,c),
(2111,-431,o),
(2083,-438,o),
(2012,-438,cs),
(1965,-438,o),
(1941,-412,o),
(1941,-377,cs),
(1941,-370,o),
(1942,-363,o),
(1944,-356,cs),
(1982,-209,o),
(2102,-113,o),
(2193,-17,c),
(2185,-17,o),
(2141,-18,o),
(2098,-18,cs),
(2014,-18,l),
(1891,-101,o),
(1771,-226,o),
(1760,-386,c)
);
}
);
};
layerId = m001;
shapes = (
{
ref = U;
},
{
pos = (1099,27);
ref = ogonekcomb;
}
);
width = 2435;
}
);
unicode = 370;
},
{
glyphname = Uring;
lastChange = "2023-07-05 14:32:28 +0000";
layers = (
{
background = {
anchors = (
{
name = ogonek;
pos = (2193,10);
},
{
name = top;
pos = (1225,1465);
}
);
shapes = (
{
closed = 1;
nodes = (
(1618,-48,o),
(2147,56,o),
(2267,545,c),
(2286,587,o),
(2310,1024,o),
(2315,1283,cs),
(2315,1333,o),
(2314,1379,o),
(2314,1426,c),
(1957,1417,o),
(1741,1411,o),
(1540,1401,c),
(1535,1238,l),
(1516,710,l),
(1515,483,o),
(1388,358,o),
(1209,358,cs),
(984.644,358,o),
(927.199,506.561,o),
(927.199,610.888,cs),
(927.199,618.162,o),
(927.479,625.221,o),
(928,632,cs),
(959,1285,l),
(959,1336,o),
(959,1389,o),
(962,1443,c),
(653,1437,l),
(168,1415,l),
(153,1312,o),
(156,1184,o),
(149,984,c),
(144,677,ls),
(143,648,o),
(142,618,o),
(142,592,cs),
(142,-7,o),
(725.118,-48,o),
(1191,-48,cs)
);
},
{
closed = 1;
nodes = (
(1328,1847,o),
(1289,1777,o),
(1205,1777,c),
(1134,1780,o),
(1116,1844,o),
(1116,1895,cs),
(1116,1961,o),
(1155,2033,o),
(1244,2033,cs),
(1308,2033,o),
(1328,1966,o),
(1328,1917,cs)
);
},
{
closed = 1;
nodes = (
(1398,1631,o),
(1507,1778,o),
(1507,1923,cs),
(1507,2076,o),
(1390,2176,o),
(1242,2176,cs),
(1074,2176,o),
(944,2048,o),
(944,1896,cs),
(944,1729,o),
(1066,1631,o),
(1223,1631,cs)
);
}
);
};
layerId = m001;
shapes = (
{
ref = U;
},
{
pos = (863,439);
ref = ringcomb;
}
);
width = 2435;
}
);
unicode = 366;
},
{
glyphname = V;
lastChange = "2023-07-05 14:32:28 +0000";
layers = (
{
anchors = (
{
name = bottom;
pos = (1016,0);
},
{
name = top;
pos = (1016,1465);
}
);
background = {
shapes = (
{
closed = 1;
nodes = (
(1332,1461,l),
(1091,711,l),
(815,1465,l),
(558,1460,l),
(69,1439,l),
(113,1328,ls),
(125,1298,o),
(617,132,o),
(713,-87,c),
(843,-87,o),
(1263,-65,o),
(1329,-47,c),
(1381,72,l),
(1478,272,o),
(2034,1464,o),
(2034,1470,c),
(1771,1468,l)
);
}
);
};
layerId = m001;
shapes = (
{
closed = 1;
nodes = (
(843,-87,o),
(1263,-65,o),
(1329,-47,c),
(1381,72,l),
(1478,272,o),
(2034,1464,o),
(2034,1470,c),
(1332,1461,l),
(1091,711,l),
(815,1465,l),
(558,1460,l),
(69,1439,l),
(113,1328,ls),
(125,1298,o),
(617,132,o),
(713,-87,c)
);
}
);
width = 2032;
}
);
unicode = 86;
},
{
glyphname = W;
lastChange = "2023-07-05 14:32:28 +0000";
layers = (
{
anchors = (
{
name = bottom;
pos = (1514,0);
},
{
name = top;
pos = (1514,1465);
}
);
background = {
anchors = (
{
name = top;
pos = (1513,1465);
}
);
shapes = (
{
closed = 1;
nodes = (
(1949,-87,o),
(2305,-55,o),
(2371,-37,cs),
(2408,-27,o),
(2395,6,o),
(2427,72,c),
(3014,1428,ls),
(3018,1435,o),
(3020,1442,o),
(3020,1448,cs),
(3020,1469,o),
(2992,1481,o),
(2902,1481,cs),
(2868,1481,o),
(2822,1475,o),
(2760,1468,c),
(2356,1408,ls),
(2326,1403,o),
(2323,1390,o),
(2311,1371,c),
(2120,711,l),
(1847,1458,l),
(1842,1464,o),
(1840,1468,o),
(1833,1468,cs),
(1831,1468,o),
(1828,1468,o),
(1826,1467,c),
(1826,1475,o),
(1819,1479,o),
(1796,1479,cs),
(1756,1479,o),
(1735,1475,o),
(1624,1464,c),
(1302,1428,o),
(1297,1454,o),
(1297,1399,c),
(1296,1400,l),
(1076,711,l),
(843,1458,l),
(838,1464,o),
(836,1468,o),
(829,1468,cs),
(827,1468,o),
(824,1468,o),
(822,1467,c),
(822,1475,o),
(815,1479,o),
(792,1479,cs),
(752,1479,o),
(694,1475,o),
(583,1464,c),
(261,1428,o),
(136,1424,o),
(136,1369,cs),
(136,1361,o),
(138,1353,o),
(143,1343,c),
(140,1340,o),
(138,1334,o),
(138,1328,cs),
(138,1297,o),
(168,1236,o),
(179,1199,c),
(698,-87,l),
(828,-87,o),
(1224,-55,o),
(1290,-37,cs),
(1327,-27,o),
(1374,60,o),
(1396,132,cs),
(1563,673,l),
(1819,-87,l)
);
}
);
};
layerId = m001;
shapes = (
{
closed = 1;
nodes = (
(829,-87,o),
(1225,-55,o),
(1291,-37,cs),
(1328,-27,o),
(1375,60,o),
(1397,132,cs),
(1564,673,l),
(1820,-87,l),
(1950,-87,o),
(2306,-55,o),
(2372,-37,cs),
(2409,-27,o),
(2396,6,o),
(2428,72,c),
(3015,1428,l),
(3019,1435,o),
(3021,1442,o),
(3021,1448,cs),
(3021,1469,o),
(2993,1481,o),
(2903,1481,cs),
(2869,1481,o),
(2823,1475,o),
(2761,1468,cs),
(2357,1408,ls),
(2327,1403,o),
(2324,1390,o),
(2312,1371,c),
(2121,711,l),
(1848,1458,ls),
(1842,1475,o),
(1801,1479,o),
(1797,1479,cs),
(1757,1479,o),
(1736,1475,o),
(1625,1464,cs),
(1303,1428,o),
(1312,1435,o),
(1298,1399,c),
(1077,711,l),
(844,1458,ls),
(839,1476,o),
(797,1479,o),
(793,1479,cs),
(753,1479,o),
(695,1475,o),
(584,1464,cs),
(262,1428,o),
(137,1424,o),
(137,1369,cs),
(137,1354,o),
(136,1344,o),
(139,1328,cs),
(145,1297,o),
(169,1236,o),
(180,1199,c),
(699,-87,l)
);
}
);
width = 3026;
}
);
unicode = 87;
},
{
glyphname = Wacute;
lastChange = "2023-07-05 14:32:28 +0000";
layers = (
{
background = {
anchors = (
{
name = top;
pos = (1513,1465);
}
);
shapes = (
{
closed = 1;
nodes = (
(1949,-87,o),
(2305,-55,o),
(2371,-37,cs),
(2408,-27,o),
(2395,6,o),
(2427,72,c),
(3014,1428,ls),
(3018,1435,o),
(3020,1442,o),
(3020,1448,cs),
(3020,1469,o),
(2992,1481,o),
(2902,1481,cs),
(2868,1481,o),
(2822,1475,o),
(2760,1468,c),
(2356,1408,ls),
(2326,1403,o),
(2323,1390,o),
(2311,1371,c),
(2120,711,l),
(1847,1458,l),
(1842,1464,o),
(1840,1468,o),
(1833,1468,cs),
(1831,1468,o),
(1828,1468,o),
(1826,1467,c),
(1826,1475,o),
(1819,1479,o),
(1796,1479,cs),
(1756,1479,o),
(1735,1475,o),
(1624,1464,c),
(1302,1428,o),
(1297,1454,o),
(1297,1399,c),
(1296,1400,l),
(1076,711,l),
(843,1458,l),
(838,1464,o),
(836,1468,o),
(829,1468,cs),
(827,1468,o),
(824,1468,o),
(822,1467,c),
(822,1475,o),
(815,1479,o),
(792,1479,cs),
(752,1479,o),
(694,1475,o),
(583,1464,c),
(261,1428,o),
(136,1424,o),
(136,1369,cs),
(136,1361,o),
(138,1353,o),
(143,1343,c),
(140,1340,o),
(138,1334,o),
(138,1328,cs),
(138,1297,o),
(168,1236,o),
(179,1199,c),
(698,-87,l),
(828,-87,o),
(1224,-55,o),
(1290,-37,cs),
(1327,-27,o),
(1374,60,o),
(1396,132,cs),
(1563,673,l),
(1819,-87,l)
);
},
{
closed = 1;
nodes = (
(1382,1645,o),
(1384,1644,o),
(1384,1644,c),
(1470,1709,o),
(1716,1910,o),
(1817,1991,c),
(1770,2005,o),
(1519,2077,o),
(1473,2089,c),
(1451,2058,o),
(1291,1821,o),
(1210,1686,c),
(1246,1677,o),
(1363,1648,o),
(1381,1645,cs)
);
}
);
};
layerId = m001;
shapes = (
{
ref = W;
},
{
pos = (1147,439);
ref = acutecomb;
}
);
width = 3026;
}
);
unicode = 7810;
},
{
glyphname = Wcircumflex;
lastChange = "2023-07-05 14:32:28 +0000";
layers = (
{
background = {
anchors = (
{
name = top;
pos = (1513,1465);
}
);
shapes = (
{
closed = 1;
nodes = (
(1949,-87,o),
(2305,-55,o),
(2371,-37,cs),
(2408,-27,o),
(2395,6,o),
(2427,72,c),
(3014,1428,ls),
(3018,1435,o),
(3020,1442,o),
(3020,1448,cs),
(3020,1469,o),
(2992,1481,o),
(2902,1481,cs),
(2868,1481,o),
(2822,1475,o),
(2760,1468,c),
(2356,1408,ls),
(2326,1403,o),
(2323,1390,o),
(2311,1371,c),
(2120,711,l),
(1847,1458,l),
(1842,1464,o),
(1840,1468,o),
(1833,1468,cs),
(1831,1468,o),
(1828,1468,o),
(1826,1467,c),
(1826,1475,o),
(1819,1479,o),
(1796,1479,cs),
(1756,1479,o),
(1735,1475,o),
(1624,1464,c),
(1302,1428,o),
(1297,1454,o),
(1297,1399,c),
(1296,1400,l),
(1076,711,l),
(843,1458,l),
(838,1464,o),
(836,1468,o),
(829,1468,cs),
(827,1468,o),
(824,1468,o),
(822,1467,c),
(822,1475,o),
(815,1479,o),
(792,1479,cs),
(752,1479,o),
(694,1475,o),
(583,1464,c),
(261,1428,o),
(136,1424,o),
(136,1369,cs),
(136,1361,o),
(138,1353,o),
(143,1343,c),
(140,1340,o),
(138,1334,o),
(138,1328,cs),
(138,1297,o),
(168,1236,o),
(179,1199,c),
(698,-87,l),
(828,-87,o),
(1224,-55,o),
(1290,-37,cs),
(1327,-27,o),
(1374,60,o),
(1396,132,cs),
(1563,673,l),
(1819,-87,l)
);
},
{
closed = 1;
nodes = (
(1355,1682,o),
(1469,1811,o),
(1528,1860,c),
(1566,1809,o),
(1605,1760,o),
(1643,1710,c),
(1670,1687,o),
(1694,1671,o),
(1720,1660,c),
(1755,1660,o),
(1908,1699,o),
(1945,1720,c),
(1930,1747,o),
(1889,1792,o),
(1869,1815,cs),
(1802,1890,o),
(1687,2030,o),
(1648,2067,c),
(1631,2069,o),
(1613,2069,o),
(1594,2069,cs),
(1567,2069,o),
(1539,2070,o),
(1512,2070,cs),
(1479,2070,o),
(1446,2068,o),
(1415,2060,c),
(1370,2012,o),
(1328,1967,o),
(1282,1921,cs),
(1158,1795,ls),
(1128,1764,o),
(1102,1741,o),
(1082,1716,c),
(1119,1708,o),
(1251,1661,o),
(1299,1661,c)
);
}
);
};
layerId = m001;
shapes = (
{
ref = W;
},
{
pos = (1012,439);
ref = circumflexcomb;
}
);
width = 3026;
}
);
unicode = 372;
},
{
glyphname = Wdieresis;
lastChange = "2023-07-05 14:32:28 +0000";
layers = (
{
background = {
anchors = (
{
name = top;
pos = (1513,1465);
}
);
shapes = (
{
closed = 1;
nodes = (
(1949,-87,o),
(2305,-55,o),
(2371,-37,cs),
(2408,-27,o),
(2395,6,o),
(2427,72,c),
(3014,1428,ls),
(3018,1435,o),
(3020,1442,o),
(3020,1448,cs),
(3020,1469,o),
(2992,1481,o),
(2902,1481,cs),
(2868,1481,o),
(2822,1475,o),
(2760,1468,c),
(2356,1408,ls),
(2326,1403,o),
(2323,1390,o),
(2311,1371,c),
(2120,711,l),
(1847,1458,l),
(1842,1464,o),
(1840,1468,o),
(1833,1468,cs),
(1831,1468,o),
(1828,1468,o),
(1826,1467,c),
(1826,1475,o),
(1819,1479,o),
(1796,1479,cs),
(1756,1479,o),
(1735,1475,o),
(1624,1464,c),
(1302,1428,o),
(1297,1454,o),
(1297,1399,c),
(1296,1400,l),
(1076,711,l),
(843,1458,l),
(838,1464,o),
(836,1468,o),
(829,1468,cs),
(827,1468,o),
(824,1468,o),
(822,1467,c),
(822,1475,o),
(815,1479,o),
(792,1479,cs),
(752,1479,o),
(694,1475,o),
(583,1464,c),
(261,1428,o),
(136,1424,o),
(136,1369,cs),
(136,1361,o),
(138,1353,o),
(143,1343,c),
(140,1340,o),
(138,1334,o),
(138,1328,cs),
(138,1297,o),
(168,1236,o),
(179,1199,c),
(698,-87,l),
(828,-87,o),
(1224,-55,o),
(1290,-37,cs),
(1327,-27,o),
(1374,60,o),
(1396,132,cs),
(1563,673,l),
(1819,-87,l)
);
},
{
closed = 1;
nodes = (
(2019,1658,l),
(2019,2015,l),
(2000,2015,l),
(1647,2015,l),
(1639,1659,l),
(1967,1658,l)
);
},
{
closed = 1;
nodes = (
(1007,1657,o),
(1010,1657,o),
(1017,1657,cs),
(1134,1657,o),
(1241,1659,o),
(1388,1659,c),
(1393,2017,l),
(1375,2017,ls),
(1275,2017,o),
(1151,2015,o),
(1047,2015,cs),
(1020,2015,l),
(1007,1667,l),
(1007,1664,ls)
);
}
);
};
layerId = m001;
shapes = (
{
ref = W;
},
{
pos = (919,439);
ref = dieresiscomb;
}
);
width = 3026;
}
);
unicode = 7812;
},
{
glyphname = Wgrave;
lastChange = "2023-07-05 14:32:28 +0000";
layers = (
{
background = {
anchors = (
{
name = top;
pos = (1513,1465);
}
);
shapes = (
{
closed = 1;
nodes = (
(1949,-87,o),
(2305,-55,o),
(2371,-37,cs),
(2408,-27,o),
(2395,6,o),
(2427,72,c),
(3014,1428,ls),
(3018,1435,o),
(3020,1442,o),
(3020,1448,cs),
(3020,1469,o),
(2992,1481,o),
(2902,1481,cs),
(2868,1481,o),
(2822,1475,o),
(2760,1468,c),
(2356,1408,ls),
(2326,1403,o),
(2323,1390,o),
(2311,1371,c),
(2120,711,l),
(1847,1458,l),
(1842,1464,o),
(1840,1468,o),
(1833,1468,cs),
(1831,1468,o),
(1828,1468,o),
(1826,1467,c),
(1826,1475,o),
(1819,1479,o),
(1796,1479,cs),
(1756,1479,o),
(1735,1475,o),
(1624,1464,c),
(1302,1428,o),
(1297,1454,o),
(1297,1399,c),
(1296,1400,l),
(1076,711,l),
(843,1458,l),
(838,1464,o),
(836,1468,o),
(829,1468,cs),
(827,1468,o),
(824,1468,o),
(822,1467,c),
(822,1475,o),
(815,1479,o),
(792,1479,cs),
(752,1479,o),
(694,1475,o),
(583,1464,c),
(261,1428,o),
(136,1424,o),
(136,1369,cs),
(136,1361,o),
(138,1353,o),
(143,1343,c),
(140,1340,o),
(138,1334,o),
(138,1328,cs),
(138,1297,o),
(168,1236,o),
(179,1199,c),
(698,-87,l),
(828,-87,o),
(1224,-55,o),
(1290,-37,cs),
(1327,-27,o),
(1374,60,o),
(1396,132,cs),
(1563,673,l),
(1819,-87,l)
);
},
{
closed = 1;
nodes = (
(1578,2109,l),
(1575,2109,ls),
(1570,2109,o),
(1289,2018,o),
(1228,1999,c),
(1645,1634,l),
(1673,1645,l),
(1798,1690,l)
);
}
);
};
layerId = m001;
shapes = (
{
ref = W;
},
{
pos = (1204,439);
ref = gravecomb;
}
);
width = 3026;
}
);
unicode = 7808;
},
{
glyphname = X;
lastChange = "2023-07-05 14:32:28 +0000";
layers = (
{
anchors = (
{
name = bottom;
pos = (1130,0);
},
{
name = top;
pos = (1130,1465);
}
);
background = {
shapes = (
{
closed = 1;
nodes = (
(790,1492,l),
(790,1492,o),
(782,1490,o),
(770,1489,c),
(339,1412,o),
(165,1339,o),
(124,1329,c),
(725,725,l),
(455,455,o),
(371,357,o),
(316,294,cs),
(164,123,l),
(776,-92,l),
(1162,299,l),
(1607,-88,l),
(1783,-23,l),
(2197,172,l),
(2040,321,o),
(1685,652,o),
(1595,732,c),
(1677,806,o),
(1804,939,o),
(2216,1350,c),
(1489,1478,l),
(1159,1130,l)
);
}
);
};
layerId = m001;
shapes = (
{
closed = 1;
nodes = (
(1162,299,l),
(1607,-88,l),
(1783,-23,l),
(2197,172,l),
(2040,321,o),
(1685,652,o),
(1595,732,c),
(1677,806,o),
(1804,939,o),
(2216,1350,c),
(1489,1478,l),
(1159,1130,l),
(790,1492,l),
(790,1492,o),
(782,1490,o),
(770,1489,c),
(339,1412,o),
(165,1339,o),
(124,1329,c),
(725,725,l),
(455,455,o),
(371,357,o),
(316,294,cs),
(164,123,l),
(776,-92,l)
);
}
);
width = 2260;
}
);
unicode = 88;
},
{
glyphname = Y;
kernLeft = Y;
kernRight = Y;
lastChange = "2023-07-05 14:32:28 +0000";
layers = (
{
anchors = (
{
name = bottom;
pos = (1017,0);
},
{
name = top;
pos = (1017,1465);
},
{
name = topleft;
pos = (20,1465);
}
);
background = {
anchors = (
{
name = top;
pos = (1021,1465);
}
);
shapes = (
{
closed = 1;
nodes = (
(1233,2,l),
(1372,8,l),
(1398,561,l),
(2019,1428,ls),
(2023,1435,o),
(2025,1442,o),
(2025,1448,cs),
(2025,1469,o),
(1997,1481,o),
(1907,1481,cs),
(1873,1481,o),
(1827,1475,o),
(1765,1468,c),
(1371,1446,l),
(1341,1441,o),
(1338,1428,o),
(1326,1409,cs),
(1105,1022,l),
(792,1458,ls),
(787,1464,o),
(785,1468,o),
(778,1468,cs),
(776,1468,o),
(773,1468,o),
(771,1467,c),
(771,1475,o),
(764,1479,o),
(741,1479,cs),
(701,1479,o),
(663,1475,o),
(552,1464,c),
(230,1428,o),
(105,1424,o),
(105,1369,cs),
(105,1361,o),
(107,1353,o),
(112,1343,c),
(656,513,l),
(656,481,o),
(658,46,o),
(667,-10,c)
);
}
);
};
layerId = m001;
shapes = (
{
closed = 1;
nodes = (
(1233,2,l),
(1372,8,l),
(1398,561,l),
(2019,1428,l),
(2023,1435,o),
(2025,1442,o),
(2025,1448,cs),
(2025,1469,o),
(1997,1481,o),
(1907,1481,cs),
(1873,1481,o),
(1827,1475,o),
(1765,1468,c),
(1371,1446,l),
(1341,1441,o),
(1338,1428,o),
(1326,1409,cs),
(1105,1022,l),
(792,1458,ls),
(780,1472,o),
(763,1481,o),
(741,1479,cs),
(701,1475,o),
(663,1475,o),
(552,1464,cs),
(230,1428,o),
(105,1424,o),
(105,1369,cs),
(105,1361,o),
(107,1353,o),
(112,1343,c),
(656,513,l),
(656,481,o),
(658,46,o),
(667,-10,c)
);
}
);
width = 2033;
}
);
unicode = 89;
},
{
glyphname = Yacute;
kernLeft = Y;
kernRight = Y;
lastChange = "2023-07-05 14:32:28 +0000";
layers = (
{
background = {
anchors = (
{
name = top;
pos = (1021,1465);
}
);
shapes = (
{
closed = 1;
nodes = (
(1233,2,l),
(1372,8,l),
(1398,561,l),
(2019,1428,ls),
(2023,1435,o),
(2025,1442,o),
(2025,1448,cs),
(2025,1469,o),
(1997,1481,o),
(1907,1481,cs),
(1873,1481,o),
(1827,1475,o),
(1765,1468,c),
(1371,1446,l),
(1341,1441,o),
(1338,1428,o),
(1326,1409,cs),
(1105,1022,l),
(792,1458,ls),
(787,1464,o),
(785,1468,o),
(778,1468,cs),
(776,1468,o),
(773,1468,o),
(771,1467,c),
(771,1475,o),
(764,1479,o),
(741,1479,cs),
(701,1479,o),
(663,1475,o),
(552,1464,c),
(230,1428,o),
(105,1424,o),
(105,1369,cs),
(105,1361,o),
(107,1353,o),
(112,1343,c),
(656,513,l),
(656,481,o),
(658,46,o),
(667,-10,c)
);
},
{
closed = 1;
nodes = (
(890,1645,o),
(892,1644,o),
(892,1644,c),
(978,1709,o),
(1224,1910,o),
(1325,1991,c),
(1278,2005,o),
(1027,2077,o),
(981,2089,c),
(959,2058,o),
(799,1821,o),
(718,1686,c),
(754,1677,o),
(871,1648,o),
(889,1645,cs)
);
}
);
};
layerId = m001;
shapes = (
{
ref = Y;
},
{
pos = (650,439);
ref = acutecomb;
}
);
width = 2033;
}
);
unicode = 221;
},
{
glyphname = Ycircumflex;
lastChange = "2023-07-05 14:32:28 +0000";
layers = (
{
background = {
anchors = (
{
name = top;
pos = (1021,1465);
}
);
shapes = (
{
closed = 1;
nodes = (
(1233,2,l),
(1372,8,l),
(1398,561,l),
(2019,1428,ls),
(2023,1435,o),
(2025,1442,o),
(2025,1448,cs),
(2025,1469,o),
(1997,1481,o),
(1907,1481,cs),
(1873,1481,o),
(1827,1475,o),
(1765,1468,c),
(1371,1446,l),
(1341,1441,o),
(1338,1428,o),
(1326,1409,cs),
(1105,1022,l),
(792,1458,ls),
(787,1464,o),
(785,1468,o),
(778,1468,cs),
(776,1468,o),
(773,1468,o),
(771,1467,c),
(771,1475,o),
(764,1479,o),
(741,1479,cs),
(701,1479,o),
(663,1475,o),
(552,1464,c),
(230,1428,o),
(105,1424,o),
(105,1369,cs),
(105,1361,o),
(107,1353,o),
(112,1343,c),
(656,513,l),
(656,481,o),
(658,46,o),
(667,-10,c)
);
},
{
closed = 1;
nodes = (
(863,1682,o),
(977,1811,o),
(1036,1860,c),
(1074,1809,o),
(1113,1760,o),
(1151,1710,c),
(1178,1687,o),
(1202,1671,o),
(1228,1660,c),
(1263,1660,o),
(1416,1699,o),
(1453,1720,c),
(1438,1747,o),
(1397,1792,o),
(1377,1815,cs),
(1310,1890,o),
(1195,2030,o),
(1156,2067,c),
(1139,2069,o),
(1121,2069,o),
(1102,2069,cs),
(1075,2069,o),
(1047,2070,o),
(1020,2070,cs),
(987,2070,o),
(954,2068,o),
(923,2060,c),
(878,2012,o),
(836,1967,o),
(790,1921,cs),
(666,1795,ls),
(636,1764,o),
(610,1741,o),
(590,1716,c),
(627,1708,o),
(759,1661,o),
(807,1661,c)
);
}
);
};
layerId = m001;
shapes = (
{
ref = Y;
},
{
pos = (515,439);
ref = circumflexcomb;
}
);
width = 2033;
}
);
unicode = 374;
},
{
glyphname = Ydieresis;
kernLeft = Y;
kernRight = Y;
lastChange = "2023-07-05 14:32:28 +0000";
layers = (
{
background = {
anchors = (
{
name = top;
pos = (1021,1465);
}
);
shapes = (
{
closed = 1;
nodes = (
(1233,2,l),
(1372,8,l),
(1398,561,l),
(2019,1428,ls),
(2023,1435,o),
(2025,1442,o),
(2025,1448,cs),
(2025,1469,o),
(1997,1481,o),
(1907,1481,cs),
(1873,1481,o),
(1827,1475,o),
(1765,1468,c),
(1371,1446,l),
(1341,1441,o),
(1338,1428,o),
(1326,1409,cs),
(1105,1022,l),
(792,1458,ls),
(787,1464,o),
(785,1468,o),
(778,1468,cs),
(776,1468,o),
(773,1468,o),
(771,1467,c),
(771,1475,o),
(764,1479,o),
(741,1479,cs),
(701,1479,o),
(663,1475,o),
(552,1464,c),
(230,1428,o),
(105,1424,o),
(105,1369,cs),
(105,1361,o),
(107,1353,o),
(112,1343,c),
(656,513,l),
(656,481,o),
(658,46,o),
(667,-10,c)
);
},
{
closed = 1;
nodes = (
(1527,1658,l),
(1527,2015,l),
(1508,2015,l),
(1155,2015,l),
(1147,1659,l),
(1475,1658,l)
);
},
{
closed = 1;
nodes = (
(515,1657,o),
(518,1657,o),
(525,1657,cs),
(642,1657,o),
(749,1659,o),
(896,1659,c),
(901,2017,l),
(883,2017,ls),
(783,2017,o),
(659,2015,o),
(555,2015,cs),
(528,2015,l),
(515,1667,l),
(515,1664,ls)
);
}
);
};
layerId = m001;
shapes = (
{
ref = Y;
},
{
pos = (422,439);
ref = dieresiscomb;
}
);
width = 2033;
}
);
unicode = 376;
},
{
glyphname = Ygrave;
lastChange = "2023-07-05 14:32:28 +0000";
layers = (
{
background = {
anchors = (
{
name = top;
pos = (1021,1465);
}
);
shapes = (
{
closed = 1;
nodes = (
(1233,2,l),
(1372,8,l),
(1398,561,l),
(2019,1428,ls),
(2023,1435,o),
(2025,1442,o),
(2025,1448,cs),
(2025,1469,o),
(1997,1481,o),
(1907,1481,cs),
(1873,1481,o),
(1827,1475,o),
(1765,1468,c),
(1371,1446,l),
(1341,1441,o),
(1338,1428,o),
(1326,1409,cs),
(1105,1022,l),
(792,1458,ls),
(787,1464,o),
(785,1468,o),
(778,1468,cs),
(776,1468,o),
(773,1468,o),
(771,1467,c),
(771,1475,o),
(764,1479,o),
(741,1479,cs),
(701,1479,o),
(663,1475,o),
(552,1464,c),
(230,1428,o),
(105,1424,o),
(105,1369,cs),
(105,1361,o),
(107,1353,o),
(112,1343,c),
(656,513,l),
(656,481,o),
(658,46,o),
(667,-10,c)
);
},
{
closed = 1;
nodes = (
(1086,2109,l),
(1083,2109,ls),
(1078,2109,o),
(797,2018,o),
(736,1999,c),
(1153,1634,l),
(1181,1645,l),
(1306,1690,l)
);
}
);
};
layerId = m001;
shapes = (
{
ref = Y;
},
{
pos = (707,439);
ref = gravecomb;
}
);
width = 2033;
}
);
unicode = 7922;
},
{
glyphname = Z;
kernLeft = Z;
kernRight = Z;
lastChange = "2023-07-05 14:32:28 +0000";
layers = (
{
anchors = (
{
name = bottom;
pos = (992,0);
},
{
name = center;
pos = (992,733);
},
{
name = top;
pos = (992,1465);
}
);
background = {
anchors = (
{
name = top;
pos = (992,1465);
}
);
shapes = (
{
closed = 1;
nodes = (
(1537,0,o),
(1794,25,o),
(1818,28,c),
(1830,77,o),
(1885,374,o),
(1885,415,c),
(1839,421,o),
(1786,426,o),
(1732,426,cs),
(1652,426,o),
(1575,420,o),
(1494,420,cs),
(1191,420,l),
(1415,710,o),
(1814,1334,o),
(1854,1408,c),
(1460,1408,o),
(1071,1420,o),
(675,1420,cs),
(519,1420,o),
(358,1416,o),
(221,1392,c),
(166,1011,l),
(224,1007,o),
(289,1000,o),
(352,1000,cs),
(365,1000,o),
(376,1003,o),
(389,1003,cs),
(525,1003,o),
(762,1001,o),
(879,996,c),
(162,59,ls),
(162,58,o),
(161,26,o),
(161,25,cs),
(219,4,o),
(292,0,o),
(361,0,cs),
(1381,0,ls)
);
}
);
};
layerId = m001;
shapes = (
{
closed = 1;
nodes = (
(1381,0,ls),
(1537,0,o),
(1794,25,o),
(1818,28,c),
(1830,77,o),
(1885,374,o),
(1885,415,c),
(1839,421,o),
(1786,426,o),
(1732,426,cs),
(1652,426,o),
(1575,420,o),
(1494,420,cs),
(1191,420,l),
(1415,710,o),
(1814,1334,o),
(1854,1408,c),
(1460,1408,o),
(1071,1420,o),
(675,1420,cs),
(519,1420,o),
(358,1416,o),
(221,1392,c),
(166,1011,l),
(224,1007,o),
(289,1000,o),
(352,1000,cs),
(365,1000,o),
(376,1003,o),
(389,1003,cs),
(525,1003,o),
(762,1001,o),
(879,996,c),
(162,59,l),
(161,25,l),
(219,4,o),
(292,0,o),
(361,0,cs)
);
}
);
width = 1984;
}
);
unicode = 90;
},
{
glyphname = Zacute;
lastChange = "2023-07-05 14:32:28 +0000";
layers = (
{
background = {
anchors = (
{
name = top;
pos = (992,1465);
}
);
shapes = (
{
closed = 1;
nodes = (
(1537,0,o),
(1794,25,o),
(1818,28,c),
(1830,77,o),
(1885,374,o),
(1885,415,c),
(1839,421,o),
(1786,426,o),
(1732,426,cs),
(1652,426,o),
(1575,420,o),
(1494,420,cs),
(1191,420,l),
(1415,710,o),
(1814,1334,o),
(1854,1408,c),
(1460,1408,o),
(1071,1420,o),
(675,1420,cs),
(519,1420,o),
(358,1416,o),
(221,1392,c),
(166,1011,l),
(224,1007,o),
(289,1000,o),
(352,1000,cs),
(365,1000,o),
(376,1003,o),
(389,1003,cs),
(525,1003,o),
(762,1001,o),
(879,996,c),
(162,59,ls),
(162,58,o),
(161,26,o),
(161,25,cs),
(219,4,o),
(292,0,o),
(361,0,cs),
(1381,0,ls)
);
},
{
closed = 1;
nodes = (
(861,1645,o),
(863,1644,o),
(863,1644,c),
(949,1709,o),
(1195,1910,o),
(1296,1991,c),
(1249,2005,o),
(998,2077,o),
(952,2089,c),
(930,2058,o),
(770,1821,o),
(689,1686,c),
(725,1677,o),
(842,1648,o),
(860,1645,cs)
);
}
);
};
layerId = m001;
shapes = (
{
ref = Z;
},
{
pos = (625,439);
ref = acutecomb;
}
);
width = 1984;
}
);
unicode = 377;
},
{
glyphname = Zcaron;
kernLeft = Z;
kernRight = Z;
lastChange = "2023-07-05 14:32:28 +0000";
layers = (
{
background = {
anchors = (
{
name = top;
pos = (992,1465);
}
);
shapes = (
{
closed = 1;
nodes = (
(1537,0,o),
(1794,25,o),
(1818,28,c),
(1830,77,o),
(1885,374,o),
(1885,415,c),
(1839,421,o),
(1786,426,o),
(1732,426,cs),
(1652,426,o),
(1575,420,o),
(1494,420,cs),
(1191,420,l),
(1415,710,o),
(1814,1334,o),
(1854,1408,c),
(1460,1408,o),
(1071,1420,o),
(675,1420,cs),
(519,1420,o),
(358,1416,o),
(221,1392,c),
(166,1011,l),
(224,1007,o),
(289,1000,o),
(352,1000,cs),
(365,1000,o),
(376,1003,o),
(389,1003,cs),
(525,1003,o),
(762,1001,o),
(879,996,c),
(162,59,ls),
(162,58,o),
(161,26,o),
(161,25,cs),
(219,4,o),
(292,0,o),
(361,0,cs),
(1381,0,ls)
);
},
{
closed = 1;
nodes = (
(488,2221,o),
(486,2217,o),
(486,2211,cs),
(486,2204,o),
(489,2196,o),
(495,2186,cs),
(592,2029,o),
(822,1686,o),
(824,1686,c),
(827,1684,o),
(834,1684,o),
(838,1684,cs),
(1016,1684,l),
(1017,1683,o),
(1020,1682,o),
(1022,1682,cs),
(1026,1682,o),
(1030,1684,o),
(1034,1688,cs),
(1174,1851,o),
(1319,2018,o),
(1469,2186,c),
(1490,2205,o),
(1498,2219,o),
(1498,2229,cs),
(1498,2232,o),
(1497,2234,o),
(1496,2237,c),
(1497,2238,o),
(1497,2240,o),
(1497,2242,cs),
(1497,2275,o),
(1332,2344,o),
(1289,2376,c),
(1248,2397,o),
(1228,2404,o),
(1220,2404,c),
(1220,2404,o),
(1219,2403,o),
(1219,2402,cs),
(1220,2401,l),
(1136,2286,o),
(1047,2177,o),
(961,2065,c),
(813,2375,l),
(804,2397,o),
(801,2405,o),
(796,2405,cs),
(768,2405,o),
(490,2269,o),
(490,2228,cs),
(490,2227,o),
(490,2226,o),
(491,2225,c)
);
}
);
};
layerId = m001;
shapes = (
{
ref = Z;
},
{
pos = (474,439);
ref = caroncomb;
}
);
width = 1984;
}
);
unicode = 381;
},
{
glyphname = Zdotaccent;
lastChange = "2023-07-05 14:32:28 +0000";
layers = (
{
background = {
anchors = (
{
name = top;
pos = (992,1465);
}
);
shapes = (
{
closed = 1;
nodes = (
(1537,0,o),
(1794,25,o),
(1818,28,c),
(1830,77,o),
(1885,374,o),
(1885,415,c),
(1839,421,o),
(1786,426,o),
(1732,426,cs),
(1652,426,o),
(1575,420,o),
(1494,420,cs),
(1191,420,l),
(1415,710,o),
(1814,1334,o),
(1854,1408,c),
(1460,1408,o),
(1071,1420,o),
(675,1420,cs),
(519,1420,o),
(358,1416,o),
(221,1392,c),
(166,1011,l),
(224,1007,o),
(289,1000,o),
(352,1000,cs),
(365,1000,o),
(376,1003,o),
(389,1003,cs),
(525,1003,o),
(762,1001,o),
(879,996,c),
(162,59,ls),
(162,58,o),
(161,26,o),
(161,25,cs),
(219,4,o),
(292,0,o),
(361,0,cs),
(1381,0,ls)
);
},
{
closed = 1;
nodes = (
(777,1828,o),
(780,1828,o),
(788,1828,cs),
(917,1828,o),
(1036,1830,o),
(1149,1831,c),
(1174,1834,o),
(1174,1847,o),
(1179,1891,c),
(1207,2205,l),
(1207,2224,o),
(1198,2229,o),
(1186,2229,cs),
(1073,2228,o),
(938,2227,o),
(821,2227,c),
(797,2223,o),
(794,2210,o),
(792,2166,cs),
(775,1877,o),
(788,2091,o),
(777,1839,c),
(777,1835,ls)
);
}
);
};
layerId = m001;
shapes = (
{
ref = Z;
},
{
pos = (704,439);
ref = dotaccentcomb;
}
);
width = 1984;
}
);
unicode = 379;
},
{
glyphname = E_E;
lastChange = "2023-07-05 14:32:28 +0000";
layers = (
{
anchors = (
{
name = bottom_1;
pos = (1024,0);
},
{
name = bottom_2;
pos = (3072,0);
},
{
name = caret_1;
pos = (2048,0);
},
{
name = ogonek_1;
pos = (1024,10);
},
{
name = ogonek_2;
pos = (3072,10);
},
{
name = top_1;
pos = (1024,1465);
},
{
name = top_2;
pos = (3072,1465);
},
{
name = topleft_1;
pos = (20,1465);
},
{
name = topleft_2;
pos = (20,1465);
}
);
background = {
anchors = (
{
name = bottom;
pos = (1989,0);
},
{
name = ogonek;
pos = (3579,10);
},
{
name = top;
pos = (1989,1026);
}
);
shapes = (
{
closed = 1;
nodes = (
(3895,349,l),
(2845,349,l),
(2856,556,l),
(2916,557,o),
(3433,559,o),
(3437,560,c),
(3481,887,l),
(2869,880,l),
(2875,950,o),
(2875,1004,o),
(2881,1047,c),
(3868,1069,l),
(3886,1431,l),
(3690,1433,l),
(2329,1433,l),
(2244,1429,o),
(2238,1430,o),
(2172,1428,c),
(2172,1399,o),
(2145,-6,o),
(2144,-7,c),
(2305,-2,o),
(2971,-9,o),
(3247,-9,cs),
(3491,-9,o),
(3644,-12,o),
(3883,-13,c)
);
},
{
closed = 1;
nodes = (
(1966,349,l),
(916,349,l),
(927,556,l),
(987,557,o),
(1515,559,o),
(1519,560,c),
(1542,646,o),
(1562,828,o),
(1562,879,cs),
(1562,887,l),
(1535,883,o),
(1115,882,o),
(940,880,c),
(946,950,o),
(946,1004,o),
(952,1047,c),
(1916,1069,l),
(1957,1431,l),
(1761,1433,l),
(400,1433,l),
(315,1429,o),
(309,1430,o),
(243,1428,c),
(243,1399,o),
(176,-1,o),
(175,-2,cs),
(376,3,l),
(376,3,o),
(1042,-22,o),
(1318,-22,cs),
(1562,-22,o),
(1695,-23,o),
(1934,-24,c)
);
}
);
};
layerId = m001;
shapes = (
{
ref = E;
},
{
pos = (2048,0);
ref = E;
}
);
width = 4096;
}
);
},
{
glyphname = a;
kernLeft = a;
kernRight = a;
lastChange = "2023-07-05 14:32:28 +0000";
layers = (
{
anchors = (
{
name = bottom;
pos = (918,0);
},
{
name = ogonek;
pos = (1612,30);
},
{
name = top;
pos = (918,1026);
}
);
background = {
anchors = (
{
name = ogonek;
pos = (1651,10);
},
{
name = top;
pos = (918,1026);
}
);
shapes = (
{
closed = 1;
nodes = (
(999,-39,o),
(1154,66,o),
(1231,191,c),
(1292,-6,l),
(1668,22,l),
(1671,1041,l),
(1219,1079,l),
(1217,866,l),
(1100,1016,o),
(958,1058,o),
(735,1058,cs),
(410,1058,o),
(119,858,o),
(119,476,cs),
(119,114,o),
(451,-39,o),
(751,-39,cs)
);
},
{
closed = 1;
nodes = (
(808,264,o),
(704,327,o),
(704,475,cs),
(704,609,o),
(783,724,o),
(928,724,cs),
(1067,724,o),
(1148,627,o),
(1148,500,cs),
(1148,348,o),
(1068,267,o),
(921,264,c)
);
}
);
};
layerId = m001;
shapes = (
{
closed = 1;
nodes = (
(999,-39,o),
(1154,66,o),
(1231,191,c),
(1292,-6,l),
(1668,22,l),
(1671,1041,l),
(1219,1079,l),
(1217,866,l),
(1100,1016,o),
(958,1058,o),
(735,1058,cs),
(410,1058,o),
(119,858,o),
(119,476,cs),
(119,114,o),
(451,-39,o),
(751,-39,cs)
);
},
{
closed = 1;
nodes = (
(808,264,o),
(704,327,o),
(704,475,cs),
(704,609,o),
(783,724,o),
(928,724,cs),
(1067,724,o),
(1148,627,o),
(1148,500,cs),
(1148,348,o),
(1068,267,o),
(921,264,cs)
);
}
);
width = 1835;
}
);
unicode = 97;
},
{
glyphname = aacute;
kernLeft = a;
kernRight = a;
lastChange = "2023-07-05 14:32:28 +0000";
layers = (
{
background = {
anchors = (
{
name = ogonek;
pos = (1651,10);
},
{
name = top;
pos = (918,1026);
}
);
shapes = (
{
closed = 1;
nodes = (
(999,-39,o),
(1154,66,o),
(1231,191,c),
(1292,-6,l),
(1668,22,l),
(1671,1041,l),
(1219,1079,l),
(1217,866,l),
(1100,1016,o),
(958,1058,o),
(735,1058,cs),
(410,1058,o),
(119,858,o),
(119,476,cs),
(119,114,o),
(451,-39,o),
(751,-39,cs)
);
},
{
closed = 1;
nodes = (
(808,264,o),
(704,327,o),
(704,475,cs),
(704,609,o),
(783,724,o),
(928,724,cs),
(1067,724,o),
(1148,627,o),
(1148,500,cs),
(1148,348,o),
(1068,267,o),
(921,264,c)
);
},
{
closed = 1;
nodes = (
(787,1206,o),
(789,1205,o),
(789,1205,c),
(875,1270,o),
(1121,1471,o),
(1222,1552,c),
(1175,1566,o),
(924,1638,o),
(878,1650,c),
(856,1619,o),
(696,1382,o),
(615,1247,c),
(651,1238,o),
(768,1209,o),
(786,1206,cs)
);
}
);
};
layerId = m001;
shapes = (
{
ref = a;
},
{
pos = (551,0);
ref = acutecomb;
}
);
width = 1835;
}
);
unicode = 225;
},
{
glyphname = abreve;
lastChange = "2023-07-05 14:32:28 +0000";
layers = (
{
background = {
anchors = (
{
name = ogonek;
pos = (1651,10);
},
{
name = top;
pos = (918,1026);
}
);
shapes = (
{
closed = 1;
nodes = (
(999,-39,o),
(1154,66,o),
(1231,191,c),
(1292,-6,l),
(1668,22,l),
(1671,1041,l),
(1219,1079,l),
(1217,866,l),
(1100,1016,o),
(958,1058,o),
(735,1058,cs),
(410,1058,o),
(119,858,o),
(119,476,cs),
(119,114,o),
(451,-39,o),
(751,-39,cs)
);
},
{
closed = 1;
nodes = (
(808,264,o),
(704,327,o),
(704,475,cs),
(704,609,o),
(783,724,o),
(928,724,cs),
(1067,724,o),
(1148,627,o),
(1148,500,cs),
(1148,348,o),
(1068,267,o),
(921,264,c)
);
},
{
closed = 1;
nodes = (
(1001,1339,o),
(908,1339,cs),
(823,1339,o),
(794,1392,o),
(794,1434,cs),
(794,1448,o),
(797,1461,o),
(797,1465,c),
(596,1465,l),
(589,1440,o),
(586,1416,o),
(586,1394,cs),
(586,1249,o),
(727,1151,o),
(894,1151,cs),
(1096,1151,o),
(1250,1251,o),
(1250,1465,c),
(1041,1463,l),
(1041,1377,o)
);
}
);
};
layerId = m001;
shapes = (
{
ref = a;
},
{
pos = (512,0);
ref = brevecomb;
}
);
width = 1835;
}
);
unicode = 259;
},
{
glyphname = acircumflex;
kernLeft = a;
kernRight = a;
lastChange = "2023-07-05 14:32:28 +0000";
layers = (
{
background = {
anchors = (
{
name = ogonek;
pos = (1651,10);
},
{
name = top;
pos = (918,1026);
}
);
shapes = (
{
closed = 1;
nodes = (
(999,-39,o),
(1154,66,o),
(1231,191,c),
(1292,-6,l),
(1668,22,l),
(1671,1041,l),
(1219,1079,l),
(1217,866,l),
(1100,1016,o),
(958,1058,o),
(735,1058,cs),
(410,1058,o),
(119,858,o),
(119,476,cs),
(119,114,o),
(451,-39,o),
(751,-39,cs)
);
},
{
closed = 1;
nodes = (
(808,264,o),
(704,327,o),
(704,475,cs),
(704,609,o),
(783,724,o),
(928,724,cs),
(1067,724,o),
(1148,627,o),
(1148,500,cs),
(1148,348,o),
(1068,267,o),
(921,264,c)
);
},
{
closed = 1;
nodes = (
(760,1243,o),
(874,1372,o),
(933,1421,c),
(971,1370,o),
(1010,1321,o),
(1048,1271,c),
(1075,1248,o),
(1099,1232,o),
(1125,1221,c),
(1160,1221,o),
(1313,1260,o),
(1350,1281,c),
(1335,1308,o),
(1294,1353,o),
(1274,1376,cs),
(1207,1451,o),
(1092,1591,o),
(1053,1628,c),
(1036,1630,o),
(1018,1630,o),
(999,1630,cs),
(972,1630,o),
(944,1631,o),
(917,1631,cs),
(884,1631,o),
(851,1629,o),
(820,1621,c),
(775,1573,o),
(733,1528,o),
(687,1482,cs),
(563,1356,ls),
(533,1325,o),
(507,1302,o),
(487,1277,c),
(524,1269,o),
(656,1222,o),
(704,1222,c)
);
}
);
};
layerId = m001;
shapes = (
{
ref = a;
},
{
pos = (416,0);
ref = circumflexcomb;
}
);
width = 1835;
}
);
unicode = 226;
},
{
glyphname = adblgrave;
kernLeft = a;
kernRight = a;
lastChange = "2023-07-05 14:32:28 +0000";
layers = (
{
background = {
anchors = (
{
name = ogonek;
pos = (1651,10);
},
{
name = top;
pos = (918,1026);
}
);
shapes = (
{
closed = 1;
nodes = (
(999,-39,o),
(1154,66,o),
(1231,191,c),
(1292,-6,l),
(1668,22,l),
(1671,1041,l),
(1219,1079,l),
(1217,866,l),
(1100,1016,o),
(958,1058,o),
(735,1058,cs),
(410,1058,o),
(119,858,o),
(119,476,cs),
(119,114,o),
(451,-39,o),
(751,-39,cs)
);
},
{
closed = 1;
nodes = (
(808,264,o),
(704,327,o),
(704,475,cs),
(704,609,o),
(783,724,o),
(928,724,cs),
(1067,724,o),
(1148,627,o),
(1148,500,cs),
(1148,348,o),
(1068,267,o),
(921,264,c)
);
}
);
};
layerId = m001;
shapes = (
{
ref = a;
},
{
pos = (394,0);
ref = dblgravecomb;
}
);
width = 1835;
}
);
unicode = 513;
},
{
glyphname = adieresis;
kernLeft = a;
kernRight = a;
lastChange = "2023-07-05 14:32:28 +0000";
layers = (
{
background = {
anchors = (
{
name = ogonek;
pos = (1651,10);
},
{
name = top;
pos = (918,1026);
}
);
shapes = (
{
closed = 1;
nodes = (
(999,-39,o),
(1154,66,o),
(1231,191,c),
(1292,-6,l),
(1668,22,l),
(1671,1041,l),
(1219,1079,l),
(1217,866,l),
(1100,1016,o),
(958,1058,o),
(735,1058,cs),
(410,1058,o),
(119,858,o),
(119,476,cs),
(119,114,o),
(451,-39,o),
(751,-39,cs)
);
},
{
closed = 1;
nodes = (
(808,264,o),
(704,327,o),
(704,475,cs),
(704,609,o),
(783,724,o),
(928,724,cs),
(1067,724,o),
(1148,627,o),
(1148,500,cs),
(1148,348,o),
(1068,267,o),
(921,264,c)
);
},
{
closed = 1;
nodes = (
(1424,1219,l),
(1424,1576,l),
(1405,1576,l),
(1052,1576,l),
(1044,1220,l),
(1372,1219,l)
);
},
{
closed = 1;
nodes = (
(412,1218,o),
(415,1218,o),
(422,1218,cs),
(539,1218,o),
(646,1220,o),
(793,1220,c),
(798,1578,l),
(780,1578,ls),
(680,1578,o),
(556,1576,o),
(452,1576,cs),
(425,1576,l),
(412,1228,l),
(412,1225,ls)
);
}
);
};
layerId = m001;
shapes = (
{
ref = a;
},
{
pos = (323,0);
ref = dieresiscomb;
}
);
width = 1835;
}
);
unicode = 228;
},
{
glyphname = agrave;
kernLeft = a;
kernRight = a;
lastChange = "2023-07-05 14:32:28 +0000";
layers = (
{
background = {
anchors = (
{
name = ogonek;
pos = (1651,10);
},
{
name = top;
pos = (918,1026);
}
);
shapes = (
{
closed = 1;
nodes = (
(999,-39,o),
(1154,66,o),
(1231,191,c),
(1292,-6,l),
(1668,22,l),
(1671,1041,l),
(1219,1079,l),
(1217,866,l),
(1100,1016,o),
(958,1058,o),
(735,1058,cs),
(410,1058,o),
(119,858,o),
(119,476,cs),
(119,114,o),
(451,-39,o),
(751,-39,cs)
);
},
{
closed = 1;
nodes = (
(808,264,o),
(704,327,o),
(704,475,cs),
(704,609,o),
(783,724,o),
(928,724,cs),
(1067,724,o),
(1148,627,o),
(1148,500,cs),
(1148,348,o),
(1068,267,o),
(921,264,c)
);
},
{
closed = 1;
nodes = (
(983,1670,l),
(980,1670,ls),
(975,1670,o),
(694,1579,o),
(633,1560,c),
(1050,1195,l),
(1078,1206,l),
(1203,1251,l)
);
}
);
};
layerId = m001;
shapes = (
{
ref = a;
},
{
pos = (608,0);
ref = gravecomb;
}
);
width = 1835;
}
);
unicode = 224;
},
{
glyphname = ainvertedbreve;
kernLeft = a;
kernRight = a;
lastChange = "2023-07-05 14:32:28 +0000";
layers = (
{
background = {
anchors = (
{
name = ogonek;
pos = (1651,10);
},
{
name = top;
pos = (930.196,1528);
}
);
shapes = (
{
closed = 1;
nodes = (
(999,-39,o),
(1154,66,o),
(1231,191,c),
(1292,-6,l),
(1668,22,l),
(1671,1041,l),
(1219,1079,l),
(1217,866,l),
(1100,1016,o),
(958,1058,o),
(735,1058,cs),
(410,1058,o),
(119,858,o),
(119,476,cs),
(119,114,o),
(451,-39,o),
(751,-39,cs)
);
},
{
closed = 1;
nodes = (
(808,264,o),
(704,327,o),
(704,475,cs),
(704,609,o),
(783,724,o),
(928,724,cs),
(1067,724,o),
(1148,627,o),
(1148,500,cs),
(1148,348,o),
(1068,267,o),
(921,264,c)
);
},
{
closed = 1;
nodes = (
(1029,1266,o),
(1028,1266,o),
(1028,1263,cs),
(1028,1250,o),
(1041,1242,o),
(1113,1242,cs),
(1203,1242,o),
(1210,1252,o),
(1210,1279,cs),
(1210,1402,o),
(1135,1528,o),
(954,1528,cs),
(785,1528,o),
(650,1441,o),
(650,1293,cs),
(650,1261,o),
(654,1247,o),
(745,1247,cs),
(811,1247,o),
(816,1256,o),
(819,1270,cs),
(819,1271,o),
(818,1272,o),
(818,1273,cs),
(818,1312,o),
(843,1372,o),
(929,1372,cs),
(998,1372,o),
(1033,1332,o),
(1033,1296,cs),
(1033,1285,o),
(1030,1276,o),
(1029,1269,cs)
);
}
);
};
layerId = m001;
shapes = (
{
ref = a;
},
{
pos = (582,-439);
ref = breveinvertedcomb;
}
);
width = 1835;
}
);
unicode = 515;
},
{
glyphname = amacron;
lastChange = "2023-07-05 14:32:28 +0000";
layers = (
{
background = {
anchors = (
{
name = ogonek;
pos = (1651,10);
},
{
name = top;
pos = (918,1026);
}
);
shapes = (
{
closed = 1;
nodes = (
(999,-39,o),
(1154,66,o),
(1231,191,c),
(1292,-6,l),
(1668,22,l),
(1671,1041,l),
(1219,1079,l),
(1217,866,l),
(1100,1016,o),
(958,1058,o),
(735,1058,cs),
(410,1058,o),
(119,858,o),
(119,476,cs),
(119,114,o),
(451,-39,o),
(751,-39,cs)
);
},
{
closed = 1;
nodes = (
(808,264,o),
(704,327,o),
(704,475,cs),
(704,609,o),
(783,724,o),
(928,724,cs),
(1067,724,o),
(1148,627,o),
(1148,500,cs),
(1148,348,o),
(1068,267,o),
(921,264,c)
);
},
{
closed = 1;
nodes = (
(481,584,l),
(608,586,l),
(716,586,o),
(1084,594,o),
(1340,602,c),
(1342,636,l),
(1345,687,o),
(1354,951,o),
(1356,1028,c),
(523,1010,l)
);
}
);
};
layerId = m001;
shapes = (
{
ref = a;
},
{
pos = (223,0);
ref = macroncomb;
}
);
width = 1835;
}
);
unicode = 257;
},
{
glyphname = aogonek;
lastChange = "2023-07-05 14:32:28 +0000";
layers = (
{
background = {
anchors = (
{
name = ogonek;
pos = (1651,10);
},
{
name = top;
pos = (918,1026);
}
);
shapes = (
{
closed = 1;
nodes = (
(999,-39,o),
(1154,66,o),
(1231,191,c),
(1292,-6,l),
(1668,22,l),
(1671,1041,l),
(1219,1079,l),
(1217,866,l),
(1100,1016,o),
(958,1058,o),
(735,1058,cs),
(410,1058,o),
(119,858,o),
(119,476,cs),
(119,114,o),
(451,-39,o),
(751,-39,cs)
);
},
{
closed = 1;
nodes = (
(808,264,o),
(704,327,o),
(704,475,cs),
(704,609,o),
(783,724,o),
(928,724,cs),
(1067,724,o),
(1148,627,o),
(1148,500,cs),
(1148,348,o),
(1068,267,o),
(921,264,c)
);
},
{
closed = 1;
nodes = (
(1218,-510,o),
(1297,-596,o),
(1427,-596,cs),
(1482,-596,o),
(1551,-591,o),
(1603,-565,c),
(1611,-557,o),
(1623,-449,o),
(1623,-412,c),
(1569,-431,o),
(1541,-438,o),
(1470,-438,cs),
(1423,-438,o),
(1399,-412,o),
(1399,-377,cs),
(1399,-370,o),
(1400,-363,o),
(1402,-356,cs),
(1440,-209,o),
(1560,-113,o),
(1651,-17,c),
(1643,-17,o),
(1599,-18,o),
(1556,-18,cs),
(1472,-18,l),
(1349,-101,o),
(1229,-226,o),
(1218,-386,c)
);
}
);
};
layerId = m001;
shapes = (
{
ref = a;
},
{
pos = (1129,47);
ref = ogonekcomb;
}
);
width = 1835;
}
);
unicode = 261;
},
{
glyphname = aring;
kernLeft = a;
kernRight = a;
lastChange = "2023-07-05 14:32:28 +0000";
layers = (
{
background = {
anchors = (
{
name = ogonek;
pos = (1651,10);
},
{
name = top;
pos = (918,1026);
}
);
shapes = (
{
closed = 1;
nodes = (
(999,-39,o),
(1154,66,o),
(1231,191,c),
(1292,-6,l),
(1668,22,l),
(1671,1041,l),
(1219,1079,l),
(1217,866,l),
(1100,1016,o),
(958,1058,o),
(735,1058,cs),
(410,1058,o),
(119,858,o),
(119,476,cs),
(119,114,o),
(451,-39,o),
(751,-39,cs)
);
},
{
closed = 1;
nodes = (
(808,264,o),
(704,327,o),
(704,475,cs),
(704,609,o),
(783,724,o),
(928,724,cs),
(1067,724,o),
(1148,627,o),
(1148,500,cs),
(1148,348,o),
(1068,267,o),
(921,264,c)
);
},
{
closed = 1;
nodes = (
(1021,1408,o),
(982,1338,o),
(898,1338,c),
(827,1341,o),
(809,1405,o),
(809,1456,cs),
(809,1522,o),
(848,1594,o),
(937,1594,cs),
(1001,1594,o),
(1021,1527,o),
(1021,1478,cs)
);
},
{
closed = 1;
nodes = (
(1091,1192,o),
(1200,1339,o),
(1200,1484,cs),
(1200,1637,o),
(1083,1737,o),
(935,1737,cs),
(767,1737,o),
(637,1609,o),
(637,1457,cs),
(637,1290,o),
(759,1192,o),
(916,1192,cs)
);
}
);
};
layerId = m001;
shapes = (
{
ref = a;
},
{
pos = (563,0);
ref = ringcomb;
}
);
width = 1835;
}
);
unicode = 229;
},
{
glyphname = atilde;
kernLeft = a;
kernRight = a;
lastChange = "2023-07-05 14:32:28 +0000";
layers = (
{
background = {
anchors = (
{
name = ogonek;
pos = (1651,10);
},
{
name = top;
pos = (918,1026);
}
);
shapes = (
{
closed = 1;
nodes = (
(999,-39,o),
(1154,66,o),
(1231,191,c),
(1292,-6,l),
(1668,22,l),
(1671,1041,l),
(1219,1079,l),
(1217,866,l),
(1100,1016,o),
(958,1058,o),
(735,1058,cs),
(410,1058,o),
(119,858,o),
(119,476,cs),
(119,114,o),
(451,-39,o),
(751,-39,cs)
);
},
{
closed = 1;
nodes = (
(808,264,o),
(704,327,o),
(704,475,cs),
(704,609,o),
(783,724,o),
(928,724,cs),
(1067,724,o),
(1148,627,o),
(1148,500,cs),
(1148,348,o),
(1068,267,o),
(921,264,c)
);
},
{
closed = 1;
nodes = (
(944,1698,o),
(868,1704,o),
(762,1704,cs),
(574,1704,o),
(420,1535,o),
(420,1284,cs),
(420,1272,o),
(435,1267,o),
(450,1267,cs),
(530,1267,o),
(536,1270,o),
(621,1270,cs),
(638,1270,o),
(650,1282,o),
(650,1293,cs),
(650,1344,o),
(666,1403,o),
(729,1403,cs),
(763,1403,o),
(787,1398,o),
(809,1366,cs),
(896,1239,o),
(978,1214,o),
(1064,1214,cs),
(1275,1214,o),
(1417,1436,o),
(1417,1628,cs),
(1417,1643,o),
(1402,1647,o),
(1391,1647,cs),
(1374,1647,o),
(1194,1638,o),
(1187,1638,cs),
(1162,1638,o),
(1186,1531,o),
(1103,1531,cs),
(1074,1531,o),
(1054,1544,o),
(1029,1579,cs)
);
}
);
};
layerId = m001;
shapes = (
{
ref = a;
},
{
pos = (356,0);
ref = tildecomb;
}
);
width = 1835;
}
);
unicode = 227;
},
{
glyphname = ae;
lastChange = "2023-07-05 14:32:28 +0000";
layers = (
{
anchors = (
{
name = bottom;
pos = (1306,0);
},
{
name = top;
pos = (1366,1026);
}
);
background = {
anchors = (
{
name = top;
pos = (1306,1026);
}
);
shapes = (
{
closed = 1;
nodes = (
(1690,716,o),
(1750,796,o),
(1869,796,cs),
(1967,796,o),
(2032,756,o),
(2039,625,c),
(1678,625,l)
);
},
{
closed = 1;
nodes = (
(735,384,o),
(828,442,o),
(1010,442,cs),
(1090,442,o),
(1104,441,o),
(1155,440,c),
(1163,387,o),
(1179,347,o),
(1190,323,c),
(1078,246,o),
(962,209,o),
(875,209,cs),
(783.235,209,o),
(735,255,o),
(735,308,cs)
);
},
{
closed = 1;
nodes = (
(1455,22,o),
(1669,-38,o),
(1888,-38,cs),
(2144,-38,o),
(2375,21,o),
(2452,83,c),
(2461,337,l),
(2407,337,l),
(2265,276,o),
(2132,248,o),
(2019,248,cs),
(1835,248,o),
(1702,320,o),
(1665,441,c),
(2476,441,l),
(2481,564,ls),
(2482,575,o),
(2482,577,o),
(2482,587,cs),
(2482,923,o),
(2143,1046,o),
(1871,1046,cs),
(1704,1046,o),
(1489,999,o),
(1377,880,c),
(1279,999,o),
(1037,1046,o),
(854,1046,cs),
(598,1046,o),
(337,977,o),
(210,915,c),
(281,671,l),
(325,671,l),
(516,741,o),
(682,776,o),
(813,776,cs),
(973,776,o),
(1081,724,o),
(1116,622,c),
(817,622,ls),
(416,622,o),
(181,495,o),
(181,267,cs),
(181,62,o),
(379,-38,o),
(709,-38,cs),
(921,-38,o),
(1139.71,-7.941,o),
(1315,145,c)
);
}
);
};
layerId = m001;
shapes = (
{
closed = 1;
nodes = (
(921,-38,o),
(1140,-8,o),
(1315,145,c),
(1455,22,o),
(1669,-38,o),
(1888,-38,cs),
(2144,-38,o),
(2375,21,o),
(2452,83,c),
(2461,337,l),
(2407,337,l),
(2265,276,o),
(2132,248,o),
(2019,248,cs),
(1835,248,o),
(1702,320,o),
(1665,441,c),
(2476,441,l),
(2481,564,ls),
(2482,575,o),
(2482,577,o),
(2482,587,cs),
(2482,923,o),
(2143,1046,o),
(1871,1046,cs),
(1704,1046,o),
(1489,999,o),
(1377,880,c),
(1279,999,o),
(1037,1046,o),
(854,1046,cs),
(598,1046,o),
(337,977,o),
(210,915,c),
(281,671,l),
(325,671,l),
(516,741,o),
(682,776,o),
(813,776,cs),
(973,776,o),
(1081,724,o),
(1116,622,c),
(817,622,ls),
(416,622,o),
(181,495,o),
(181,267,cs),
(181,62,o),
(379,-38,o),
(709,-38,cs)
);
},
{
closed = 1;
nodes = (
(783,209,o),
(735,255,o),
(735,308,cs),
(735,384,o),
(828,442,o),
(1010,442,cs),
(1090,442,o),
(1104,441,o),
(1155,440,c),
(1163,387,o),
(1179,347,o),
(1190,323,c),
(1078,246,o),
(962,209,o),
(875,209,cs)
);
},
{
closed = 1;
nodes = (
(1690,716,o),
(1750,796,o),
(1869,796,cs),
(1967,796,o),
(2032,756,o),
(2039,625,c),
(1678,625,l)
);
}
);
width = 2612;
}
);
unicode = 230;
},
{
glyphname = b;
lastChange = "2023-07-05 14:32:28 +0000";
layers = (
{
anchors = (
{
name = bottom;
pos = (955,0);
},
{
name = center;
pos = (955,513);
},
{
name = top;
pos = (1205,1026);
}
);
background = {
shapes = (
{
closed = 1;
nodes = (
(883,-37,o),
(1106,-37,cs),
(1477,-37,o),
(1798,217,o),
(1798,528,cs),
(1798,860,o),
(1500,1047,o),
(1162,1047,cs),
(1004,1047,o),
(848,992,o),
(742,920,c),
(744,998,o),
(760,1261,o),
(760,1341,cs),
(760,1373,o),
(762,1406,o),
(762,1438,c),
(721,1447,o),
(674,1449,o),
(628,1449,cs),
(581,1449,o),
(248,1410,o),
(196,1403,c),
(196,1269,l),
(148,140,l),
(149,137,l),
(147,94,o),
(146,49,o),
(145,6,c),
(162,-8,o),
(183,-14,o),
(210,-14,cs),
(223,-14,o),
(426,17,o),
(441,26,c),
(444,26,o),
(542,176,o),
(548,194,c),
(548,190,l),
(669,41,o)
);
},
{
closed = 1;
nodes = (
(1212,661,o),
(1212,518,cs),
(1212,369,o),
(1115,250,o),
(958,250,cs),
(774,250,o),
(690,371,o),
(690,496,cs),
(690,630,o),
(781,768,o),
(956,768,cs),
(1116,768,o)
);
}
);
};
layerId = m001;
shapes = (
{
closed = 1;
nodes = (
(1477,-37,o),
(1798,217,o),
(1798,528,cs),
(1798,860,o),
(1500,1047,o),
(1162,1047,cs),
(1004,1047,o),
(848,992,o),
(742,920,c),
(744,998,o),
(760,1261,o),
(760,1341,cs),
(760,1373,o),
(762,1406,o),
(762,1438,c),
(721,1447,o),
(674,1449,o),
(628,1449,cs),
(581,1449,o),
(248,1410,o),
(196,1403,c),
(196,1269,l),
(148,140,l),
(149,137,l),
(147,94,o),
(146,49,o),
(145,6,c),
(162,-8,o),
(183,-14,o),
(210,-14,cs),
(223,-14,o),
(426,17,o),
(441,26,c),
(444,26,o),
(542,176,o),
(548,194,c),
(548,190,l),
(669,41,o),
(883,-37,o),
(1106,-37,cs)
);
},
{
closed = 1;
nodes = (
(774,250,o),
(690,371,o),
(690,496,cs),
(690,630,o),
(781,768,o),
(956,768,cs),
(1116,768,o),
(1212,661,o),
(1212,518,cs),
(1212,369,o),
(1115,250,o),
(958,250,cs)
);
}
);
width = 1909;
}
);
unicode = 98;
},
{
glyphname = c;
kernLeft = c;
kernRight = c;
lastChange = "2023-07-05 14:32:28 +0000";
layers = (
{
anchors = (
{
name = bottom;
pos = (919,0);
},
{
name = top;
pos = (991,1026);
}
);
background = {
anchors = (
{
name = bottom;
pos = (804,0);
},
{
name = top;
pos = (804,1026);
}
);
shapes = (
{
closed = 1;
nodes = (
(1196,-39,o),
(1330,-18,o),
(1440,11,c),
(1433,326,l),
(1321,307,o),
(1184,298,o),
(1103,298,cs),
(851,298,o),
(742,383,o),
(742,501,cs),
(742,659,o),
(953,697,o),
(1183,697,cs),
(1292,697,o),
(1366,685,o),
(1463,667,c),
(1488,988,l),
(1366,1014,o),
(1127,1048,o),
(1017,1048,cs),
(599,1048,o),
(119,902,o),
(119,490,cs),
(119,79,o),
(603,-39,o),
(1020,-39,cs)
);
}
);
};
layerId = m001;
shapes = (
{
closed = 1;
nodes = (
(1196,-39,o),
(1330,-18,o),
(1440,11,c),
(1433,326,l),
(1321,307,o),
(1184,298,o),
(1103,298,cs),
(851,298,o),
(742,383,o),
(742,501,cs),
(742,659,o),
(953,697,o),
(1183,697,cs),
(1292,697,o),
(1366,685,o),
(1463,667,c),
(1488,988,l),
(1366,1014,o),
(1127,1048,o),
(1017,1048,cs),
(599,1048,o),
(119,902,o),
(119,490,cs),
(119,79,o),
(603,-39,o),
(1020,-39,cs)
);
}
);
width = 1638;
}
);
unicode = 99;
},
{
glyphname = cacute;
lastChange = "2023-07-05 14:32:28 +0000";
layers = (
{
background = {
anchors = (
{
name = bottom;
pos = (804,0);
},
{
name = top;
pos = (804,1026);
}
);
shapes = (
{
closed = 1;
nodes = (
(1196,-39,o),
(1330,-18,o),
(1440,11,c),
(1433,326,l),
(1321,307,o),
(1184,298,o),
(1103,298,cs),
(851,298,o),
(742,383,o),
(742,501,cs),
(742,659,o),
(953,697,o),
(1183,697,cs),
(1292,697,o),
(1366,685,o),
(1463,667,c),
(1488,988,l),
(1366,1014,o),
(1127,1048,o),
(1017,1048,cs),
(599,1048,o),
(119,902,o),
(119,490,cs),
(119,79,o),
(603,-39,o),
(1020,-39,cs)
);
},
{
closed = 1;
nodes = (
(673,1206,o),
(675,1205,o),
(675,1205,c),
(761,1270,o),
(1007,1471,o),
(1108,1552,c),
(1061,1566,o),
(810,1638,o),
(764,1650,c),
(742,1619,o),
(582,1382,o),
(501,1247,c),
(537,1238,o),
(654,1209,o),
(672,1206,cs)
);
}
);
};
layerId = m001;
shapes = (
{
ref = c;
},
{
pos = (624,0);
ref = acutecomb;
}
);
width = 1638;
}
);
unicode = 263;
},
{
glyphname = ccaron;
lastChange = "2023-07-05 14:32:28 +0000";
layers = (
{
background = {
anchors = (
{
name = bottom;
pos = (804,0);
},
{
name = top;
pos = (804,1026);
}
);
shapes = (
{
closed = 1;
nodes = (
(1196,-39,o),
(1330,-18,o),
(1440,11,c),
(1433,326,l),
(1321,307,o),
(1184,298,o),
(1103,298,cs),
(851,298,o),
(742,383,o),
(742,501,cs),
(742,659,o),
(953,697,o),
(1183,697,cs),
(1292,697,o),
(1366,685,o),
(1463,667,c),
(1488,988,l),
(1366,1014,o),
(1127,1048,o),
(1017,1048,cs),
(599,1048,o),
(119,902,o),
(119,490,cs),
(119,79,o),
(603,-39,o),
(1020,-39,cs)
);
},
{
closed = 1;
nodes = (
(300,1782,o),
(298,1778,o),
(298,1772,cs),
(298,1765,o),
(301,1757,o),
(307,1747,cs),
(404,1590,o),
(634,1247,o),
(636,1247,c),
(639,1245,o),
(646,1245,o),
(650,1245,cs),
(828,1245,l),
(829,1244,o),
(832,1243,o),
(834,1243,cs),
(838,1243,o),
(842,1245,o),
(846,1249,cs),
(986,1412,o),
(1131,1579,o),
(1281,1747,c),
(1302,1766,o),
(1310,1780,o),
(1310,1790,cs),
(1310,1793,o),
(1309,1795,o),
(1308,1798,c),
(1309,1799,o),
(1309,1801,o),
(1309,1803,cs),
(1309,1836,o),
(1144,1905,o),
(1101,1937,c),
(1060,1958,o),
(1040,1965,o),
(1032,1965,c),
(1032,1965,o),
(1031,1964,o),
(1031,1963,cs),
(1032,1962,l),
(948,1847,o),
(859,1738,o),
(773,1626,c),
(625,1936,l),
(616,1958,o),
(613,1966,o),
(608,1966,cs),
(580,1966,o),
(302,1830,o),
(302,1789,cs),
(302,1788,o),
(302,1787,o),
(303,1786,c)
);
}
);
};
layerId = m001;
shapes = (
{
ref = c;
},
{
pos = (473,0);
ref = caroncomb;
}
);
width = 1638;
}
);
unicode = 269;
},
{
glyphname = ccedilla;
kernLeft = c;
kernRight = c;
lastChange = "2023-07-05 14:32:28 +0000";
layers = (
{
background = {
anchors = (
{
name = bottom;
pos = (804,0);
},
{
name = top;
pos = (804,1026);
}
);
shapes = (
{
closed = 1;
nodes = (
(1196,-39,o),
(1330,-18,o),
(1440,11,c),
(1433,326,l),
(1321,307,o),
(1184,298,o),
(1103,298,cs),
(851,298,o),
(742,383,o),
(742,501,cs),
(742,659,o),
(953,697,o),
(1183,697,cs),
(1292,697,o),
(1366,685,o),
(1463,667,c),
(1488,988,l),
(1366,1014,o),
(1127,1048,o),
(1017,1048,cs),
(599,1048,o),
(119,902,o),
(119,490,cs),
(119,79,o),
(603,-39,o),
(1020,-39,cs)
);
},
{
closed = 1;
nodes = (
(849,-156,o),
(831,-157,o),
(813,-159,c),
(861,-17,l),
(682,-17,l),
(619,-266,l),
(778,-287,ls),
(828,-294,o),
(848,-323,o),
(848,-355,cs),
(848,-403,o),
(814,-448,o),
(745,-448,cs),
(704,-448,o),
(653,-433,o),
(589,-394,c),
(549,-537,l),
(617,-585,o),
(702,-610,o),
(783,-610,cs),
(927,-610,o),
(1059,-532,o),
(1059,-365,cs),
(1059,-243,o),
(1006,-156,o),
(865,-156,cs)
);
}
);
};
layerId = m001;
shapes = (
{
ref = c;
},
{
pos = (643,0);
ref = cedillacomb;
}
);
width = 1638;
}
);
unicode = 231;
},
{
glyphname = cdotaccent;
lastChange = "2023-07-05 14:32:28 +0000";
layers = (
{
background = {
anchors = (
{
name = bottom;
pos = (804,0);
},
{
name = top;
pos = (804,1026);
}
);
shapes = (
{
closed = 1;
nodes = (
(1196,-39,o),
(1330,-18,o),
(1440,11,c),
(1433,326,l),
(1321,307,o),
(1184,298,o),
(1103,298,cs),
(851,298,o),
(742,383,o),
(742,501,cs),
(742,659,o),
(953,697,o),
(1183,697,cs),
(1292,697,o),
(1366,685,o),
(1463,667,c),
(1488,988,l),
(1366,1014,o),
(1127,1048,o),
(1017,1048,cs),
(599,1048,o),
(119,902,o),
(119,490,cs),
(119,79,o),
(603,-39,o),
(1020,-39,cs)
);
},
{
closed = 1;
nodes = (
(589,1389,o),
(592,1389,o),
(600,1389,cs),
(729,1389,o),
(848,1391,o),
(961,1392,c),
(986,1395,o),
(986,1408,o),
(991,1452,c),
(1019,1766,l),
(1019,1785,o),
(1010,1790,o),
(998,1790,cs),
(885,1789,o),
(750,1788,o),
(633,1788,c),
(609,1784,o),
(606,1771,o),
(604,1727,cs),
(587,1438,o),
(600,1652,o),
(589,1400,c),
(589,1396,ls)
);
}
);
};
layerId = m001;
shapes = (
{
ref = c;
},
{
pos = (703,0);
ref = dotaccentcomb;
}
);
width = 1638;
}
);
unicode = 267;
},
{
glyphname = d;
lastChange = "2023-07-05 14:32:28 +0000";
layers = (
{
anchors = (
{
name = bottom;
pos = (949,0);
},
{
name = center;
pos = (949,513);
},
{
name = top;
pos = (949,1465);
},
{
name = topright;
pos = (1949,1445);
}
);
background = {
anchors = (
{
name = center;
pos = (949,513);
}
);
shapes = (
{
closed = 1;
nodes = (
(784.886,255,o),
(716.465,345.412,o),
(716.465,502.16,cs),
(716.465,618.824,o),
(804.542,770,o),
(968.833,770,cs),
(1117.37,770,o),
(1203.07,651.57,o),
(1203.07,527.71,c),
(1199.41,394.172,o),
(1114.59,255,o),
(920.796,255,cs)
);
},
{
closed = 1;
nodes = (
(1380.89,145.815,o),
(1425,73,o),
(1475,-15,c),
(1569,9,o),
(1729.18,25.381,o),
(1752.2,37.876,c),
(1752.2,1445.19,ls),
(1749.24,1445.19,ls),
(1688.09,1445.19,o),
(1328.78,1419.46,o),
(1232.28,1415.17,c),
(1231.47,1399.71,o),
(1226.24,1342.49,o),
(1226.24,1308.95,cs),
(1223.14,1186.92,o),
(1217.05,1039.85,o),
(1213.95,919.086,c),
(1117.35,992.015,o),
(970.749,1047,o),
(820.192,1047,cs),
(473.817,1047,o),
(119,859.235,o),
(119,482.184,cs),
(119,175.389,o),
(403.605,-33,o),
(765.81,-33,cs),
(1094.66,-33,o),
(1241.41,85.385,o),
(1343.76,219.547,c)
);
}
);
};
layerId = m001;
shapes = (
{
closed = 1;
nodes = (
(1095,-33,o),
(1241,85,o),
(1344,220,c),
(1381,146,o),
(1425,73,o),
(1475,-15,c),
(1569,9,o),
(1729,25,o),
(1752,38,c),
(1752,1445,l),
(1749,1445,ls),
(1688,1445,o),
(1329,1419,o),
(1232,1415,c),
(1231,1400,o),
(1226,1342,o),
(1226,1309,cs),
(1223,1187,o),
(1217,1040,o),
(1214,919,c),
(1117,992,o),
(971,1047,o),
(820,1047,cs),
(474,1047,o),
(119,859,o),
(119,482,cs),
(119,175,o),
(404,-33,o),
(766,-33,cs)
);
},
{
closed = 1;
nodes = (
(785,255,o),
(716,345,o),
(716,502,cs),
(716,619,o),
(805,770,o),
(969,770,cs),
(1117,770,o),
(1203,652,o),
(1203,528,cs),
(1199,394,o),
(1115,255,o),
(921,255,cs)
);
}
);
width = 1898;
}
);
unicode = 100;
},
{
glyphname = dcaron;
lastChange = "2023-07-05 14:32:28 +0000";
layers = (
{
background = {
anchors = (
{
name = center;
pos = (949,513);
}
);
shapes = (
{
closed = 1;
nodes = (
(784.886,255,o),
(716.465,345.412,o),
(716.465,502.16,cs),
(716.465,618.824,o),
(804.542,770,o),
(968.833,770,cs),
(1117.37,770,o),
(1203.07,651.57,o),
(1203.07,527.71,c),
(1199.41,394.172,o),
(1114.59,255,o),
(920.796,255,cs)
);
},
{
closed = 1;
nodes = (
(1380.89,145.815,o),
(1425,73,o),
(1475,-15,c),
(1569,9,o),
(1729.18,25.381,o),
(1752.2,37.876,c),
(1752.2,1445.19,ls),
(1749.24,1445.19,ls),
(1688.09,1445.19,o),
(1328.78,1419.46,o),
(1232.28,1415.17,c),
(1231.47,1399.71,o),
(1226.24,1342.49,o),
(1226.24,1308.95,cs),
(1223.14,1186.92,o),
(1217.05,1039.85,o),
(1213.95,919.086,c),
(1117.35,992.015,o),
(970.749,1047,o),
(820.192,1047,cs),
(473.817,1047,o),
(119,859.235,o),
(119,482.184,cs),
(119,175.389,o),
(403.605,-33,o),
(765.81,-33,cs),
(1094.66,-33,o),
(1241.41,85.385,o),
(1343.76,219.547,c)
);
},
{
closed = 1;
nodes = (
(1953,1782,o),
(1951,1778,o),
(1951,1772,cs),
(1951,1765,o),
(1954,1757,o),
(1960,1747,cs),
(2057,1590,o),
(2287,1247,o),
(2289,1247,c),
(2292,1245,o),
(2299,1245,o),
(2303,1245,cs),
(2481,1245,l),
(2482,1244,o),
(2485,1243,o),
(2487,1243,cs),
(2491,1243,o),
(2495,1245,o),
(2499,1249,cs),
(2639,1412,o),
(2784,1579,o),
(2934,1747,c),
(2955,1766,o),
(2963,1780,o),
(2963,1790,cs),
(2963,1793,o),
(2962,1795,o),
(2961,1798,c),
(2962,1799,o),
(2962,1801,o),
(2962,1803,cs),
(2962,1836,o),
(2797,1905,o),
(2754,1937,c),
(2713,1958,o),
(2693,1965,o),
(2685,1965,c),
(2685,1965,o),
(2684,1964,o),
(2684,1963,cs),
(2685,1962,l),
(2601,1847,o),
(2512,1738,o),
(2426,1626,c),
(2278,1936,l),
(2269,1958,o),
(2266,1966,o),
(2261,1966,cs),
(2233,1966,o),
(1955,1830,o),
(1955,1789,cs),
(1955,1788,o),
(1955,1787,o),
(1956,1786,c)
);
}
);
};
layerId = m001;
shapes = (
{
alignment = -1;
ref = d;
},
{
alignment = -1;
pos = (1796,-109);
ref = caroncomb.alt;
}
);
width = 2261;
}
);
unicode = 271;
},
{
glyphname = dcroat;
lastChange = "2023-07-05 14:32:28 +0000";
layers = (
{
anchors = (
{
name = bottom;
pos = (949,0);
},
{
name = center;
pos = (949,513);
},
{
name = top;
pos = (949,2264);
},
{
name = topright;
pos = (1878,2264);
}
);
layerId = m001;
shapes = (
{
closed = 1;
nodes = (
(1095,-33,o),
(1241,85,o),
(1344,220,c),
(1381,146,o),
(1425,73,o),
(1475,-15,c),
(1569,9,o),
(1729,25,o),
(1752,38,c),
(1752,1445,l),
(1749,1525,ls),
(1747,1586,o),
(1329,1499,o),
(1232,1495,c),
(1231,1480,o),
(1226,1342,o),
(1226,1309,cs),
(1223,1187,o),
(1217,1040,o),
(1214,919,c),
(1117,992,o),
(971,1047,o),
(820,1047,cs),
(474,1047,o),
(119,859,o),
(119,482,cs),
(119,175,o),
(404,-33,o),
(766,-33,cs)
);
},
{
closed = 1;
nodes = (
(785,255,o),
(716,345,o),
(716,502,cs),
(716,619,o),
(805,770,o),
(969,770,cs),
(1117,770,o),
(1203,652,o),
(1203,528,cs),
(1199,394,o),
(1115,255,o),
(921,255,cs)
);
},
{
closed = 1;
nodes = (
(1003,1124,ls),
(1134,1124,o),
(1582,1130,o),
(1892,1136,c),
(1903,1238,o),
(1898,1321,o),
(1898,1349,cs),
(1898,1383,l),
(1628,1375,o),
(1149,1365,o),
(882,1355,c),
(869,1124,l)
);
}
);
width = 1898;
}
);
unicode = 273;
},
